<?xml version="1.0" encoding="utf-8" standalone="no"?>
<!DOCTYPE svg PUBLIC "-//W3C//DTD SVG 1.1//EN"
  "http://www.w3.org/Graphics/SVG/1.1/DTD/svg11.dtd">
<svg xmlns:xlink="http://www.w3.org/1999/xlink" width="720pt" height="432pt" viewBox="0 0 720 432" xmlns="http://www.w3.org/2000/svg" version="1.1">
 <metadata>
  <rdf:RDF xmlns:dc="http://purl.org/dc/elements/1.1/" xmlns:cc="http://creativecommons.org/ns#" xmlns:rdf="http://www.w3.org/1999/02/22-rdf-syntax-ns#">
   <cc:Work>
    <dc:type rdf:resource="http://purl.org/dc/dcmitype/StillImage"/>
    <dc:date>2026-06-15T04:07:33.057648</dc:date>
    <dc:format>image/svg+xml</dc:format>
    <dc:creator>
     <cc:Agent>
      <dc:title>Matplotlib v3.11.0, https://matplotlib.org/</dc:title>
     </cc:Agent>
    </dc:creator>
   </cc:Work>
  </rdf:RDF>
 </metadata>
 <defs>
  <style type="text/css">*{stroke-linejoin: round; stroke-linecap: butt}</style>
 </defs>
 <g id="figure_1">
  <g id="patch_1">
   <path d="M 0 432 
L 720 432 
L 720 0 
L 0 0 
z
" style="fill: #ffffff"/>
  </g>
  <g id="axes_1">
   <g id="patch_2">
    <path d="M 47.962344 389.877656 
L 709.2 389.877656 
L 709.2 26.16 
L 47.962344 26.16 
z
" style="fill: #ffffff"/>
   </g>
   <g id="matplotlib.axis_1">
    <g id="xtick_1">
     <g id="line2d_1">
      <path d="M 78.018601 389.877656 
L 78.018601 26.16 
" clip-path="url(#p0dc847d9a4)" style="fill: none; stroke-dasharray: 1.85,0.8; stroke-dashoffset: 0; stroke: #b0b0b0; stroke-width: 0.5"/>
     </g>
     <g id="line2d_2">
      <defs>
       <path id="m4edad19e72" d="M 0 0 
L 0 3.5 
" style="stroke: #000000; stroke-width: 0.8"/>
      </defs>
      <g>
       <use xlink:href="#m4edad19e72" x="78.018601" y="389.877656" style="stroke: #000000; stroke-width: 0.8"/>
      </g>
     </g>
     <g id="text_1">
      <!-- 0 -->
      <g transform="translate(74.837351 404.475312) scale(0.1 -0.1)">
       <defs>
        <path id="DejaVuSans-13" d="M 2034 4250 
Q 1547 4250 1301 3770 
Q 1056 3291 1056 2328 
Q 1056 1369 1301 889 
Q 1547 409 2034 409 
Q 2525 409 2770 889 
Q 3016 1369 3016 2328 
Q 3016 3291 2770 3770 
Q 2525 4250 2034 4250 
z
M 2034 4750 
Q 2819 4750 3233 4129 
Q 3647 3509 3647 2328 
Q 3647 1150 3233 529 
Q 2819 -91 2034 -91 
Q 1250 -91 836 529 
Q 422 1150 422 2328 
Q 422 3509 836 4129 
Q 1250 4750 2034 4750 
z
" transform="scale(0.015625)"/>
       </defs>
       <use xlink:href="#DejaVuSans-13"/>
      </g>
     </g>
    </g>
    <g id="xtick_2">
     <g id="line2d_3">
      <path d="M 153.159271 389.877656 
L 153.159271 26.16 
" clip-path="url(#p0dc847d9a4)" style="fill: none; stroke-dasharray: 1.85,0.8; stroke-dashoffset: 0; stroke: #b0b0b0; stroke-width: 0.5"/>
     </g>
     <g id="line2d_4">
      <g>
       <use xlink:href="#m4edad19e72" x="153.159271" y="389.877656" style="stroke: #000000; stroke-width: 0.8"/>
      </g>
     </g>
     <g id="text_2">
      <!-- 1 -->
      <g transform="translate(149.978021 404.475312) scale(0.1 -0.1)">
       <defs>
        <path id="DejaVuSans-14" d="M 794 531 
L 1825 531 
L 1825 4091 
L 703 3866 
L 703 4441 
L 1819 4666 
L 2450 4666 
L 2450 531 
L 3481 531 
L 3481 0 
L 794 0 
L 794 531 
z
" transform="scale(0.015625)"/>
       </defs>
       <use xlink:href="#DejaVuSans-14"/>
      </g>
     </g>
    </g>
    <g id="xtick_3">
     <g id="line2d_5">
      <path d="M 228.299941 389.877656 
L 228.299941 26.16 
" clip-path="url(#p0dc847d9a4)" style="fill: none; stroke-dasharray: 1.85,0.8; stroke-dashoffset: 0; stroke: #b0b0b0; stroke-width: 0.5"/>
     </g>
     <g id="line2d_6">
      <g>
       <use xlink:href="#m4edad19e72" x="228.299941" y="389.877656" style="stroke: #000000; stroke-width: 0.8"/>
      </g>
     </g>
     <g id="text_3">
      <!-- 2 -->
      <g transform="translate(225.118691 404.475312) scale(0.1 -0.1)">
       <defs>
        <path id="DejaVuSans-15" d="M 1228 531 
L 3431 531 
L 3431 0 
L 469 0 
L 469 531 
Q 828 903 1448 1529 
Q 2069 2156 2228 2338 
Q 2531 2678 2651 2914 
Q 2772 3150 2772 3378 
Q 2772 3750 2511 3984 
Q 2250 4219 1831 4219 
Q 1534 4219 1204 4116 
Q 875 4013 500 3803 
L 500 4441 
Q 881 4594 1212 4672 
Q 1544 4750 1819 4750 
Q 2544 4750 2975 4387 
Q 3406 4025 3406 3419 
Q 3406 3131 3298 2873 
Q 3191 2616 2906 2266 
Q 2828 2175 2409 1742 
Q 1991 1309 1228 531 
z
" transform="scale(0.015625)"/>
       </defs>
       <use xlink:href="#DejaVuSans-15"/>
      </g>
     </g>
    </g>
    <g id="xtick_4">
     <g id="line2d_7">
      <path d="M 303.440611 389.877656 
L 303.440611 26.16 
" clip-path="url(#p0dc847d9a4)" style="fill: none; stroke-dasharray: 1.85,0.8; stroke-dashoffset: 0; stroke: #b0b0b0; stroke-width: 0.5"/>
     </g>
     <g id="line2d_8">
      <g>
       <use xlink:href="#m4edad19e72" x="303.440611" y="389.877656" style="stroke: #000000; stroke-width: 0.8"/>
      </g>
     </g>
     <g id="text_4">
      <!-- 3 -->
      <g transform="translate(300.259361 404.475312) scale(0.1 -0.1)">
       <defs>
        <path id="DejaVuSans-16" d="M 2597 2516 
Q 3050 2419 3304 2112 
Q 3559 1806 3559 1356 
Q 3559 666 3084 287 
Q 2609 -91 1734 -91 
Q 1441 -91 1130 -33 
Q 819 25 488 141 
L 488 750 
Q 750 597 1062 519 
Q 1375 441 1716 441 
Q 2309 441 2620 675 
Q 2931 909 2931 1356 
Q 2931 1769 2642 2001 
Q 2353 2234 1838 2234 
L 1294 2234 
L 1294 2753 
L 1863 2753 
Q 2328 2753 2575 2939 
Q 2822 3125 2822 3475 
Q 2822 3834 2567 4026 
Q 2313 4219 1838 4219 
Q 1578 4219 1281 4162 
Q 984 4106 628 3988 
L 628 4550 
Q 988 4650 1302 4700 
Q 1616 4750 1894 4750 
Q 2613 4750 3031 4423 
Q 3450 4097 3450 3541 
Q 3450 3153 3228 2886 
Q 3006 2619 2597 2516 
z
" transform="scale(0.015625)"/>
       </defs>
       <use xlink:href="#DejaVuSans-16"/>
      </g>
     </g>
    </g>
    <g id="xtick_5">
     <g id="line2d_9">
      <path d="M 378.581281 389.877656 
L 378.581281 26.16 
" clip-path="url(#p0dc847d9a4)" style="fill: none; stroke-dasharray: 1.85,0.8; stroke-dashoffset: 0; stroke: #b0b0b0; stroke-width: 0.5"/>
     </g>
     <g id="line2d_10">
      <g>
       <use xlink:href="#m4edad19e72" x="378.581281" y="389.877656" style="stroke: #000000; stroke-width: 0.8"/>
      </g>
     </g>
     <g id="text_5">
      <!-- 4 -->
      <g transform="translate(375.400031 404.475312) scale(0.1 -0.1)">
       <defs>
        <path id="DejaVuSans-17" d="M 2419 4116 
L 825 1625 
L 2419 1625 
L 2419 4116 
z
M 2253 4666 
L 3047 4666 
L 3047 1625 
L 3713 1625 
L 3713 1100 
L 3047 1100 
L 3047 0 
L 2419 0 
L 2419 1100 
L 313 1100 
L 313 1709 
L 2253 4666 
z
" transform="scale(0.015625)"/>
       </defs>
       <use xlink:href="#DejaVuSans-17"/>
      </g>
     </g>
    </g>
    <g id="xtick_6">
     <g id="line2d_11">
      <path d="M 453.721951 389.877656 
L 453.721951 26.16 
" clip-path="url(#p0dc847d9a4)" style="fill: none; stroke-dasharray: 1.85,0.8; stroke-dashoffset: 0; stroke: #b0b0b0; stroke-width: 0.5"/>
     </g>
     <g id="line2d_12">
      <g>
       <use xlink:href="#m4edad19e72" x="453.721951" y="389.877656" style="stroke: #000000; stroke-width: 0.8"/>
      </g>
     </g>
     <g id="text_6">
      <!-- 5 -->
      <g transform="translate(450.540701 404.475312) scale(0.1 -0.1)">
       <defs>
        <path id="DejaVuSans-18" d="M 691 4666 
L 3169 4666 
L 3169 4134 
L 1269 4134 
L 1269 2991 
Q 1406 3038 1543 3061 
Q 1681 3084 1819 3084 
Q 2600 3084 3056 2656 
Q 3513 2228 3513 1497 
Q 3513 744 3044 326 
Q 2575 -91 1722 -91 
Q 1428 -91 1123 -41 
Q 819 9 494 109 
L 494 744 
Q 775 591 1075 516 
Q 1375 441 1709 441 
Q 2250 441 2565 725 
Q 2881 1009 2881 1497 
Q 2881 1984 2565 2268 
Q 2250 2553 1709 2553 
Q 1456 2553 1204 2497 
Q 953 2441 691 2322 
L 691 4666 
z
" transform="scale(0.015625)"/>
       </defs>
       <use xlink:href="#DejaVuSans-18"/>
      </g>
     </g>
    </g>
    <g id="xtick_7">
     <g id="line2d_13">
      <path d="M 528.862621 389.877656 
L 528.862621 26.16 
" clip-path="url(#p0dc847d9a4)" style="fill: none; stroke-dasharray: 1.85,0.8; stroke-dashoffset: 0; stroke: #b0b0b0; stroke-width: 0.5"/>
     </g>
     <g id="line2d_14">
      <g>
       <use xlink:href="#m4edad19e72" x="528.862621" y="389.877656" style="stroke: #000000; stroke-width: 0.8"/>
      </g>
     </g>
     <g id="text_7">
      <!-- 6 -->
      <g transform="translate(525.681371 404.475312) scale(0.1 -0.1)">
       <defs>
        <path id="DejaVuSans-19" d="M 2113 2584 
Q 1688 2584 1439 2293 
Q 1191 2003 1191 1497 
Q 1191 994 1439 701 
Q 1688 409 2113 409 
Q 2538 409 2786 701 
Q 3034 994 3034 1497 
Q 3034 2003 2786 2293 
Q 2538 2584 2113 2584 
z
M 3366 4563 
L 3366 3988 
Q 3128 4100 2886 4159 
Q 2644 4219 2406 4219 
Q 1781 4219 1451 3797 
Q 1122 3375 1075 2522 
Q 1259 2794 1537 2939 
Q 1816 3084 2150 3084 
Q 2853 3084 3261 2657 
Q 3669 2231 3669 1497 
Q 3669 778 3244 343 
Q 2819 -91 2113 -91 
Q 1303 -91 875 529 
Q 447 1150 447 2328 
Q 447 3434 972 4092 
Q 1497 4750 2381 4750 
Q 2619 4750 2861 4703 
Q 3103 4656 3366 4563 
z
" transform="scale(0.015625)"/>
       </defs>
       <use xlink:href="#DejaVuSans-19"/>
      </g>
     </g>
    </g>
    <g id="xtick_8">
     <g id="line2d_15">
      <path d="M 604.003291 389.877656 
L 604.003291 26.16 
" clip-path="url(#p0dc847d9a4)" style="fill: none; stroke-dasharray: 1.85,0.8; stroke-dashoffset: 0; stroke: #b0b0b0; stroke-width: 0.5"/>
     </g>
     <g id="line2d_16">
      <g>
       <use xlink:href="#m4edad19e72" x="604.003291" y="389.877656" style="stroke: #000000; stroke-width: 0.8"/>
      </g>
     </g>
     <g id="text_8">
      <!-- 7 -->
      <g transform="translate(600.822041 404.475312) scale(0.1 -0.1)">
       <defs>
        <path id="DejaVuSans-1a" d="M 525 4666 
L 3525 4666 
L 3525 4397 
L 1831 0 
L 1172 0 
L 2766 4134 
L 525 4134 
L 525 4666 
z
" transform="scale(0.015625)"/>
       </defs>
       <use xlink:href="#DejaVuSans-1a"/>
      </g>
     </g>
    </g>
    <g id="xtick_9">
     <g id="line2d_17">
      <path d="M 679.143961 389.877656 
L 679.143961 26.16 
" clip-path="url(#p0dc847d9a4)" style="fill: none; stroke-dasharray: 1.85,0.8; stroke-dashoffset: 0; stroke: #b0b0b0; stroke-width: 0.5"/>
     </g>
     <g id="line2d_18">
      <g>
       <use xlink:href="#m4edad19e72" x="679.143961" y="389.877656" style="stroke: #000000; stroke-width: 0.8"/>
      </g>
     </g>
     <g id="text_9">
      <!-- 8 -->
      <g transform="translate(675.962711 404.475312) scale(0.1 -0.1)">
       <defs>
        <path id="DejaVuSans-1b" d="M 2034 2216 
Q 1584 2216 1326 1975 
Q 1069 1734 1069 1313 
Q 1069 891 1326 650 
Q 1584 409 2034 409 
Q 2484 409 2743 651 
Q 3003 894 3003 1313 
Q 3003 1734 2745 1975 
Q 2488 2216 2034 2216 
z
M 1403 2484 
Q 997 2584 770 2862 
Q 544 3141 544 3541 
Q 544 4100 942 4425 
Q 1341 4750 2034 4750 
Q 2731 4750 3128 4425 
Q 3525 4100 3525 3541 
Q 3525 3141 3298 2862 
Q 3072 2584 2669 2484 
Q 3125 2378 3379 2068 
Q 3634 1759 3634 1313 
Q 3634 634 3220 271 
Q 2806 -91 2034 -91 
Q 1263 -91 848 271 
Q 434 634 434 1313 
Q 434 1759 690 2068 
Q 947 2378 1403 2484 
z
M 1172 3481 
Q 1172 3119 1398 2916 
Q 1625 2713 2034 2713 
Q 2441 2713 2670 2916 
Q 2900 3119 2900 3481 
Q 2900 3844 2670 4047 
Q 2441 4250 2034 4250 
Q 1625 4250 1398 4047 
Q 1172 3844 1172 3481 
z
" transform="scale(0.015625)"/>
       </defs>
       <use xlink:href="#DejaVuSans-1b"/>
      </g>
     </g>
    </g>
    <g id="text_10">
     <!-- Entropy (bits/byte) -->
     <g transform="translate(331.681172 418.476094) scale(0.1 -0.1)">
      <defs>
       <path id="DejaVuSans-28" d="M 628 4666 
L 3578 4666 
L 3578 4134 
L 1259 4134 
L 1259 2753 
L 3481 2753 
L 3481 2222 
L 1259 2222 
L 1259 531 
L 3634 531 
L 3634 0 
L 628 0 
L 628 4666 
z
" transform="scale(0.015625)"/>
       <path id="DejaVuSans-51" d="M 3513 2113 
L 3513 0 
L 2938 0 
L 2938 2094 
Q 2938 2591 2744 2837 
Q 2550 3084 2163 3084 
Q 1697 3084 1428 2787 
Q 1159 2491 1159 1978 
L 1159 0 
L 581 0 
L 581 3500 
L 1159 3500 
L 1159 2956 
Q 1366 3272 1645 3428 
Q 1925 3584 2291 3584 
Q 2894 3584 3203 3211 
Q 3513 2838 3513 2113 
z
" transform="scale(0.015625)"/>
       <path id="DejaVuSans-57" d="M 1172 4494 
L 1172 3500 
L 2356 3500 
L 2356 3053 
L 1172 3053 
L 1172 1153 
Q 1172 725 1289 603 
Q 1406 481 1766 481 
L 2356 481 
L 2356 0 
L 1766 0 
Q 1100 0 847 248 
Q 594 497 594 1153 
L 594 3053 
L 172 3053 
L 172 3500 
L 594 3500 
L 594 4494 
L 1172 4494 
z
" transform="scale(0.015625)"/>
       <path id="DejaVuSans-55" d="M 2631 2963 
Q 2534 3019 2420 3045 
Q 2306 3072 2169 3072 
Q 1681 3072 1420 2755 
Q 1159 2438 1159 1844 
L 1159 0 
L 581 0 
L 581 3500 
L 1159 3500 
L 1159 2956 
Q 1341 3275 1631 3429 
Q 1922 3584 2338 3584 
Q 2397 3584 2469 3576 
Q 2541 3569 2628 3553 
L 2631 2963 
z
" transform="scale(0.015625)"/>
       <path id="DejaVuSans-52" d="M 1959 3097 
Q 1497 3097 1228 2736 
Q 959 2375 959 1747 
Q 959 1119 1226 758 
Q 1494 397 1959 397 
Q 2419 397 2687 759 
Q 2956 1122 2956 1747 
Q 2956 2369 2687 2733 
Q 2419 3097 1959 3097 
z
M 1959 3584 
Q 2709 3584 3137 3096 
Q 3566 2609 3566 1747 
Q 3566 888 3137 398 
Q 2709 -91 1959 -91 
Q 1206 -91 779 398 
Q 353 888 353 1747 
Q 353 2609 779 3096 
Q 1206 3584 1959 3584 
z
" transform="scale(0.015625)"/>
       <path id="DejaVuSans-53" d="M 1159 525 
L 1159 -1331 
L 581 -1331 
L 581 3500 
L 1159 3500 
L 1159 2969 
Q 1341 3281 1617 3432 
Q 1894 3584 2278 3584 
Q 2916 3584 3314 3078 
Q 3713 2572 3713 1747 
Q 3713 922 3314 415 
Q 2916 -91 2278 -91 
Q 1894 -91 1617 61 
Q 1341 213 1159 525 
z
M 3116 1747 
Q 3116 2381 2855 2742 
Q 2594 3103 2138 3103 
Q 1681 3103 1420 2742 
Q 1159 2381 1159 1747 
Q 1159 1113 1420 752 
Q 1681 391 2138 391 
Q 2594 391 2855 752 
Q 3116 1113 3116 1747 
z
" transform="scale(0.015625)"/>
       <path id="DejaVuSans-5c" d="M 2059 -325 
Q 1816 -950 1584 -1140 
Q 1353 -1331 966 -1331 
L 506 -1331 
L 506 -850 
L 844 -850 
Q 1081 -850 1212 -737 
Q 1344 -625 1503 -206 
L 1606 56 
L 191 3500 
L 800 3500 
L 1894 763 
L 2988 3500 
L 3597 3500 
L 2059 -325 
z
" transform="scale(0.015625)"/>
       <path id="DejaVuSans-3" transform="scale(0.015625)"/>
       <path id="DejaVuSans-b" d="M 1984 4856 
Q 1566 4138 1362 3434 
Q 1159 2731 1159 2009 
Q 1159 1288 1364 580 
Q 1569 -128 1984 -844 
L 1484 -844 
Q 1016 -109 783 600 
Q 550 1309 550 2009 
Q 550 2706 781 3412 
Q 1013 4119 1484 4856 
L 1984 4856 
z
" transform="scale(0.015625)"/>
       <path id="DejaVuSans-45" d="M 3116 1747 
Q 3116 2381 2855 2742 
Q 2594 3103 2138 3103 
Q 1681 3103 1420 2742 
Q 1159 2381 1159 1747 
Q 1159 1113 1420 752 
Q 1681 391 2138 391 
Q 2594 391 2855 752 
Q 3116 1113 3116 1747 
z
M 1159 2969 
Q 1341 3281 1617 3432 
Q 1894 3584 2278 3584 
Q 2916 3584 3314 3078 
Q 3713 2572 3713 1747 
Q 3713 922 3314 415 
Q 2916 -91 2278 -91 
Q 1894 -91 1617 61 
Q 1341 213 1159 525 
L 1159 0 
L 581 0 
L 581 4863 
L 1159 4863 
L 1159 2969 
z
" transform="scale(0.015625)"/>
       <path id="DejaVuSans-4c" d="M 603 3500 
L 1178 3500 
L 1178 0 
L 603 0 
L 603 3500 
z
M 603 4863 
L 1178 4863 
L 1178 4134 
L 603 4134 
L 603 4863 
z
" transform="scale(0.015625)"/>
       <path id="DejaVuSans-56" d="M 2834 3397 
L 2834 2853 
Q 2591 2978 2328 3040 
Q 2066 3103 1784 3103 
Q 1356 3103 1142 2972 
Q 928 2841 928 2578 
Q 928 2378 1081 2264 
Q 1234 2150 1697 2047 
L 1894 2003 
Q 2506 1872 2764 1633 
Q 3022 1394 3022 966 
Q 3022 478 2636 193 
Q 2250 -91 1575 -91 
Q 1294 -91 989 -36 
Q 684 19 347 128 
L 347 722 
Q 666 556 975 473 
Q 1284 391 1588 391 
Q 1994 391 2212 530 
Q 2431 669 2431 922 
Q 2431 1156 2273 1281 
Q 2116 1406 1581 1522 
L 1381 1569 
Q 847 1681 609 1914 
Q 372 2147 372 2553 
Q 372 3047 722 3315 
Q 1072 3584 1716 3584 
Q 2034 3584 2315 3537 
Q 2597 3491 2834 3397 
z
" transform="scale(0.015625)"/>
       <path id="DejaVuSans-12" d="M 1625 4666 
L 2156 4666 
L 531 -594 
L 0 -594 
L 1625 4666 
z
" transform="scale(0.015625)"/>
       <path id="DejaVuSans-48" d="M 3597 1894 
L 3597 1613 
L 953 1613 
Q 991 1019 1311 708 
Q 1631 397 2203 397 
Q 2534 397 2845 478 
Q 3156 559 3463 722 
L 3463 178 
Q 3153 47 2828 -22 
Q 2503 -91 2169 -91 
Q 1331 -91 842 396 
Q 353 884 353 1716 
Q 353 2575 817 3079 
Q 1281 3584 2069 3584 
Q 2775 3584 3186 3129 
Q 3597 2675 3597 1894 
z
M 3022 2063 
Q 3016 2534 2758 2815 
Q 2500 3097 2075 3097 
Q 1594 3097 1305 2825 
Q 1016 2553 972 2059 
L 3022 2063 
z
" transform="scale(0.015625)"/>
       <path id="DejaVuSans-c" d="M 513 4856 
L 1013 4856 
Q 1481 4119 1714 3412 
Q 1947 2706 1947 2009 
Q 1947 1309 1714 600 
Q 1481 -109 1013 -844 
L 513 -844 
Q 928 -128 1133 580 
Q 1338 1288 1338 2009 
Q 1338 2731 1133 3434 
Q 928 4138 513 4856 
z
" transform="scale(0.015625)"/>
      </defs>
      <use xlink:href="#DejaVuSans-28"/>
      <use xlink:href="#DejaVuSans-51" transform="translate(63.1875 0)"/>
      <use xlink:href="#DejaVuSans-57" transform="translate(126.5625 0)"/>
      <use xlink:href="#DejaVuSans-55" transform="translate(165.765625 0)"/>
      <use xlink:href="#DejaVuSans-52" transform="translate(204.671875 0)"/>
      <use xlink:href="#DejaVuSans-53" transform="translate(265.859375 0)"/>
      <use xlink:href="#DejaVuSans-5c" transform="translate(329.34375 0)"/>
      <use xlink:href="#DejaVuSans-3" transform="translate(388.53125 0)"/>
      <use xlink:href="#DejaVuSans-b" transform="translate(420.3125 0)"/>
      <use xlink:href="#DejaVuSans-45" transform="translate(459.328125 0)"/>
      <use xlink:href="#DejaVuSans-4c" transform="translate(522.8125 0)"/>
      <use xlink:href="#DejaVuSans-57" transform="translate(550.59375 0)"/>
      <use xlink:href="#DejaVuSans-56" transform="translate(589.796875 0)"/>
      <use xlink:href="#DejaVuSans-12" transform="translate(641.890625 0)"/>
      <use xlink:href="#DejaVuSans-45" transform="translate(675.578125 0)"/>
      <use xlink:href="#DejaVuSans-5c" transform="translate(739.0625 0)"/>
      <use xlink:href="#DejaVuSans-57" transform="translate(798.25 0)"/>
      <use xlink:href="#DejaVuSans-48" transform="translate(837.453125 0)"/>
      <use xlink:href="#DejaVuSans-c" transform="translate(898.984375 0)"/>
     </g>
    </g>
   </g>
   <g id="matplotlib.axis_2">
    <g id="ytick_1">
     <g id="line2d_19">
      <path d="M 47.962344 373.346959 
L 709.2 373.346959 
" clip-path="url(#p0dc847d9a4)" style="fill: none; stroke-dasharray: 1.85,0.8; stroke-dashoffset: 0; stroke: #b0b0b0; stroke-width: 0.5"/>
     </g>
     <g id="line2d_20">
      <defs>
       <path id="m3e984de323" d="M 0 0 
L -3.5 0 
" style="stroke: #000000; stroke-width: 0.8"/>
      </defs>
      <g>
       <use xlink:href="#m3e984de323" x="47.962344" y="373.346959" style="stroke: #000000; stroke-width: 0.8"/>
      </g>
     </g>
     <g id="text_11">
      <!-- 0.0 -->
      <g transform="translate(25.059219 377.145787) scale(0.1 -0.1)">
       <defs>
        <path id="DejaVuSans-11" d="M 684 794 
L 1344 794 
L 1344 0 
L 684 0 
L 684 794 
z
" transform="scale(0.015625)"/>
       </defs>
       <use xlink:href="#DejaVuSans-13"/>
       <use xlink:href="#DejaVuSans-11" transform="translate(63.625 0)"/>
       <use xlink:href="#DejaVuSans-13" transform="translate(95.40625 0)"/>
      </g>
     </g>
    </g>
    <g id="ytick_2">
     <g id="line2d_21">
      <path d="M 47.962344 323.383065 
L 709.2 323.383065 
" clip-path="url(#p0dc847d9a4)" style="fill: none; stroke-dasharray: 1.85,0.8; stroke-dashoffset: 0; stroke: #b0b0b0; stroke-width: 0.5"/>
     </g>
     <g id="line2d_22">
      <g>
       <use xlink:href="#m3e984de323" x="47.962344" y="323.383065" style="stroke: #000000; stroke-width: 0.8"/>
      </g>
     </g>
     <g id="text_12">
      <!-- 0.2 -->
      <g transform="translate(25.059219 327.181893) scale(0.1 -0.1)">
       <use xlink:href="#DejaVuSans-13"/>
       <use xlink:href="#DejaVuSans-11" transform="translate(63.625 0)"/>
       <use xlink:href="#DejaVuSans-15" transform="translate(95.40625 0)"/>
      </g>
     </g>
    </g>
    <g id="ytick_3">
     <g id="line2d_23">
      <path d="M 47.962344 273.419171 
L 709.2 273.419171 
" clip-path="url(#p0dc847d9a4)" style="fill: none; stroke-dasharray: 1.85,0.8; stroke-dashoffset: 0; stroke: #b0b0b0; stroke-width: 0.5"/>
     </g>
     <g id="line2d_24">
      <g>
       <use xlink:href="#m3e984de323" x="47.962344" y="273.419171" style="stroke: #000000; stroke-width: 0.8"/>
      </g>
     </g>
     <g id="text_13">
      <!-- 0.4 -->
      <g transform="translate(25.059219 277.217999) scale(0.1 -0.1)">
       <use xlink:href="#DejaVuSans-13"/>
       <use xlink:href="#DejaVuSans-11" transform="translate(63.625 0)"/>
       <use xlink:href="#DejaVuSans-17" transform="translate(95.40625 0)"/>
      </g>
     </g>
    </g>
    <g id="ytick_4">
     <g id="line2d_25">
      <path d="M 47.962344 223.455277 
L 709.2 223.455277 
" clip-path="url(#p0dc847d9a4)" style="fill: none; stroke-dasharray: 1.85,0.8; stroke-dashoffset: 0; stroke: #b0b0b0; stroke-width: 0.5"/>
     </g>
     <g id="line2d_26">
      <g>
       <use xlink:href="#m3e984de323" x="47.962344" y="223.455277" style="stroke: #000000; stroke-width: 0.8"/>
      </g>
     </g>
     <g id="text_14">
      <!-- 0.6 -->
      <g transform="translate(25.059219 227.254105) scale(0.1 -0.1)">
       <use xlink:href="#DejaVuSans-13"/>
       <use xlink:href="#DejaVuSans-11" transform="translate(63.625 0)"/>
       <use xlink:href="#DejaVuSans-19" transform="translate(95.40625 0)"/>
      </g>
     </g>
    </g>
    <g id="ytick_5">
     <g id="line2d_27">
      <path d="M 47.962344 173.491384 
L 709.2 173.491384 
" clip-path="url(#p0dc847d9a4)" style="fill: none; stroke-dasharray: 1.85,0.8; stroke-dashoffset: 0; stroke: #b0b0b0; stroke-width: 0.5"/>
     </g>
     <g id="line2d_28">
      <g>
       <use xlink:href="#m3e984de323" x="47.962344" y="173.491384" style="stroke: #000000; stroke-width: 0.8"/>
      </g>
     </g>
     <g id="text_15">
      <!-- 0.8 -->
      <g transform="translate(25.059219 177.290212) scale(0.1 -0.1)">
       <use xlink:href="#DejaVuSans-13"/>
       <use xlink:href="#DejaVuSans-11" transform="translate(63.625 0)"/>
       <use xlink:href="#DejaVuSans-1b" transform="translate(95.40625 0)"/>
      </g>
     </g>
    </g>
    <g id="ytick_6">
     <g id="line2d_29">
      <path d="M 47.962344 123.52749 
L 709.2 123.52749 
" clip-path="url(#p0dc847d9a4)" style="fill: none; stroke-dasharray: 1.85,0.8; stroke-dashoffset: 0; stroke: #b0b0b0; stroke-width: 0.5"/>
     </g>
     <g id="line2d_30">
      <g>
       <use xlink:href="#m3e984de323" x="47.962344" y="123.52749" style="stroke: #000000; stroke-width: 0.8"/>
      </g>
     </g>
     <g id="text_16">
      <!-- 1.0 -->
      <g transform="translate(25.059219 127.326318) scale(0.1 -0.1)">
       <use xlink:href="#DejaVuSans-14"/>
       <use xlink:href="#DejaVuSans-11" transform="translate(63.625 0)"/>
       <use xlink:href="#DejaVuSans-13" transform="translate(95.40625 0)"/>
      </g>
     </g>
    </g>
    <g id="ytick_7">
     <g id="line2d_31">
      <path d="M 47.962344 73.563596 
L 709.2 73.563596 
" clip-path="url(#p0dc847d9a4)" style="fill: none; stroke-dasharray: 1.85,0.8; stroke-dashoffset: 0; stroke: #b0b0b0; stroke-width: 0.5"/>
     </g>
     <g id="line2d_32">
      <g>
       <use xlink:href="#m3e984de323" x="47.962344" y="73.563596" style="stroke: #000000; stroke-width: 0.8"/>
      </g>
     </g>
     <g id="text_17">
      <!-- 1.2 -->
      <g transform="translate(25.059219 77.362424) scale(0.1 -0.1)">
       <use xlink:href="#DejaVuSans-14"/>
       <use xlink:href="#DejaVuSans-11" transform="translate(63.625 0)"/>
       <use xlink:href="#DejaVuSans-15" transform="translate(95.40625 0)"/>
      </g>
     </g>
    </g>
    <g id="text_18">
     <!-- Compression speed (bytes/s) -->
     <g transform="translate(18.656875 280.712578) rotate(-90) scale(0.1 -0.1)">
      <defs>
       <path id="DejaVuSans-26" d="M 4122 4306 
L 4122 3641 
Q 3803 3938 3442 4084 
Q 3081 4231 2675 4231 
Q 1875 4231 1450 3742 
Q 1025 3253 1025 2328 
Q 1025 1406 1450 917 
Q 1875 428 2675 428 
Q 3081 428 3442 575 
Q 3803 722 4122 1019 
L 4122 359 
Q 3791 134 3420 21 
Q 3050 -91 2638 -91 
Q 1578 -91 968 557 
Q 359 1206 359 2328 
Q 359 3453 968 4101 
Q 1578 4750 2638 4750 
Q 3056 4750 3426 4639 
Q 3797 4528 4122 4306 
z
" transform="scale(0.015625)"/>
       <path id="DejaVuSans-50" d="M 3328 2828 
Q 3544 3216 3844 3400 
Q 4144 3584 4550 3584 
Q 5097 3584 5394 3201 
Q 5691 2819 5691 2113 
L 5691 0 
L 5113 0 
L 5113 2094 
Q 5113 2597 4934 2840 
Q 4756 3084 4391 3084 
Q 3944 3084 3684 2787 
Q 3425 2491 3425 1978 
L 3425 0 
L 2847 0 
L 2847 2094 
Q 2847 2600 2669 2842 
Q 2491 3084 2119 3084 
Q 1678 3084 1418 2786 
Q 1159 2488 1159 1978 
L 1159 0 
L 581 0 
L 581 3500 
L 1159 3500 
L 1159 2956 
Q 1356 3278 1631 3431 
Q 1906 3584 2284 3584 
Q 2666 3584 2933 3390 
Q 3200 3197 3328 2828 
z
" transform="scale(0.015625)"/>
       <path id="DejaVuSans-47" d="M 2906 2969 
L 2906 4863 
L 3481 4863 
L 3481 0 
L 2906 0 
L 2906 525 
Q 2725 213 2448 61 
Q 2172 -91 1784 -91 
Q 1150 -91 751 415 
Q 353 922 353 1747 
Q 353 2572 751 3078 
Q 1150 3584 1784 3584 
Q 2172 3584 2448 3432 
Q 2725 3281 2906 2969 
z
M 947 1747 
Q 947 1113 1208 752 
Q 1469 391 1925 391 
Q 2381 391 2643 752 
Q 2906 1113 2906 1747 
Q 2906 2381 2643 2742 
Q 2381 3103 1925 3103 
Q 1469 3103 1208 2742 
Q 947 2381 947 1747 
z
" transform="scale(0.015625)"/>
      </defs>
      <use xlink:href="#DejaVuSans-26"/>
      <use xlink:href="#DejaVuSans-52" transform="translate(69.828125 0)"/>
      <use xlink:href="#DejaVuSans-50" transform="translate(131.015625 0)"/>
      <use xlink:href="#DejaVuSans-53" transform="translate(228.421875 0)"/>
      <use xlink:href="#DejaVuSans-55" transform="translate(291.90625 0)"/>
      <use xlink:href="#DejaVuSans-48" transform="translate(330.8125 0)"/>
      <use xlink:href="#DejaVuSans-56" transform="translate(392.34375 0)"/>
      <use xlink:href="#DejaVuSans-56" transform="translate(444.4375 0)"/>
      <use xlink:href="#DejaVuSans-4c" transform="translate(496.53125 0)"/>
      <use xlink:href="#DejaVuSans-52" transform="translate(524.3125 0)"/>
      <use xlink:href="#DejaVuSans-51" transform="translate(585.5 0)"/>
      <use xlink:href="#DejaVuSans-3" transform="translate(648.875 0)"/>
      <use xlink:href="#DejaVuSans-56" transform="translate(680.65625 0)"/>
      <use xlink:href="#DejaVuSans-53" transform="translate(732.75 0)"/>
      <use xlink:href="#DejaVuSans-48" transform="translate(796.234375 0)"/>
      <use xlink:href="#DejaVuSans-48" transform="translate(857.765625 0)"/>
      <use xlink:href="#DejaVuSans-47" transform="translate(919.296875 0)"/>
      <use xlink:href="#DejaVuSans-3" transform="translate(982.78125 0)"/>
      <use xlink:href="#DejaVuSans-b" transform="translate(1014.5625 0)"/>
      <use xlink:href="#DejaVuSans-45" transform="translate(1053.578125 0)"/>
      <use xlink:href="#DejaVuSans-5c" transform="translate(1117.0625 0)"/>
      <use xlink:href="#DejaVuSans-57" transform="translate(1176.25 0)"/>
      <use xlink:href="#DejaVuSans-48" transform="translate(1215.453125 0)"/>
      <use xlink:href="#DejaVuSans-56" transform="translate(1276.984375 0)"/>
      <use xlink:href="#DejaVuSans-12" transform="translate(1329.078125 0)"/>
      <use xlink:href="#DejaVuSans-56" transform="translate(1362.765625 0)"/>
      <use xlink:href="#DejaVuSans-c" transform="translate(1414.859375 0)"/>
     </g>
    </g>
    <g id="text_19">
     <!-- 1e8 -->
     <g transform="translate(47.962344 23.16) scale(0.1 -0.1)">
      <use xlink:href="#DejaVuSans-14"/>
      <use xlink:href="#DejaVuSans-48" transform="translate(63.625 0)"/>
      <use xlink:href="#DejaVuSans-1b" transform="translate(125.15625 0)"/>
     </g>
    </g>
   </g>
   <g id="line2d_33">
    <path d="M 78.018601 373.345036 
L 78.018601 373.338748 
L 78.018601 373.31462 
L 78.018601 373.208411 
L 78.018601 372.829533 
L 78.018601 371.288913 
L 78.018601 365.173951 
L 78.018601 342.73333 
L 78.018601 274.838122 
L 78.018601 174.474578 
L 78.018601 88.148592 
L 78.018601 69.137576 
L 78.018601 42.692621 
L 78.018601 60.936507 
" clip-path="url(#p0dc847d9a4)" style="fill: none; stroke: #1f77b4; stroke-width: 1.5; stroke-linecap: square"/>
    <defs>
     <path id="mf100c14c17" d="M 0 3 
C 0.795609 3 1.55874 2.683901 2.12132 2.12132 
C 2.683901 1.55874 3 0.795609 3 0 
C 3 -0.795609 2.683901 -1.55874 2.12132 -2.12132 
C 1.55874 -2.683901 0.795609 -3 0 -3 
C -0.795609 -3 -1.55874 -2.683901 -2.12132 -2.12132 
C -2.683901 -1.55874 -3 -0.795609 -3 0 
C -3 0.795609 -2.683901 1.55874 -2.12132 2.12132 
C -1.55874 2.683901 -0.795609 3 0 3 
z
" style="stroke: #1f77b4"/>
    </defs>
    <g clip-path="url(#p0dc847d9a4)">
     <use xlink:href="#mf100c14c17" x="78.018601" y="373.345036" style="fill: #1f77b4; stroke: #1f77b4"/>
     <use xlink:href="#mf100c14c17" x="78.018601" y="373.338748" style="fill: #1f77b4; stroke: #1f77b4"/>
     <use xlink:href="#mf100c14c17" x="78.018601" y="373.31462" style="fill: #1f77b4; stroke: #1f77b4"/>
     <use xlink:href="#mf100c14c17" x="78.018601" y="373.208411" style="fill: #1f77b4; stroke: #1f77b4"/>
     <use xlink:href="#mf100c14c17" x="78.018601" y="372.829533" style="fill: #1f77b4; stroke: #1f77b4"/>
     <use xlink:href="#mf100c14c17" x="78.018601" y="371.288913" style="fill: #1f77b4; stroke: #1f77b4"/>
     <use xlink:href="#mf100c14c17" x="78.018601" y="365.173951" style="fill: #1f77b4; stroke: #1f77b4"/>
     <use xlink:href="#mf100c14c17" x="78.018601" y="342.73333" style="fill: #1f77b4; stroke: #1f77b4"/>
     <use xlink:href="#mf100c14c17" x="78.018601" y="274.838122" style="fill: #1f77b4; stroke: #1f77b4"/>
     <use xlink:href="#mf100c14c17" x="78.018601" y="174.474578" style="fill: #1f77b4; stroke: #1f77b4"/>
     <use xlink:href="#mf100c14c17" x="78.018601" y="88.148592" style="fill: #1f77b4; stroke: #1f77b4"/>
     <use xlink:href="#mf100c14c17" x="78.018601" y="69.137576" style="fill: #1f77b4; stroke: #1f77b4"/>
     <use xlink:href="#mf100c14c17" x="78.018601" y="42.692621" style="fill: #1f77b4; stroke: #1f77b4"/>
     <use xlink:href="#mf100c14c17" x="78.018601" y="60.936507" style="fill: #1f77b4; stroke: #1f77b4"/>
    </g>
   </g>
   <g id="line2d_34">
    <path d="M 78.018601 373.344724 
L 153.159271 373.339009 
L 153.159271 373.312854 
L 153.159271 373.233243 
L 153.159271 372.806808 
L 153.159271 371.424982 
L 153.159271 365.693551 
L 153.159271 344.420866 
L 153.159271 283.439387 
L 153.159271 171.657169 
L 153.159271 92.941586 
L 153.159271 55.498631 
L 153.159271 58.960449 
L 153.159271 54.25118 
" clip-path="url(#p0dc847d9a4)" style="fill: none; stroke: #ff7f0e; stroke-width: 1.5; stroke-linecap: square"/>
    <defs>
     <path id="m3d51346ccd" d="M 0 3 
C 0.795609 3 1.55874 2.683901 2.12132 2.12132 
C 2.683901 1.55874 3 0.795609 3 0 
C 3 -0.795609 2.683901 -1.55874 2.12132 -2.12132 
C 1.55874 -2.683901 0.795609 -3 0 -3 
C -0.795609 -3 -1.55874 -2.683901 -2.12132 -2.12132 
C -2.683901 -1.55874 -3 -0.795609 -3 0 
C -3 0.795609 -2.683901 1.55874 -2.12132 2.12132 
C -1.55874 2.683901 -0.795609 3 0 3 
z
" style="stroke: #ff7f0e"/>
    </defs>
    <g clip-path="url(#p0dc847d9a4)">
     <use xlink:href="#m3d51346ccd" x="78.018601" y="373.344724" style="fill: #ff7f0e; stroke: #ff7f0e"/>
     <use xlink:href="#m3d51346ccd" x="153.159271" y="373.339009" style="fill: #ff7f0e; stroke: #ff7f0e"/>
     <use xlink:href="#m3d51346ccd" x="153.159271" y="373.312854" style="fill: #ff7f0e; stroke: #ff7f0e"/>
     <use xlink:href="#m3d51346ccd" x="153.159271" y="373.233243" style="fill: #ff7f0e; stroke: #ff7f0e"/>
     <use xlink:href="#m3d51346ccd" x="153.159271" y="372.806808" style="fill: #ff7f0e; stroke: #ff7f0e"/>
     <use xlink:href="#m3d51346ccd" x="153.159271" y="371.424982" style="fill: #ff7f0e; stroke: #ff7f0e"/>
     <use xlink:href="#m3d51346ccd" x="153.159271" y="365.693551" style="fill: #ff7f0e; stroke: #ff7f0e"/>
     <use xlink:href="#m3d51346ccd" x="153.159271" y="344.420866" style="fill: #ff7f0e; stroke: #ff7f0e"/>
     <use xlink:href="#m3d51346ccd" x="153.159271" y="283.439387" style="fill: #ff7f0e; stroke: #ff7f0e"/>
     <use xlink:href="#m3d51346ccd" x="153.159271" y="171.657169" style="fill: #ff7f0e; stroke: #ff7f0e"/>
     <use xlink:href="#m3d51346ccd" x="153.159271" y="92.941586" style="fill: #ff7f0e; stroke: #ff7f0e"/>
     <use xlink:href="#m3d51346ccd" x="153.159271" y="55.498631" style="fill: #ff7f0e; stroke: #ff7f0e"/>
     <use xlink:href="#m3d51346ccd" x="153.159271" y="58.960449" style="fill: #ff7f0e; stroke: #ff7f0e"/>
     <use xlink:href="#m3d51346ccd" x="153.159271" y="54.25118" style="fill: #ff7f0e; stroke: #ff7f0e"/>
    </g>
   </g>
   <g id="line2d_35">
    <path d="M 78.018601 373.344573 
L 228.299941 373.338374 
L 228.299941 373.314276 
L 228.299941 373.229913 
L 228.299941 372.898789 
L 228.299941 371.546711 
L 228.299941 365.535809 
L 228.299941 347.276626 
L 228.299941 281.933398 
L 228.299941 183.083522 
L 228.299941 119.883292 
L 228.299941 100.832317 
L 228.299941 94.647657 
L 228.299941 89.160436 
" clip-path="url(#p0dc847d9a4)" style="fill: none; stroke: #2ca02c; stroke-width: 1.5; stroke-linecap: square"/>
    <defs>
     <path id="mc2d550978b" d="M 0 3 
C 0.795609 3 1.55874 2.683901 2.12132 2.12132 
C 2.683901 1.55874 3 0.795609 3 0 
C 3 -0.795609 2.683901 -1.55874 2.12132 -2.12132 
C 1.55874 -2.683901 0.795609 -3 0 -3 
C -0.795609 -3 -1.55874 -2.683901 -2.12132 -2.12132 
C -2.683901 -1.55874 -3 -0.795609 -3 0 
C -3 0.795609 -2.683901 1.55874 -2.12132 2.12132 
C -1.55874 2.683901 -0.795609 3 0 3 
z
" style="stroke: #2ca02c"/>
    </defs>
    <g clip-path="url(#p0dc847d9a4)">
     <use xlink:href="#mc2d550978b" x="78.018601" y="373.344573" style="fill: #2ca02c; stroke: #2ca02c"/>
     <use xlink:href="#mc2d550978b" x="228.299941" y="373.338374" style="fill: #2ca02c; stroke: #2ca02c"/>
     <use xlink:href="#mc2d550978b" x="228.299941" y="373.314276" style="fill: #2ca02c; stroke: #2ca02c"/>
     <use xlink:href="#mc2d550978b" x="228.299941" y="373.229913" style="fill: #2ca02c; stroke: #2ca02c"/>
     <use xlink:href="#mc2d550978b" x="228.299941" y="372.898789" style="fill: #2ca02c; stroke: #2ca02c"/>
     <use xlink:href="#mc2d550978b" x="228.299941" y="371.546711" style="fill: #2ca02c; stroke: #2ca02c"/>
     <use xlink:href="#mc2d550978b" x="228.299941" y="365.535809" style="fill: #2ca02c; stroke: #2ca02c"/>
     <use xlink:href="#mc2d550978b" x="228.299941" y="347.276626" style="fill: #2ca02c; stroke: #2ca02c"/>
     <use xlink:href="#mc2d550978b" x="228.299941" y="281.933398" style="fill: #2ca02c; stroke: #2ca02c"/>
     <use xlink:href="#mc2d550978b" x="228.299941" y="183.083522" style="fill: #2ca02c; stroke: #2ca02c"/>
     <use xlink:href="#mc2d550978b" x="228.299941" y="119.883292" style="fill: #2ca02c; stroke: #2ca02c"/>
     <use xlink:href="#mc2d550978b" x="228.299941" y="100.832317" style="fill: #2ca02c; stroke: #2ca02c"/>
     <use xlink:href="#mc2d550978b" x="228.299941" y="94.647657" style="fill: #2ca02c; stroke: #2ca02c"/>
     <use xlink:href="#mc2d550978b" x="228.299941" y="89.160436" style="fill: #2ca02c; stroke: #2ca02c"/>
    </g>
   </g>
   <g id="line2d_36">
    <path d="M 78.018601 373.344923 
L 228.299941 373.338834 
L 303.440611 373.316069 
L 303.440611 373.224065 
L 303.440611 372.813121 
L 303.440611 371.470105 
L 303.440611 364.911175 
L 303.440611 348.251666 
L 303.440611 281.368483 
L 303.440611 204.648672 
L 303.440611 143.420952 
L 303.440611 137.956116 
L 303.440611 134.0397 
L 303.440611 141.346428 
" clip-path="url(#p0dc847d9a4)" style="fill: none; stroke: #d62728; stroke-width: 1.5; stroke-linecap: square"/>
    <defs>
     <path id="m3e3a042847" d="M 0 3 
C 0.795609 3 1.55874 2.683901 2.12132 2.12132 
C 2.683901 1.55874 3 0.795609 3 0 
C 3 -0.795609 2.683901 -1.55874 2.12132 -2.12132 
C 1.55874 -2.683901 0.795609 -3 0 -3 
C -0.795609 -3 -1.55874 -2.683901 -2.12132 -2.12132 
C -2.683901 -1.55874 -3 -0.795609 -3 0 
C -3 0.795609 -2.683901 1.55874 -2.12132 2.12132 
C -1.55874 2.683901 -0.795609 3 0 3 
z
" style="stroke: #d62728"/>
    </defs>
    <g clip-path="url(#p0dc847d9a4)">
     <use xlink:href="#m3e3a042847" x="78.018601" y="373.344923" style="fill: #d62728; stroke: #d62728"/>
     <use xlink:href="#m3e3a042847" x="228.299941" y="373.338834" style="fill: #d62728; stroke: #d62728"/>
     <use xlink:href="#m3e3a042847" x="303.440611" y="373.316069" style="fill: #d62728; stroke: #d62728"/>
     <use xlink:href="#m3e3a042847" x="303.440611" y="373.224065" style="fill: #d62728; stroke: #d62728"/>
     <use xlink:href="#m3e3a042847" x="303.440611" y="372.813121" style="fill: #d62728; stroke: #d62728"/>
     <use xlink:href="#m3e3a042847" x="303.440611" y="371.470105" style="fill: #d62728; stroke: #d62728"/>
     <use xlink:href="#m3e3a042847" x="303.440611" y="364.911175" style="fill: #d62728; stroke: #d62728"/>
     <use xlink:href="#m3e3a042847" x="303.440611" y="348.251666" style="fill: #d62728; stroke: #d62728"/>
     <use xlink:href="#m3e3a042847" x="303.440611" y="281.368483" style="fill: #d62728; stroke: #d62728"/>
     <use xlink:href="#m3e3a042847" x="303.440611" y="204.648672" style="fill: #d62728; stroke: #d62728"/>
     <use xlink:href="#m3e3a042847" x="303.440611" y="143.420952" style="fill: #d62728; stroke: #d62728"/>
     <use xlink:href="#m3e3a042847" x="303.440611" y="137.956116" style="fill: #d62728; stroke: #d62728"/>
     <use xlink:href="#m3e3a042847" x="303.440611" y="134.0397" style="fill: #d62728; stroke: #d62728"/>
     <use xlink:href="#m3e3a042847" x="303.440611" y="141.346428" style="fill: #d62728; stroke: #d62728"/>
    </g>
   </g>
   <g id="line2d_37">
    <path d="M 78.018601 373.344568 
L 228.299941 373.338116 
L 378.581281 373.311366 
L 378.581281 373.224348 
L 378.581281 372.803134 
L 378.581281 371.275581 
L 378.581281 365.390034 
L 378.581281 343.536018 
L 378.581281 288.252527 
L 378.581281 226.313562 
L 378.581281 165.016515 
L 378.581281 153.811918 
L 378.581281 160.993942 
L 378.581281 158.394888 
" clip-path="url(#p0dc847d9a4)" style="fill: none; stroke: #9467bd; stroke-width: 1.5; stroke-linecap: square"/>
    <defs>
     <path id="me335c63364" d="M 0 3 
C 0.795609 3 1.55874 2.683901 2.12132 2.12132 
C 2.683901 1.55874 3 0.795609 3 0 
C 3 -0.795609 2.683901 -1.55874 2.12132 -2.12132 
C 1.55874 -2.683901 0.795609 -3 0 -3 
C -0.795609 -3 -1.55874 -2.683901 -2.12132 -2.12132 
C -2.683901 -1.55874 -3 -0.795609 -3 0 
C -3 0.795609 -2.683901 1.55874 -2.12132 2.12132 
C -1.55874 2.683901 -0.795609 3 0 3 
z
" style="stroke: #9467bd"/>
    </defs>
    <g clip-path="url(#p0dc847d9a4)">
     <use xlink:href="#me335c63364" x="78.018601" y="373.344568" style="fill: #9467bd; stroke: #9467bd"/>
     <use xlink:href="#me335c63364" x="228.299941" y="373.338116" style="fill: #9467bd; stroke: #9467bd"/>
     <use xlink:href="#me335c63364" x="378.581281" y="373.311366" style="fill: #9467bd; stroke: #9467bd"/>
     <use xlink:href="#me335c63364" x="378.581281" y="373.224348" style="fill: #9467bd; stroke: #9467bd"/>
     <use xlink:href="#me335c63364" x="378.581281" y="372.803134" style="fill: #9467bd; stroke: #9467bd"/>
     <use xlink:href="#me335c63364" x="378.581281" y="371.275581" style="fill: #9467bd; stroke: #9467bd"/>
     <use xlink:href="#me335c63364" x="378.581281" y="365.390034" style="fill: #9467bd; stroke: #9467bd"/>
     <use xlink:href="#me335c63364" x="378.581281" y="343.536018" style="fill: #9467bd; stroke: #9467bd"/>
     <use xlink:href="#me335c63364" x="378.581281" y="288.252527" style="fill: #9467bd; stroke: #9467bd"/>
     <use xlink:href="#me335c63364" x="378.581281" y="226.313562" style="fill: #9467bd; stroke: #9467bd"/>
     <use xlink:href="#me335c63364" x="378.581281" y="165.016515" style="fill: #9467bd; stroke: #9467bd"/>
     <use xlink:href="#me335c63364" x="378.581281" y="153.811918" style="fill: #9467bd; stroke: #9467bd"/>
     <use xlink:href="#me335c63364" x="378.581281" y="160.993942" style="fill: #9467bd; stroke: #9467bd"/>
     <use xlink:href="#me335c63364" x="378.581281" y="158.394888" style="fill: #9467bd; stroke: #9467bd"/>
    </g>
   </g>
   <g id="line2d_38">
    <path d="M 78.018601 373.344606 
L 228.299941 373.338848 
L 378.581281 373.316045 
L 453.721951 373.21294 
L 453.721951 372.827853 
L 453.721951 371.298799 
L 453.721951 365.942758 
L 453.721951 347.507046 
L 453.721951 291.322065 
L 453.721951 230.607911 
L 453.721951 190.64735 
L 453.721951 180.353608 
L 453.721951 181.578366 
L 453.721951 183.092591 
" clip-path="url(#p0dc847d9a4)" style="fill: none; stroke: #8c564b; stroke-width: 1.5; stroke-linecap: square"/>
    <defs>
     <path id="mb7a900fb9e" d="M 0 3 
C 0.795609 3 1.55874 2.683901 2.12132 2.12132 
C 2.683901 1.55874 3 0.795609 3 0 
C 3 -0.795609 2.683901 -1.55874 2.12132 -2.12132 
C 1.55874 -2.683901 0.795609 -3 0 -3 
C -0.795609 -3 -1.55874 -2.683901 -2.12132 -2.12132 
C -2.683901 -1.55874 -3 -0.795609 -3 0 
C -3 0.795609 -2.683901 1.55874 -2.12132 2.12132 
C -1.55874 2.683901 -0.795609 3 0 3 
z
" style="stroke: #8c564b"/>
    </defs>
    <g clip-path="url(#p0dc847d9a4)">
     <use xlink:href="#mb7a900fb9e" x="78.018601" y="373.344606" style="fill: #8c564b; stroke: #8c564b"/>
     <use xlink:href="#mb7a900fb9e" x="228.299941" y="373.338848" style="fill: #8c564b; stroke: #8c564b"/>
     <use xlink:href="#mb7a900fb9e" x="378.581281" y="373.316045" style="fill: #8c564b; stroke: #8c564b"/>
     <use xlink:href="#mb7a900fb9e" x="453.721951" y="373.21294" style="fill: #8c564b; stroke: #8c564b"/>
     <use xlink:href="#mb7a900fb9e" x="453.721951" y="372.827853" style="fill: #8c564b; stroke: #8c564b"/>
     <use xlink:href="#mb7a900fb9e" x="453.721951" y="371.298799" style="fill: #8c564b; stroke: #8c564b"/>
     <use xlink:href="#mb7a900fb9e" x="453.721951" y="365.942758" style="fill: #8c564b; stroke: #8c564b"/>
     <use xlink:href="#mb7a900fb9e" x="453.721951" y="347.507046" style="fill: #8c564b; stroke: #8c564b"/>
     <use xlink:href="#mb7a900fb9e" x="453.721951" y="291.322065" style="fill: #8c564b; stroke: #8c564b"/>
     <use xlink:href="#mb7a900fb9e" x="453.721951" y="230.607911" style="fill: #8c564b; stroke: #8c564b"/>
     <use xlink:href="#mb7a900fb9e" x="453.721951" y="190.64735" style="fill: #8c564b; stroke: #8c564b"/>
     <use xlink:href="#mb7a900fb9e" x="453.721951" y="180.353608" style="fill: #8c564b; stroke: #8c564b"/>
     <use xlink:href="#mb7a900fb9e" x="453.721951" y="181.578366" style="fill: #8c564b; stroke: #8c564b"/>
     <use xlink:href="#mb7a900fb9e" x="453.721951" y="183.092591" style="fill: #8c564b; stroke: #8c564b"/>
    </g>
   </g>
   <g id="line2d_39">
    <path d="M 78.018601 373.344744 
L 228.299941 373.33926 
L 378.581281 373.317804 
L 514.773746 373.230679 
L 617.423553 372.910712 
L 662.749222 371.694406 
L 675.906931 367.394309 
L 678.270801 345.784385 
L 678.940868 293.404729 
L 679.098288 195.918958 
L 679.12952 94.315536 
L 679.141365 69.552114 
L 679.143343 83.070332 
L 679.143743 59.404343 
" clip-path="url(#p0dc847d9a4)" style="fill: none; stroke: #e377c2; stroke-width: 1.5; stroke-linecap: square"/>
    <defs>
     <path id="m6c3432cd99" d="M 0 3 
C 0.795609 3 1.55874 2.683901 2.12132 2.12132 
C 2.683901 1.55874 3 0.795609 3 0 
C 3 -0.795609 2.683901 -1.55874 2.12132 -2.12132 
C 1.55874 -2.683901 0.795609 -3 0 -3 
C -0.795609 -3 -1.55874 -2.683901 -2.12132 -2.12132 
C -2.683901 -1.55874 -3 -0.795609 -3 0 
C -3 0.795609 -2.683901 1.55874 -2.12132 2.12132 
C -1.55874 2.683901 -0.795609 3 0 3 
z
" style="stroke: #e377c2"/>
    </defs>
    <g clip-path="url(#p0dc847d9a4)">
     <use xlink:href="#m6c3432cd99" x="78.018601" y="373.344744" style="fill: #e377c2; stroke: #e377c2"/>
     <use xlink:href="#m6c3432cd99" x="228.299941" y="373.33926" style="fill: #e377c2; stroke: #e377c2"/>
     <use xlink:href="#m6c3432cd99" x="378.581281" y="373.317804" style="fill: #e377c2; stroke: #e377c2"/>
     <use xlink:href="#m6c3432cd99" x="514.773746" y="373.230679" style="fill: #e377c2; stroke: #e377c2"/>
     <use xlink:href="#m6c3432cd99" x="617.423553" y="372.910712" style="fill: #e377c2; stroke: #e377c2"/>
     <use xlink:href="#m6c3432cd99" x="662.749222" y="371.694406" style="fill: #e377c2; stroke: #e377c2"/>
     <use xlink:href="#m6c3432cd99" x="675.906931" y="367.394309" style="fill: #e377c2; stroke: #e377c2"/>
     <use xlink:href="#m6c3432cd99" x="678.270801" y="345.784385" style="fill: #e377c2; stroke: #e377c2"/>
     <use xlink:href="#m6c3432cd99" x="678.940868" y="293.404729" style="fill: #e377c2; stroke: #e377c2"/>
     <use xlink:href="#m6c3432cd99" x="679.098288" y="195.918958" style="fill: #e377c2; stroke: #e377c2"/>
     <use xlink:href="#m6c3432cd99" x="679.12952" y="94.315536" style="fill: #e377c2; stroke: #e377c2"/>
     <use xlink:href="#m6c3432cd99" x="679.141365" y="69.552114" style="fill: #e377c2; stroke: #e377c2"/>
     <use xlink:href="#m6c3432cd99" x="679.143343" y="83.070332" style="fill: #e377c2; stroke: #e377c2"/>
     <use xlink:href="#m6c3432cd99" x="679.143743" y="59.404343" style="fill: #e377c2; stroke: #e377c2"/>
    </g>
   </g>
   <g id="line2d_40">
    <path d="M 78.018601 373.344708 
L 228.299941 373.338841 
L 350.40353 373.315949 
L 405.592334 373.213164 
L 406.757483 372.814454 
L 405.413808 371.153004 
L 404.865406 365.390034 
L 404.720308 343.730156 
L 404.696644 292.456797 
L 404.688137 220.157076 
L 404.688472 181.283978 
L 404.688119 166.439886 
L 404.688038 170.110952 
L 404.688003 174.026525 
" clip-path="url(#p0dc847d9a4)" style="fill: none; stroke: #7f7f7f; stroke-width: 1.5; stroke-linecap: square"/>
    <defs>
     <path id="m283d973520" d="M 0 3 
C 0.795609 3 1.55874 2.683901 2.12132 2.12132 
C 2.683901 1.55874 3 0.795609 3 0 
C 3 -0.795609 2.683901 -1.55874 2.12132 -2.12132 
C 1.55874 -2.683901 0.795609 -3 0 -3 
C -0.795609 -3 -1.55874 -2.683901 -2.12132 -2.12132 
C -2.683901 -1.55874 -3 -0.795609 -3 0 
C -3 0.795609 -2.683901 1.55874 -2.12132 2.12132 
C -1.55874 2.683901 -0.795609 3 0 3 
z
" style="stroke: #7f7f7f"/>
    </defs>
    <g clip-path="url(#p0dc847d9a4)">
     <use xlink:href="#m283d973520" x="78.018601" y="373.344708" style="fill: #7f7f7f; stroke: #7f7f7f"/>
     <use xlink:href="#m283d973520" x="228.299941" y="373.338841" style="fill: #7f7f7f; stroke: #7f7f7f"/>
     <use xlink:href="#m283d973520" x="350.40353" y="373.315949" style="fill: #7f7f7f; stroke: #7f7f7f"/>
     <use xlink:href="#m283d973520" x="405.592334" y="373.213164" style="fill: #7f7f7f; stroke: #7f7f7f"/>
     <use xlink:href="#m283d973520" x="406.757483" y="372.814454" style="fill: #7f7f7f; stroke: #7f7f7f"/>
     <use xlink:href="#m283d973520" x="405.413808" y="371.153004" style="fill: #7f7f7f; stroke: #7f7f7f"/>
     <use xlink:href="#m283d973520" x="404.865406" y="365.390034" style="fill: #7f7f7f; stroke: #7f7f7f"/>
     <use xlink:href="#m283d973520" x="404.720308" y="343.730156" style="fill: #7f7f7f; stroke: #7f7f7f"/>
     <use xlink:href="#m283d973520" x="404.696644" y="292.456797" style="fill: #7f7f7f; stroke: #7f7f7f"/>
     <use xlink:href="#m283d973520" x="404.688137" y="220.157076" style="fill: #7f7f7f; stroke: #7f7f7f"/>
     <use xlink:href="#m283d973520" x="404.688472" y="181.283978" style="fill: #7f7f7f; stroke: #7f7f7f"/>
     <use xlink:href="#m283d973520" x="404.688119" y="166.439886" style="fill: #7f7f7f; stroke: #7f7f7f"/>
     <use xlink:href="#m283d973520" x="404.688038" y="170.110952" style="fill: #7f7f7f; stroke: #7f7f7f"/>
     <use xlink:href="#m283d973520" x="404.688003" y="174.026525" style="fill: #7f7f7f; stroke: #7f7f7f"/>
    </g>
   </g>
   <g id="patch_3">
    <path d="M 47.962344 389.877656 
L 47.962344 26.16 
" style="fill: none; stroke: #000000; stroke-width: 0.8; stroke-linejoin: miter; stroke-linecap: square"/>
   </g>
   <g id="patch_4">
    <path d="M 709.2 389.877656 
L 709.2 26.16 
" style="fill: none; stroke: #000000; stroke-width: 0.8; stroke-linejoin: miter; stroke-linecap: square"/>
   </g>
   <g id="patch_5">
    <path d="M 47.962344 389.877656 
L 709.2 389.877656 
" style="fill: none; stroke: #000000; stroke-width: 0.8; stroke-linejoin: miter; stroke-linecap: square"/>
   </g>
   <g id="patch_6">
    <path d="M 47.962344 26.16 
L 709.2 26.16 
" style="fill: none; stroke: #000000; stroke-width: 0.8; stroke-linejoin: miter; stroke-linecap: square"/>
   </g>
   <g id="text_20">
    <!-- Compression speed vs entropy -->
    <g transform="translate(285.911172 20.16) scale(0.12 -0.12)">
     <defs>
      <path id="DejaVuSans-59" d="M 191 3500 
L 800 3500 
L 1894 563 
L 2988 3500 
L 3597 3500 
L 2284 0 
L 1503 0 
L 191 3500 
z
" transform="scale(0.015625)"/>
     </defs>
     <use xlink:href="#DejaVuSans-26"/>
     <use xlink:href="#DejaVuSans-52" transform="translate(69.828125 0)"/>
     <use xlink:href="#DejaVuSans-50" transform="translate(131.015625 0)"/>
     <use xlink:href="#DejaVuSans-53" transform="translate(228.421875 0)"/>
     <use xlink:href="#DejaVuSans-55" transform="translate(291.90625 0)"/>
     <use xlink:href="#DejaVuSans-48" transform="translate(330.8125 0)"/>
     <use xlink:href="#DejaVuSans-56" transform="translate(392.34375 0)"/>
     <use xlink:href="#DejaVuSans-56" transform="translate(444.4375 0)"/>
     <use xlink:href="#DejaVuSans-4c" transform="translate(496.53125 0)"/>
     <use xlink:href="#DejaVuSans-52" transform="translate(524.3125 0)"/>
     <use xlink:href="#DejaVuSans-51" transform="translate(585.5 0)"/>
     <use xlink:href="#DejaVuSans-3" transform="translate(648.875 0)"/>
     <use xlink:href="#DejaVuSans-56" transform="translate(680.65625 0)"/>
     <use xlink:href="#DejaVuSans-53" transform="translate(732.75 0)"/>
     <use xlink:href="#DejaVuSans-48" transform="translate(796.234375 0)"/>
     <use xlink:href="#DejaVuSans-48" transform="translate(857.765625 0)"/>
     <use xlink:href="#DejaVuSans-47" transform="translate(919.296875 0)"/>
     <use xlink:href="#DejaVuSans-3" transform="translate(982.78125 0)"/>
     <use xlink:href="#DejaVuSans-59" transform="translate(1014.5625 0)"/>
     <use xlink:href="#DejaVuSans-56" transform="translate(1073.75 0)"/>
     <use xlink:href="#DejaVuSans-3" transform="translate(1125.84375 0)"/>
     <use xlink:href="#DejaVuSans-48" transform="translate(1157.625 0)"/>
     <use xlink:href="#DejaVuSans-51" transform="translate(1219.15625 0)"/>
     <use xlink:href="#DejaVuSans-57" transform="translate(1282.53125 0)"/>
     <use xlink:href="#DejaVuSans-55" transform="translate(1321.734375 0)"/>
     <use xlink:href="#DejaVuSans-52" transform="translate(1360.640625 0)"/>
     <use xlink:href="#DejaVuSans-53" transform="translate(1421.828125 0)"/>
     <use xlink:href="#DejaVuSans-5c" transform="translate(1485.3125 0)"/>
    </g>
   </g>
   <g id="legend_1">
    <g id="patch_7">
     <path d="M 610.992188 269.521953 
L 702.2 269.521953 
Q 704.2 269.521953 704.2 267.521953 
L 704.2 148.515703 
Q 704.2 146.515703 702.2 146.515703 
L 610.992188 146.515703 
Q 608.992188 146.515703 608.992188 148.515703 
L 608.992188 267.521953 
Q 608.992188 269.521953 610.992188 269.521953 
z
" style="fill: #ffffff; opacity: 0.8; stroke: #cccccc; stroke-linejoin: miter"/>
    </g>
    <g id="line2d_41">
     <path d="M 612.992188 154.614141 
L 622.992188 154.614141 
L 632.992188 154.614141 
" style="fill: none; stroke: #1f77b4; stroke-width: 1.5; stroke-linecap: square"/>
     <g>
      <use xlink:href="#mf100c14c17" x="622.992188" y="154.614141" style="fill: #1f77b4; stroke: #1f77b4"/>
     </g>
    </g>
    <g id="text_21">
     <!-- uniform -->
     <g transform="translate(640.992188 158.114141) scale(0.1 -0.1)">
      <defs>
       <path id="DejaVuSans-58" d="M 544 1381 
L 544 3500 
L 1119 3500 
L 1119 1403 
Q 1119 906 1312 657 
Q 1506 409 1894 409 
Q 2359 409 2629 706 
Q 2900 1003 2900 1516 
L 2900 3500 
L 3475 3500 
L 3475 0 
L 2900 0 
L 2900 538 
Q 2691 219 2414 64 
Q 2138 -91 1772 -91 
Q 1169 -91 856 284 
Q 544 659 544 1381 
z
M 1991 3584 
L 1991 3584 
z
" transform="scale(0.015625)"/>
       <path id="DejaVuSans-49" d="M 2375 4863 
L 2375 4384 
L 1825 4384 
Q 1516 4384 1395 4259 
Q 1275 4134 1275 3809 
L 1275 3500 
L 2222 3500 
L 2222 3053 
L 1275 3053 
L 1275 0 
L 697 0 
L 697 3053 
L 147 3053 
L 147 3500 
L 697 3500 
L 697 3744 
Q 697 4328 969 4595 
Q 1241 4863 1831 4863 
L 2375 4863 
z
" transform="scale(0.015625)"/>
      </defs>
      <use xlink:href="#DejaVuSans-58"/>
      <use xlink:href="#DejaVuSans-51" transform="translate(63.375 0)"/>
      <use xlink:href="#DejaVuSans-4c" transform="translate(126.75 0)"/>
      <use xlink:href="#DejaVuSans-49" transform="translate(154.53125 0)"/>
      <use xlink:href="#DejaVuSans-52" transform="translate(189.734375 0)"/>
      <use xlink:href="#DejaVuSans-55" transform="translate(250.921875 0)"/>
      <use xlink:href="#DejaVuSans-50" transform="translate(290.28125 0)"/>
     </g>
    </g>
    <g id="line2d_42">
     <path d="M 612.992188 169.614922 
L 622.992188 169.614922 
L 632.992188 169.614922 
" style="fill: none; stroke: #ff7f0e; stroke-width: 1.5; stroke-linecap: square"/>
     <g>
      <use xlink:href="#m3d51346ccd" x="622.992188" y="169.614922" style="fill: #ff7f0e; stroke: #ff7f0e"/>
     </g>
    </g>
    <g id="text_22">
     <!-- periodic2b -->
     <g transform="translate(640.992188 173.114922) scale(0.1 -0.1)">
      <defs>
       <path id="DejaVuSans-46" d="M 3122 3366 
L 3122 2828 
Q 2878 2963 2633 3030 
Q 2388 3097 2138 3097 
Q 1578 3097 1268 2742 
Q 959 2388 959 1747 
Q 959 1106 1268 751 
Q 1578 397 2138 397 
Q 2388 397 2633 464 
Q 2878 531 3122 666 
L 3122 134 
Q 2881 22 2623 -34 
Q 2366 -91 2075 -91 
Q 1284 -91 818 406 
Q 353 903 353 1747 
Q 353 2603 823 3093 
Q 1294 3584 2113 3584 
Q 2378 3584 2631 3529 
Q 2884 3475 3122 3366 
z
" transform="scale(0.015625)"/>
      </defs>
      <use xlink:href="#DejaVuSans-53"/>
      <use xlink:href="#DejaVuSans-48" transform="translate(63.484375 0)"/>
      <use xlink:href="#DejaVuSans-55" transform="translate(125.015625 0)"/>
      <use xlink:href="#DejaVuSans-4c" transform="translate(166.125 0)"/>
      <use xlink:href="#DejaVuSans-52" transform="translate(193.90625 0)"/>
      <use xlink:href="#DejaVuSans-47" transform="translate(255.09375 0)"/>
      <use xlink:href="#DejaVuSans-4c" transform="translate(318.578125 0)"/>
      <use xlink:href="#DejaVuSans-46" transform="translate(346.359375 0)"/>
      <use xlink:href="#DejaVuSans-15" transform="translate(401.34375 0)"/>
      <use xlink:href="#DejaVuSans-45" transform="translate(464.96875 0)"/>
     </g>
    </g>
    <g id="line2d_43">
     <path d="M 612.992188 184.615703 
L 622.992188 184.615703 
L 632.992188 184.615703 
" style="fill: none; stroke: #2ca02c; stroke-width: 1.5; stroke-linecap: square"/>
     <g>
      <use xlink:href="#mc2d550978b" x="622.992188" y="184.615703" style="fill: #2ca02c; stroke: #2ca02c"/>
     </g>
    </g>
    <g id="text_23">
     <!-- periodic4b -->
     <g transform="translate(640.992188 188.115703) scale(0.1 -0.1)">
      <use xlink:href="#DejaVuSans-53"/>
      <use xlink:href="#DejaVuSans-48" transform="translate(63.484375 0)"/>
      <use xlink:href="#DejaVuSans-55" transform="translate(125.015625 0)"/>
      <use xlink:href="#DejaVuSans-4c" transform="translate(166.125 0)"/>
      <use xlink:href="#DejaVuSans-52" transform="translate(193.90625 0)"/>
      <use xlink:href="#DejaVuSans-47" transform="translate(255.09375 0)"/>
      <use xlink:href="#DejaVuSans-4c" transform="translate(318.578125 0)"/>
      <use xlink:href="#DejaVuSans-46" transform="translate(346.359375 0)"/>
      <use xlink:href="#DejaVuSans-17" transform="translate(401.34375 0)"/>
      <use xlink:href="#DejaVuSans-45" transform="translate(464.96875 0)"/>
     </g>
    </g>
    <g id="line2d_44">
     <path d="M 612.992188 199.616484 
L 622.992188 199.616484 
L 632.992188 199.616484 
" style="fill: none; stroke: #d62728; stroke-width: 1.5; stroke-linecap: square"/>
     <g>
      <use xlink:href="#m3e3a042847" x="622.992188" y="199.616484" style="fill: #d62728; stroke: #d62728"/>
     </g>
    </g>
    <g id="text_24">
     <!-- periodic8b -->
     <g transform="translate(640.992188 203.116484) scale(0.1 -0.1)">
      <use xlink:href="#DejaVuSans-53"/>
      <use xlink:href="#DejaVuSans-48" transform="translate(63.484375 0)"/>
      <use xlink:href="#DejaVuSans-55" transform="translate(125.015625 0)"/>
      <use xlink:href="#DejaVuSans-4c" transform="translate(166.125 0)"/>
      <use xlink:href="#DejaVuSans-52" transform="translate(193.90625 0)"/>
      <use xlink:href="#DejaVuSans-47" transform="translate(255.09375 0)"/>
      <use xlink:href="#DejaVuSans-4c" transform="translate(318.578125 0)"/>
      <use xlink:href="#DejaVuSans-46" transform="translate(346.359375 0)"/>
      <use xlink:href="#DejaVuSans-1b" transform="translate(401.34375 0)"/>
      <use xlink:href="#DejaVuSans-45" transform="translate(464.96875 0)"/>
     </g>
    </g>
    <g id="line2d_45">
     <path d="M 612.992188 214.617266 
L 622.992188 214.617266 
L 632.992188 214.617266 
" style="fill: none; stroke: #9467bd; stroke-width: 1.5; stroke-linecap: square"/>
     <g>
      <use xlink:href="#me335c63364" x="622.992188" y="214.617266" style="fill: #9467bd; stroke: #9467bd"/>
     </g>
    </g>
    <g id="text_25">
     <!-- periodic16b -->
     <g transform="translate(640.992188 218.117266) scale(0.1 -0.1)">
      <use xlink:href="#DejaVuSans-53"/>
      <use xlink:href="#DejaVuSans-48" transform="translate(63.484375 0)"/>
      <use xlink:href="#DejaVuSans-55" transform="translate(125.015625 0)"/>
      <use xlink:href="#DejaVuSans-4c" transform="translate(166.125 0)"/>
      <use xlink:href="#DejaVuSans-52" transform="translate(193.90625 0)"/>
      <use xlink:href="#DejaVuSans-47" transform="translate(255.09375 0)"/>
      <use xlink:href="#DejaVuSans-4c" transform="translate(318.578125 0)"/>
      <use xlink:href="#DejaVuSans-46" transform="translate(346.359375 0)"/>
      <use xlink:href="#DejaVuSans-14" transform="translate(401.34375 0)"/>
      <use xlink:href="#DejaVuSans-19" transform="translate(464.96875 0)"/>
      <use xlink:href="#DejaVuSans-45" transform="translate(528.59375 0)"/>
     </g>
    </g>
    <g id="line2d_46">
     <path d="M 612.992188 229.618047 
L 622.992188 229.618047 
L 632.992188 229.618047 
" style="fill: none; stroke: #8c564b; stroke-width: 1.5; stroke-linecap: square"/>
     <g>
      <use xlink:href="#mb7a900fb9e" x="622.992188" y="229.618047" style="fill: #8c564b; stroke: #8c564b"/>
     </g>
    </g>
    <g id="text_26">
     <!-- periodic32b -->
     <g transform="translate(640.992188 233.118047) scale(0.1 -0.1)">
      <use xlink:href="#DejaVuSans-53"/>
      <use xlink:href="#DejaVuSans-48" transform="translate(63.484375 0)"/>
      <use xlink:href="#DejaVuSans-55" transform="translate(125.015625 0)"/>
      <use xlink:href="#DejaVuSans-4c" transform="translate(166.125 0)"/>
      <use xlink:href="#DejaVuSans-52" transform="translate(193.90625 0)"/>
      <use xlink:href="#DejaVuSans-47" transform="translate(255.09375 0)"/>
      <use xlink:href="#DejaVuSans-4c" transform="translate(318.578125 0)"/>
      <use xlink:href="#DejaVuSans-46" transform="translate(346.359375 0)"/>
      <use xlink:href="#DejaVuSans-16" transform="translate(401.34375 0)"/>
      <use xlink:href="#DejaVuSans-15" transform="translate(464.96875 0)"/>
      <use xlink:href="#DejaVuSans-45" transform="translate(528.59375 0)"/>
     </g>
    </g>
    <g id="line2d_47">
     <path d="M 612.992188 244.618828 
L 622.992188 244.618828 
L 632.992188 244.618828 
" style="fill: none; stroke: #e377c2; stroke-width: 1.5; stroke-linecap: square"/>
     <g>
      <use xlink:href="#m6c3432cd99" x="622.992188" y="244.618828" style="fill: #e377c2; stroke: #e377c2"/>
     </g>
    </g>
    <g id="text_27">
     <!-- random -->
     <g transform="translate(640.992188 248.118828) scale(0.1 -0.1)">
      <defs>
       <path id="DejaVuSans-44" d="M 2194 1759 
Q 1497 1759 1228 1600 
Q 959 1441 959 1056 
Q 959 750 1161 570 
Q 1363 391 1709 391 
Q 2188 391 2477 730 
Q 2766 1069 2766 1631 
L 2766 1759 
L 2194 1759 
z
M 3341 1997 
L 3341 0 
L 2766 0 
L 2766 531 
Q 2569 213 2275 61 
Q 1981 -91 1556 -91 
Q 1019 -91 701 211 
Q 384 513 384 1019 
Q 384 1609 779 1909 
Q 1175 2209 1959 2209 
L 2766 2209 
L 2766 2266 
Q 2766 2663 2505 2880 
Q 2244 3097 1772 3097 
Q 1472 3097 1187 3025 
Q 903 2953 641 2809 
L 641 3341 
Q 956 3463 1253 3523 
Q 1550 3584 1831 3584 
Q 2591 3584 2966 3190 
Q 3341 2797 3341 1997 
z
" transform="scale(0.015625)"/>
      </defs>
      <use xlink:href="#DejaVuSans-55"/>
      <use xlink:href="#DejaVuSans-44" transform="translate(41.109375 0)"/>
      <use xlink:href="#DejaVuSans-51" transform="translate(102.390625 0)"/>
      <use xlink:href="#DejaVuSans-47" transform="translate(165.765625 0)"/>
      <use xlink:href="#DejaVuSans-52" transform="translate(229.25 0)"/>
      <use xlink:href="#DejaVuSans-50" transform="translate(290.4375 0)"/>
     </g>
    </g>
    <g id="line2d_48">
     <path d="M 612.992188 259.619609 
L 622.992188 259.619609 
L 632.992188 259.619609 
" style="fill: none; stroke: #7f7f7f; stroke-width: 1.5; stroke-linecap: square"/>
     <g>
      <use xlink:href="#m283d973520" x="622.992188" y="259.619609" style="fill: #7f7f7f; stroke: #7f7f7f"/>
     </g>
    </g>
    <g id="text_28">
     <!-- text -->
     <g transform="translate(640.992188 263.119609) scale(0.1 -0.1)">
      <defs>
       <path id="DejaVuSans-5b" d="M 3513 3500 
L 2247 1797 
L 3578 0 
L 2900 0 
L 1881 1375 
L 863 0 
L 184 0 
L 1544 1831 
L 300 3500 
L 978 3500 
L 1906 2253 
L 2834 3500 
L 3513 3500 
z
" transform="scale(0.015625)"/>
      </defs>
      <use xlink:href="#DejaVuSans-57"/>
      <use xlink:href="#DejaVuSans-48" transform="translate(39.203125 0)"/>
      <use xlink:href="#DejaVuSans-5b" transform="translate(98.984375 0)"/>
      <use xlink:href="#DejaVuSans-57" transform="translate(158.171875 0)"/>
     </g>
    </g>
   </g>
  </g>
 </g>
 <defs>
  <clipPath id="p0dc847d9a4">
   <rect x="47.962344" y="26.16" width="661.237656" height="363.717656"/>
  </clipPath>
 </defs>
</svg>
