<?xml version="1.0" encoding="utf-8" standalone="no"?>
<!DOCTYPE svg PUBLIC "-//W3C//DTD SVG 1.1//EN"
  "http://www.w3.org/Graphics/SVG/1.1/DTD/svg11.dtd">
<svg xmlns:xlink="http://www.w3.org/1999/xlink" width="720pt" height="432pt" viewBox="0 0 720 432" xmlns="http://www.w3.org/2000/svg" version="1.1">
 <metadata>
  <rdf:RDF xmlns:dc="http://purl.org/dc/elements/1.1/" xmlns:cc="http://creativecommons.org/ns#" xmlns:rdf="http://www.w3.org/1999/02/22-rdf-syntax-ns#">
   <cc:Work>
    <dc:type rdf:resource="http://purl.org/dc/dcmitype/StillImage"/>
    <dc:date>2026-06-15T14:17:22.670031</dc:date>
    <dc:format>image/svg+xml</dc:format>
    <dc:creator>
     <cc:Agent>
      <dc:title>Matplotlib v3.11.0, https://matplotlib.org/</dc:title>
     </cc:Agent>
    </dc:creator>
   </cc:Work>
  </rdf:RDF>
 </metadata>
 <defs>
  <style type="text/css">*{stroke-linejoin: round; stroke-linecap: butt}</style>
 </defs>
 <g id="figure_1">
  <g id="patch_1">
   <path d="M 0 432 
L 720 432 
L 720 0 
L 0 0 
z
" style="fill: #ffffff"/>
  </g>
  <g id="axes_1">
   <g id="patch_2">
    <path d="M 38.602344 389.877656 
L 709.2 389.877656 
L 709.2 26.16 
L 38.602344 26.16 
z
" style="fill: #ffffff"/>
   </g>
   <g id="matplotlib.axis_1">
    <g id="xtick_1">
     <g id="line2d_1">
      <path d="M 172.484886 389.877656 
L 172.484886 26.16 
" clip-path="url(#p6ea6b7769a)" style="fill: none; stroke-dasharray: 1.85,0.8; stroke-dashoffset: 0; stroke: #b0b0b0; stroke-width: 0.5"/>
     </g>
     <g id="line2d_2">
      <defs>
       <path id="m2f8a87626f" d="M 0 0 
L 0 3.5 
" style="stroke: #000000; stroke-width: 0.8"/>
      </defs>
      <g>
       <use xlink:href="#m2f8a87626f" x="172.484886" y="389.877656" style="stroke: #000000; stroke-width: 0.8"/>
      </g>
     </g>
     <g id="text_1">
      <!-- 0.5 -->
      <g transform="translate(164.533323 404.475312) scale(0.1 -0.1)">
       <defs>
        <path id="DejaVuSans-13" d="M 2034 4250 
Q 1547 4250 1301 3770 
Q 1056 3291 1056 2328 
Q 1056 1369 1301 889 
Q 1547 409 2034 409 
Q 2525 409 2770 889 
Q 3016 1369 3016 2328 
Q 3016 3291 2770 3770 
Q 2525 4250 2034 4250 
z
M 2034 4750 
Q 2819 4750 3233 4129 
Q 3647 3509 3647 2328 
Q 3647 1150 3233 529 
Q 2819 -91 2034 -91 
Q 1250 -91 836 529 
Q 422 1150 422 2328 
Q 422 3509 836 4129 
Q 1250 4750 2034 4750 
z
" transform="scale(0.015625)"/>
        <path id="DejaVuSans-11" d="M 684 794 
L 1344 794 
L 1344 0 
L 684 0 
L 684 794 
z
" transform="scale(0.015625)"/>
        <path id="DejaVuSans-18" d="M 691 4666 
L 3169 4666 
L 3169 4134 
L 1269 4134 
L 1269 2991 
Q 1406 3038 1543 3061 
Q 1681 3084 1819 3084 
Q 2600 3084 3056 2656 
Q 3513 2228 3513 1497 
Q 3513 744 3044 326 
Q 2575 -91 1722 -91 
Q 1428 -91 1123 -41 
Q 819 9 494 109 
L 494 744 
Q 775 591 1075 516 
Q 1375 441 1709 441 
Q 2250 441 2565 725 
Q 2881 1009 2881 1497 
Q 2881 1984 2565 2268 
Q 2250 2553 1709 2553 
Q 1456 2553 1204 2497 
Q 953 2441 691 2322 
L 691 4666 
z
" transform="scale(0.015625)"/>
       </defs>
       <use xlink:href="#DejaVuSans-13"/>
       <use xlink:href="#DejaVuSans-11" transform="translate(63.625 0)"/>
       <use xlink:href="#DejaVuSans-18" transform="translate(95.40625 0)"/>
      </g>
     </g>
    </g>
    <g id="xtick_2">
     <g id="line2d_3">
      <path d="M 310.352706 389.877656 
L 310.352706 26.16 
" clip-path="url(#p6ea6b7769a)" style="fill: none; stroke-dasharray: 1.85,0.8; stroke-dashoffset: 0; stroke: #b0b0b0; stroke-width: 0.5"/>
     </g>
     <g id="line2d_4">
      <g>
       <use xlink:href="#m2f8a87626f" x="310.352706" y="389.877656" style="stroke: #000000; stroke-width: 0.8"/>
      </g>
     </g>
     <g id="text_2">
      <!-- 1.0 -->
      <g transform="translate(302.401143 404.475312) scale(0.1 -0.1)">
       <defs>
        <path id="DejaVuSans-14" d="M 794 531 
L 1825 531 
L 1825 4091 
L 703 3866 
L 703 4441 
L 1819 4666 
L 2450 4666 
L 2450 531 
L 3481 531 
L 3481 0 
L 794 0 
L 794 531 
z
" transform="scale(0.015625)"/>
       </defs>
       <use xlink:href="#DejaVuSans-14"/>
       <use xlink:href="#DejaVuSans-11" transform="translate(63.625 0)"/>
       <use xlink:href="#DejaVuSans-13" transform="translate(95.40625 0)"/>
      </g>
     </g>
    </g>
    <g id="xtick_3">
     <g id="line2d_5">
      <path d="M 448.220526 389.877656 
L 448.220526 26.16 
" clip-path="url(#p6ea6b7769a)" style="fill: none; stroke-dasharray: 1.85,0.8; stroke-dashoffset: 0; stroke: #b0b0b0; stroke-width: 0.5"/>
     </g>
     <g id="line2d_6">
      <g>
       <use xlink:href="#m2f8a87626f" x="448.220526" y="389.877656" style="stroke: #000000; stroke-width: 0.8"/>
      </g>
     </g>
     <g id="text_3">
      <!-- 1.5 -->
      <g transform="translate(440.268964 404.475312) scale(0.1 -0.1)">
       <use xlink:href="#DejaVuSans-14"/>
       <use xlink:href="#DejaVuSans-11" transform="translate(63.625 0)"/>
       <use xlink:href="#DejaVuSans-18" transform="translate(95.40625 0)"/>
      </g>
     </g>
    </g>
    <g id="xtick_4">
     <g id="line2d_7">
      <path d="M 586.088347 389.877656 
L 586.088347 26.16 
" clip-path="url(#p6ea6b7769a)" style="fill: none; stroke-dasharray: 1.85,0.8; stroke-dashoffset: 0; stroke: #b0b0b0; stroke-width: 0.5"/>
     </g>
     <g id="line2d_8">
      <g>
       <use xlink:href="#m2f8a87626f" x="586.088347" y="389.877656" style="stroke: #000000; stroke-width: 0.8"/>
      </g>
     </g>
     <g id="text_4">
      <!-- 2.0 -->
      <g transform="translate(578.136784 404.475312) scale(0.1 -0.1)">
       <defs>
        <path id="DejaVuSans-15" d="M 1228 531 
L 3431 531 
L 3431 0 
L 469 0 
L 469 531 
Q 828 903 1448 1529 
Q 2069 2156 2228 2338 
Q 2531 2678 2651 2914 
Q 2772 3150 2772 3378 
Q 2772 3750 2511 3984 
Q 2250 4219 1831 4219 
Q 1534 4219 1204 4116 
Q 875 4013 500 3803 
L 500 4441 
Q 881 4594 1212 4672 
Q 1544 4750 1819 4750 
Q 2544 4750 2975 4387 
Q 3406 4025 3406 3419 
Q 3406 3131 3298 2873 
Q 3191 2616 2906 2266 
Q 2828 2175 2409 1742 
Q 1991 1309 1228 531 
z
" transform="scale(0.015625)"/>
       </defs>
       <use xlink:href="#DejaVuSans-15"/>
       <use xlink:href="#DejaVuSans-11" transform="translate(63.625 0)"/>
       <use xlink:href="#DejaVuSans-13" transform="translate(95.40625 0)"/>
      </g>
     </g>
    </g>
    <g id="text_5">
     <!-- Compression ratio (compressed/original) -->
     <g transform="translate(272.141016 418.476094) scale(0.1 -0.1)">
      <defs>
       <path id="DejaVuSans-26" d="M 4122 4306 
L 4122 3641 
Q 3803 3938 3442 4084 
Q 3081 4231 2675 4231 
Q 1875 4231 1450 3742 
Q 1025 3253 1025 2328 
Q 1025 1406 1450 917 
Q 1875 428 2675 428 
Q 3081 428 3442 575 
Q 3803 722 4122 1019 
L 4122 359 
Q 3791 134 3420 21 
Q 3050 -91 2638 -91 
Q 1578 -91 968 557 
Q 359 1206 359 2328 
Q 359 3453 968 4101 
Q 1578 4750 2638 4750 
Q 3056 4750 3426 4639 
Q 3797 4528 4122 4306 
z
" transform="scale(0.015625)"/>
       <path id="DejaVuSans-52" d="M 1959 3097 
Q 1497 3097 1228 2736 
Q 959 2375 959 1747 
Q 959 1119 1226 758 
Q 1494 397 1959 397 
Q 2419 397 2687 759 
Q 2956 1122 2956 1747 
Q 2956 2369 2687 2733 
Q 2419 3097 1959 3097 
z
M 1959 3584 
Q 2709 3584 3137 3096 
Q 3566 2609 3566 1747 
Q 3566 888 3137 398 
Q 2709 -91 1959 -91 
Q 1206 -91 779 398 
Q 353 888 353 1747 
Q 353 2609 779 3096 
Q 1206 3584 1959 3584 
z
" transform="scale(0.015625)"/>
       <path id="DejaVuSans-50" d="M 3328 2828 
Q 3544 3216 3844 3400 
Q 4144 3584 4550 3584 
Q 5097 3584 5394 3201 
Q 5691 2819 5691 2113 
L 5691 0 
L 5113 0 
L 5113 2094 
Q 5113 2597 4934 2840 
Q 4756 3084 4391 3084 
Q 3944 3084 3684 2787 
Q 3425 2491 3425 1978 
L 3425 0 
L 2847 0 
L 2847 2094 
Q 2847 2600 2669 2842 
Q 2491 3084 2119 3084 
Q 1678 3084 1418 2786 
Q 1159 2488 1159 1978 
L 1159 0 
L 581 0 
L 581 3500 
L 1159 3500 
L 1159 2956 
Q 1356 3278 1631 3431 
Q 1906 3584 2284 3584 
Q 2666 3584 2933 3390 
Q 3200 3197 3328 2828 
z
" transform="scale(0.015625)"/>
       <path id="DejaVuSans-53" d="M 1159 525 
L 1159 -1331 
L 581 -1331 
L 581 3500 
L 1159 3500 
L 1159 2969 
Q 1341 3281 1617 3432 
Q 1894 3584 2278 3584 
Q 2916 3584 3314 3078 
Q 3713 2572 3713 1747 
Q 3713 922 3314 415 
Q 2916 -91 2278 -91 
Q 1894 -91 1617 61 
Q 1341 213 1159 525 
z
M 3116 1747 
Q 3116 2381 2855 2742 
Q 2594 3103 2138 3103 
Q 1681 3103 1420 2742 
Q 1159 2381 1159 1747 
Q 1159 1113 1420 752 
Q 1681 391 2138 391 
Q 2594 391 2855 752 
Q 3116 1113 3116 1747 
z
" transform="scale(0.015625)"/>
       <path id="DejaVuSans-55" d="M 2631 2963 
Q 2534 3019 2420 3045 
Q 2306 3072 2169 3072 
Q 1681 3072 1420 2755 
Q 1159 2438 1159 1844 
L 1159 0 
L 581 0 
L 581 3500 
L 1159 3500 
L 1159 2956 
Q 1341 3275 1631 3429 
Q 1922 3584 2338 3584 
Q 2397 3584 2469 3576 
Q 2541 3569 2628 3553 
L 2631 2963 
z
" transform="scale(0.015625)"/>
       <path id="DejaVuSans-48" d="M 3597 1894 
L 3597 1613 
L 953 1613 
Q 991 1019 1311 708 
Q 1631 397 2203 397 
Q 2534 397 2845 478 
Q 3156 559 3463 722 
L 3463 178 
Q 3153 47 2828 -22 
Q 2503 -91 2169 -91 
Q 1331 -91 842 396 
Q 353 884 353 1716 
Q 353 2575 817 3079 
Q 1281 3584 2069 3584 
Q 2775 3584 3186 3129 
Q 3597 2675 3597 1894 
z
M 3022 2063 
Q 3016 2534 2758 2815 
Q 2500 3097 2075 3097 
Q 1594 3097 1305 2825 
Q 1016 2553 972 2059 
L 3022 2063 
z
" transform="scale(0.015625)"/>
       <path id="DejaVuSans-56" d="M 2834 3397 
L 2834 2853 
Q 2591 2978 2328 3040 
Q 2066 3103 1784 3103 
Q 1356 3103 1142 2972 
Q 928 2841 928 2578 
Q 928 2378 1081 2264 
Q 1234 2150 1697 2047 
L 1894 2003 
Q 2506 1872 2764 1633 
Q 3022 1394 3022 966 
Q 3022 478 2636 193 
Q 2250 -91 1575 -91 
Q 1294 -91 989 -36 
Q 684 19 347 128 
L 347 722 
Q 666 556 975 473 
Q 1284 391 1588 391 
Q 1994 391 2212 530 
Q 2431 669 2431 922 
Q 2431 1156 2273 1281 
Q 2116 1406 1581 1522 
L 1381 1569 
Q 847 1681 609 1914 
Q 372 2147 372 2553 
Q 372 3047 722 3315 
Q 1072 3584 1716 3584 
Q 2034 3584 2315 3537 
Q 2597 3491 2834 3397 
z
" transform="scale(0.015625)"/>
       <path id="DejaVuSans-4c" d="M 603 3500 
L 1178 3500 
L 1178 0 
L 603 0 
L 603 3500 
z
M 603 4863 
L 1178 4863 
L 1178 4134 
L 603 4134 
L 603 4863 
z
" transform="scale(0.015625)"/>
       <path id="DejaVuSans-51" d="M 3513 2113 
L 3513 0 
L 2938 0 
L 2938 2094 
Q 2938 2591 2744 2837 
Q 2550 3084 2163 3084 
Q 1697 3084 1428 2787 
Q 1159 2491 1159 1978 
L 1159 0 
L 581 0 
L 581 3500 
L 1159 3500 
L 1159 2956 
Q 1366 3272 1645 3428 
Q 1925 3584 2291 3584 
Q 2894 3584 3203 3211 
Q 3513 2838 3513 2113 
z
" transform="scale(0.015625)"/>
       <path id="DejaVuSans-3" transform="scale(0.015625)"/>
       <path id="DejaVuSans-44" d="M 2194 1759 
Q 1497 1759 1228 1600 
Q 959 1441 959 1056 
Q 959 750 1161 570 
Q 1363 391 1709 391 
Q 2188 391 2477 730 
Q 2766 1069 2766 1631 
L 2766 1759 
L 2194 1759 
z
M 3341 1997 
L 3341 0 
L 2766 0 
L 2766 531 
Q 2569 213 2275 61 
Q 1981 -91 1556 -91 
Q 1019 -91 701 211 
Q 384 513 384 1019 
Q 384 1609 779 1909 
Q 1175 2209 1959 2209 
L 2766 2209 
L 2766 2266 
Q 2766 2663 2505 2880 
Q 2244 3097 1772 3097 
Q 1472 3097 1187 3025 
Q 903 2953 641 2809 
L 641 3341 
Q 956 3463 1253 3523 
Q 1550 3584 1831 3584 
Q 2591 3584 2966 3190 
Q 3341 2797 3341 1997 
z
" transform="scale(0.015625)"/>
       <path id="DejaVuSans-57" d="M 1172 4494 
L 1172 3500 
L 2356 3500 
L 2356 3053 
L 1172 3053 
L 1172 1153 
Q 1172 725 1289 603 
Q 1406 481 1766 481 
L 2356 481 
L 2356 0 
L 1766 0 
Q 1100 0 847 248 
Q 594 497 594 1153 
L 594 3053 
L 172 3053 
L 172 3500 
L 594 3500 
L 594 4494 
L 1172 4494 
z
" transform="scale(0.015625)"/>
       <path id="DejaVuSans-b" d="M 1984 4856 
Q 1566 4138 1362 3434 
Q 1159 2731 1159 2009 
Q 1159 1288 1364 580 
Q 1569 -128 1984 -844 
L 1484 -844 
Q 1016 -109 783 600 
Q 550 1309 550 2009 
Q 550 2706 781 3412 
Q 1013 4119 1484 4856 
L 1984 4856 
z
" transform="scale(0.015625)"/>
       <path id="DejaVuSans-46" d="M 3122 3366 
L 3122 2828 
Q 2878 2963 2633 3030 
Q 2388 3097 2138 3097 
Q 1578 3097 1268 2742 
Q 959 2388 959 1747 
Q 959 1106 1268 751 
Q 1578 397 2138 397 
Q 2388 397 2633 464 
Q 2878 531 3122 666 
L 3122 134 
Q 2881 22 2623 -34 
Q 2366 -91 2075 -91 
Q 1284 -91 818 406 
Q 353 903 353 1747 
Q 353 2603 823 3093 
Q 1294 3584 2113 3584 
Q 2378 3584 2631 3529 
Q 2884 3475 3122 3366 
z
" transform="scale(0.015625)"/>
       <path id="DejaVuSans-47" d="M 2906 2969 
L 2906 4863 
L 3481 4863 
L 3481 0 
L 2906 0 
L 2906 525 
Q 2725 213 2448 61 
Q 2172 -91 1784 -91 
Q 1150 -91 751 415 
Q 353 922 353 1747 
Q 353 2572 751 3078 
Q 1150 3584 1784 3584 
Q 2172 3584 2448 3432 
Q 2725 3281 2906 2969 
z
M 947 1747 
Q 947 1113 1208 752 
Q 1469 391 1925 391 
Q 2381 391 2643 752 
Q 2906 1113 2906 1747 
Q 2906 2381 2643 2742 
Q 2381 3103 1925 3103 
Q 1469 3103 1208 2742 
Q 947 2381 947 1747 
z
" transform="scale(0.015625)"/>
       <path id="DejaVuSans-12" d="M 1625 4666 
L 2156 4666 
L 531 -594 
L 0 -594 
L 1625 4666 
z
" transform="scale(0.015625)"/>
       <path id="DejaVuSans-4a" d="M 2906 1791 
Q 2906 2416 2648 2759 
Q 2391 3103 1925 3103 
Q 1463 3103 1205 2759 
Q 947 2416 947 1791 
Q 947 1169 1205 825 
Q 1463 481 1925 481 
Q 2391 481 2648 825 
Q 2906 1169 2906 1791 
z
M 3481 434 
Q 3481 -459 3084 -895 
Q 2688 -1331 1869 -1331 
Q 1566 -1331 1297 -1286 
Q 1028 -1241 775 -1147 
L 775 -588 
Q 1028 -725 1275 -790 
Q 1522 -856 1778 -856 
Q 2344 -856 2625 -561 
Q 2906 -266 2906 331 
L 2906 616 
Q 2728 306 2450 153 
Q 2172 0 1784 0 
Q 1141 0 747 490 
Q 353 981 353 1791 
Q 353 2603 747 3093 
Q 1141 3584 1784 3584 
Q 2172 3584 2450 3431 
Q 2728 3278 2906 2969 
L 2906 3500 
L 3481 3500 
L 3481 434 
z
" transform="scale(0.015625)"/>
       <path id="DejaVuSans-4f" d="M 603 4863 
L 1178 4863 
L 1178 0 
L 603 0 
L 603 4863 
z
" transform="scale(0.015625)"/>
       <path id="DejaVuSans-c" d="M 513 4856 
L 1013 4856 
Q 1481 4119 1714 3412 
Q 1947 2706 1947 2009 
Q 1947 1309 1714 600 
Q 1481 -109 1013 -844 
L 513 -844 
Q 928 -128 1133 580 
Q 1338 1288 1338 2009 
Q 1338 2731 1133 3434 
Q 928 4138 513 4856 
z
" transform="scale(0.015625)"/>
      </defs>
      <use xlink:href="#DejaVuSans-26"/>
      <use xlink:href="#DejaVuSans-52" transform="translate(69.828125 0)"/>
      <use xlink:href="#DejaVuSans-50" transform="translate(131.015625 0)"/>
      <use xlink:href="#DejaVuSans-53" transform="translate(228.421875 0)"/>
      <use xlink:href="#DejaVuSans-55" transform="translate(291.90625 0)"/>
      <use xlink:href="#DejaVuSans-48" transform="translate(330.8125 0)"/>
      <use xlink:href="#DejaVuSans-56" transform="translate(392.34375 0)"/>
      <use xlink:href="#DejaVuSans-56" transform="translate(444.4375 0)"/>
      <use xlink:href="#DejaVuSans-4c" transform="translate(496.53125 0)"/>
      <use xlink:href="#DejaVuSans-52" transform="translate(524.3125 0)"/>
      <use xlink:href="#DejaVuSans-51" transform="translate(585.5 0)"/>
      <use xlink:href="#DejaVuSans-3" transform="translate(648.875 0)"/>
      <use xlink:href="#DejaVuSans-55" transform="translate(680.65625 0)"/>
      <use xlink:href="#DejaVuSans-44" transform="translate(721.765625 0)"/>
      <use xlink:href="#DejaVuSans-57" transform="translate(783.046875 0)"/>
      <use xlink:href="#DejaVuSans-4c" transform="translate(822.25 0)"/>
      <use xlink:href="#DejaVuSans-52" transform="translate(850.03125 0)"/>
      <use xlink:href="#DejaVuSans-3" transform="translate(911.21875 0)"/>
      <use xlink:href="#DejaVuSans-b" transform="translate(943 0)"/>
      <use xlink:href="#DejaVuSans-46" transform="translate(982.015625 0)"/>
      <use xlink:href="#DejaVuSans-52" transform="translate(1037 0)"/>
      <use xlink:href="#DejaVuSans-50" transform="translate(1098.1875 0)"/>
      <use xlink:href="#DejaVuSans-53" transform="translate(1195.59375 0)"/>
      <use xlink:href="#DejaVuSans-55" transform="translate(1259.078125 0)"/>
      <use xlink:href="#DejaVuSans-48" transform="translate(1297.984375 0)"/>
      <use xlink:href="#DejaVuSans-56" transform="translate(1359.515625 0)"/>
      <use xlink:href="#DejaVuSans-56" transform="translate(1411.609375 0)"/>
      <use xlink:href="#DejaVuSans-48" transform="translate(1463.703125 0)"/>
      <use xlink:href="#DejaVuSans-47" transform="translate(1525.234375 0)"/>
      <use xlink:href="#DejaVuSans-12" transform="translate(1588.71875 0)"/>
      <use xlink:href="#DejaVuSans-52" transform="translate(1622.40625 0)"/>
      <use xlink:href="#DejaVuSans-55" transform="translate(1683.59375 0)"/>
      <use xlink:href="#DejaVuSans-4c" transform="translate(1724.703125 0)"/>
      <use xlink:href="#DejaVuSans-4a" transform="translate(1752.484375 0)"/>
      <use xlink:href="#DejaVuSans-4c" transform="translate(1815.96875 0)"/>
      <use xlink:href="#DejaVuSans-51" transform="translate(1843.75 0)"/>
      <use xlink:href="#DejaVuSans-44" transform="translate(1907.125 0)"/>
      <use xlink:href="#DejaVuSans-4f" transform="translate(1968.40625 0)"/>
      <use xlink:href="#DejaVuSans-c" transform="translate(1996.1875 0)"/>
     </g>
    </g>
   </g>
   <g id="matplotlib.axis_2">
    <g id="ytick_1">
     <g id="line2d_9">
      <path d="M 38.602344 373.345036 
L 709.2 373.345036 
" clip-path="url(#p6ea6b7769a)" style="fill: none; stroke-dasharray: 1.85,0.8; stroke-dashoffset: 0; stroke: #b0b0b0; stroke-width: 0.5"/>
     </g>
     <g id="line2d_10">
      <defs>
       <path id="m56615364dc" d="M 0 0 
L -3.5 0 
" style="stroke: #000000; stroke-width: 0.8"/>
      </defs>
      <g>
       <use xlink:href="#m56615364dc" x="38.602344" y="373.345036" style="stroke: #000000; stroke-width: 0.8"/>
      </g>
     </g>
     <g id="text_6">
      <!-- 0 -->
      <g transform="translate(25.239844 377.143864) scale(0.1 -0.1)">
       <use xlink:href="#DejaVuSans-13"/>
      </g>
     </g>
    </g>
    <g id="ytick_2">
     <g id="line2d_11">
      <path d="M 38.602344 332.013476 
L 709.2 332.013476 
" clip-path="url(#p6ea6b7769a)" style="fill: none; stroke-dasharray: 1.85,0.8; stroke-dashoffset: 0; stroke: #b0b0b0; stroke-width: 0.5"/>
     </g>
     <g id="line2d_12">
      <g>
       <use xlink:href="#m56615364dc" x="38.602344" y="332.013476" style="stroke: #000000; stroke-width: 0.8"/>
      </g>
     </g>
     <g id="text_7">
      <!-- 1 -->
      <g transform="translate(25.239844 335.812304) scale(0.1 -0.1)">
       <use xlink:href="#DejaVuSans-14"/>
      </g>
     </g>
    </g>
    <g id="ytick_3">
     <g id="line2d_13">
      <path d="M 38.602344 290.681917 
L 709.2 290.681917 
" clip-path="url(#p6ea6b7769a)" style="fill: none; stroke-dasharray: 1.85,0.8; stroke-dashoffset: 0; stroke: #b0b0b0; stroke-width: 0.5"/>
     </g>
     <g id="line2d_14">
      <g>
       <use xlink:href="#m56615364dc" x="38.602344" y="290.681917" style="stroke: #000000; stroke-width: 0.8"/>
      </g>
     </g>
     <g id="text_8">
      <!-- 2 -->
      <g transform="translate(25.239844 294.480745) scale(0.1 -0.1)">
       <use xlink:href="#DejaVuSans-15"/>
      </g>
     </g>
    </g>
    <g id="ytick_4">
     <g id="line2d_15">
      <path d="M 38.602344 249.350358 
L 709.2 249.350358 
" clip-path="url(#p6ea6b7769a)" style="fill: none; stroke-dasharray: 1.85,0.8; stroke-dashoffset: 0; stroke: #b0b0b0; stroke-width: 0.5"/>
     </g>
     <g id="line2d_16">
      <g>
       <use xlink:href="#m56615364dc" x="38.602344" y="249.350358" style="stroke: #000000; stroke-width: 0.8"/>
      </g>
     </g>
     <g id="text_9">
      <!-- 3 -->
      <g transform="translate(25.239844 253.149186) scale(0.1 -0.1)">
       <defs>
        <path id="DejaVuSans-16" d="M 2597 2516 
Q 3050 2419 3304 2112 
Q 3559 1806 3559 1356 
Q 3559 666 3084 287 
Q 2609 -91 1734 -91 
Q 1441 -91 1130 -33 
Q 819 25 488 141 
L 488 750 
Q 750 597 1062 519 
Q 1375 441 1716 441 
Q 2309 441 2620 675 
Q 2931 909 2931 1356 
Q 2931 1769 2642 2001 
Q 2353 2234 1838 2234 
L 1294 2234 
L 1294 2753 
L 1863 2753 
Q 2328 2753 2575 2939 
Q 2822 3125 2822 3475 
Q 2822 3834 2567 4026 
Q 2313 4219 1838 4219 
Q 1578 4219 1281 4162 
Q 984 4106 628 3988 
L 628 4550 
Q 988 4650 1302 4700 
Q 1616 4750 1894 4750 
Q 2613 4750 3031 4423 
Q 3450 4097 3450 3541 
Q 3450 3153 3228 2886 
Q 3006 2619 2597 2516 
z
" transform="scale(0.015625)"/>
       </defs>
       <use xlink:href="#DejaVuSans-16"/>
      </g>
     </g>
    </g>
    <g id="ytick_5">
     <g id="line2d_17">
      <path d="M 38.602344 208.018799 
L 709.2 208.018799 
" clip-path="url(#p6ea6b7769a)" style="fill: none; stroke-dasharray: 1.85,0.8; stroke-dashoffset: 0; stroke: #b0b0b0; stroke-width: 0.5"/>
     </g>
     <g id="line2d_18">
      <g>
       <use xlink:href="#m56615364dc" x="38.602344" y="208.018799" style="stroke: #000000; stroke-width: 0.8"/>
      </g>
     </g>
     <g id="text_10">
      <!-- 4 -->
      <g transform="translate(25.239844 211.817627) scale(0.1 -0.1)">
       <defs>
        <path id="DejaVuSans-17" d="M 2419 4116 
L 825 1625 
L 2419 1625 
L 2419 4116 
z
M 2253 4666 
L 3047 4666 
L 3047 1625 
L 3713 1625 
L 3713 1100 
L 3047 1100 
L 3047 0 
L 2419 0 
L 2419 1100 
L 313 1100 
L 313 1709 
L 2253 4666 
z
" transform="scale(0.015625)"/>
       </defs>
       <use xlink:href="#DejaVuSans-17"/>
      </g>
     </g>
    </g>
    <g id="ytick_6">
     <g id="line2d_19">
      <path d="M 38.602344 166.68724 
L 709.2 166.68724 
" clip-path="url(#p6ea6b7769a)" style="fill: none; stroke-dasharray: 1.85,0.8; stroke-dashoffset: 0; stroke: #b0b0b0; stroke-width: 0.5"/>
     </g>
     <g id="line2d_20">
      <g>
       <use xlink:href="#m56615364dc" x="38.602344" y="166.68724" style="stroke: #000000; stroke-width: 0.8"/>
      </g>
     </g>
     <g id="text_11">
      <!-- 5 -->
      <g transform="translate(25.239844 170.486068) scale(0.1 -0.1)">
       <use xlink:href="#DejaVuSans-18"/>
      </g>
     </g>
    </g>
    <g id="ytick_7">
     <g id="line2d_21">
      <path d="M 38.602344 125.355681 
L 709.2 125.355681 
" clip-path="url(#p6ea6b7769a)" style="fill: none; stroke-dasharray: 1.85,0.8; stroke-dashoffset: 0; stroke: #b0b0b0; stroke-width: 0.5"/>
     </g>
     <g id="line2d_22">
      <g>
       <use xlink:href="#m56615364dc" x="38.602344" y="125.355681" style="stroke: #000000; stroke-width: 0.8"/>
      </g>
     </g>
     <g id="text_12">
      <!-- 6 -->
      <g transform="translate(25.239844 129.154509) scale(0.1 -0.1)">
       <defs>
        <path id="DejaVuSans-19" d="M 2113 2584 
Q 1688 2584 1439 2293 
Q 1191 2003 1191 1497 
Q 1191 994 1439 701 
Q 1688 409 2113 409 
Q 2538 409 2786 701 
Q 3034 994 3034 1497 
Q 3034 2003 2786 2293 
Q 2538 2584 2113 2584 
z
M 3366 4563 
L 3366 3988 
Q 3128 4100 2886 4159 
Q 2644 4219 2406 4219 
Q 1781 4219 1451 3797 
Q 1122 3375 1075 2522 
Q 1259 2794 1537 2939 
Q 1816 3084 2150 3084 
Q 2853 3084 3261 2657 
Q 3669 2231 3669 1497 
Q 3669 778 3244 343 
Q 2819 -91 2113 -91 
Q 1303 -91 875 529 
Q 447 1150 447 2328 
Q 447 3434 972 4092 
Q 1497 4750 2381 4750 
Q 2619 4750 2861 4703 
Q 3103 4656 3366 4563 
z
" transform="scale(0.015625)"/>
       </defs>
       <use xlink:href="#DejaVuSans-19"/>
      </g>
     </g>
    </g>
    <g id="ytick_8">
     <g id="line2d_23">
      <path d="M 38.602344 84.024122 
L 709.2 84.024122 
" clip-path="url(#p6ea6b7769a)" style="fill: none; stroke-dasharray: 1.85,0.8; stroke-dashoffset: 0; stroke: #b0b0b0; stroke-width: 0.5"/>
     </g>
     <g id="line2d_24">
      <g>
       <use xlink:href="#m56615364dc" x="38.602344" y="84.024122" style="stroke: #000000; stroke-width: 0.8"/>
      </g>
     </g>
     <g id="text_13">
      <!-- 7 -->
      <g transform="translate(25.239844 87.82295) scale(0.1 -0.1)">
       <defs>
        <path id="DejaVuSans-1a" d="M 525 4666 
L 3525 4666 
L 3525 4397 
L 1831 0 
L 1172 0 
L 2766 4134 
L 525 4134 
L 525 4666 
z
" transform="scale(0.015625)"/>
       </defs>
       <use xlink:href="#DejaVuSans-1a"/>
      </g>
     </g>
    </g>
    <g id="ytick_9">
     <g id="line2d_25">
      <path d="M 38.602344 42.692562 
L 709.2 42.692562 
" clip-path="url(#p6ea6b7769a)" style="fill: none; stroke-dasharray: 1.85,0.8; stroke-dashoffset: 0; stroke: #b0b0b0; stroke-width: 0.5"/>
     </g>
     <g id="line2d_26">
      <g>
       <use xlink:href="#m56615364dc" x="38.602344" y="42.692562" style="stroke: #000000; stroke-width: 0.8"/>
      </g>
     </g>
     <g id="text_14">
      <!-- 8 -->
      <g transform="translate(25.239844 46.491391) scale(0.1 -0.1)">
       <defs>
        <path id="DejaVuSans-1b" d="M 2034 2216 
Q 1584 2216 1326 1975 
Q 1069 1734 1069 1313 
Q 1069 891 1326 650 
Q 1584 409 2034 409 
Q 2484 409 2743 651 
Q 3003 894 3003 1313 
Q 3003 1734 2745 1975 
Q 2488 2216 2034 2216 
z
M 1403 2484 
Q 997 2584 770 2862 
Q 544 3141 544 3541 
Q 544 4100 942 4425 
Q 1341 4750 2034 4750 
Q 2731 4750 3128 4425 
Q 3525 4100 3525 3541 
Q 3525 3141 3298 2862 
Q 3072 2584 2669 2484 
Q 3125 2378 3379 2068 
Q 3634 1759 3634 1313 
Q 3634 634 3220 271 
Q 2806 -91 2034 -91 
Q 1263 -91 848 271 
Q 434 634 434 1313 
Q 434 1759 690 2068 
Q 947 2378 1403 2484 
z
M 1172 3481 
Q 1172 3119 1398 2916 
Q 1625 2713 2034 2713 
Q 2441 2713 2670 2916 
Q 2900 3119 2900 3481 
Q 2900 3844 2670 4047 
Q 2441 4250 2034 4250 
Q 1625 4250 1398 4047 
Q 1172 3844 1172 3481 
z
" transform="scale(0.015625)"/>
       </defs>
       <use xlink:href="#DejaVuSans-1b"/>
      </g>
     </g>
    </g>
    <g id="text_15">
     <!-- Entropy (bits/byte) -->
     <g transform="translate(18.8375 254.918828) rotate(-90) scale(0.1 -0.1)">
      <defs>
       <path id="DejaVuSans-28" d="M 628 4666 
L 3578 4666 
L 3578 4134 
L 1259 4134 
L 1259 2753 
L 3481 2753 
L 3481 2222 
L 1259 2222 
L 1259 531 
L 3634 531 
L 3634 0 
L 628 0 
L 628 4666 
z
" transform="scale(0.015625)"/>
       <path id="DejaVuSans-5c" d="M 2059 -325 
Q 1816 -950 1584 -1140 
Q 1353 -1331 966 -1331 
L 506 -1331 
L 506 -850 
L 844 -850 
Q 1081 -850 1212 -737 
Q 1344 -625 1503 -206 
L 1606 56 
L 191 3500 
L 800 3500 
L 1894 763 
L 2988 3500 
L 3597 3500 
L 2059 -325 
z
" transform="scale(0.015625)"/>
       <path id="DejaVuSans-45" d="M 3116 1747 
Q 3116 2381 2855 2742 
Q 2594 3103 2138 3103 
Q 1681 3103 1420 2742 
Q 1159 2381 1159 1747 
Q 1159 1113 1420 752 
Q 1681 391 2138 391 
Q 2594 391 2855 752 
Q 3116 1113 3116 1747 
z
M 1159 2969 
Q 1341 3281 1617 3432 
Q 1894 3584 2278 3584 
Q 2916 3584 3314 3078 
Q 3713 2572 3713 1747 
Q 3713 922 3314 415 
Q 2916 -91 2278 -91 
Q 1894 -91 1617 61 
Q 1341 213 1159 525 
L 1159 0 
L 581 0 
L 581 4863 
L 1159 4863 
L 1159 2969 
z
" transform="scale(0.015625)"/>
      </defs>
      <use xlink:href="#DejaVuSans-28"/>
      <use xlink:href="#DejaVuSans-51" transform="translate(63.1875 0)"/>
      <use xlink:href="#DejaVuSans-57" transform="translate(126.5625 0)"/>
      <use xlink:href="#DejaVuSans-55" transform="translate(165.765625 0)"/>
      <use xlink:href="#DejaVuSans-52" transform="translate(204.671875 0)"/>
      <use xlink:href="#DejaVuSans-53" transform="translate(265.859375 0)"/>
      <use xlink:href="#DejaVuSans-5c" transform="translate(329.34375 0)"/>
      <use xlink:href="#DejaVuSans-3" transform="translate(388.53125 0)"/>
      <use xlink:href="#DejaVuSans-b" transform="translate(420.3125 0)"/>
      <use xlink:href="#DejaVuSans-45" transform="translate(459.328125 0)"/>
      <use xlink:href="#DejaVuSans-4c" transform="translate(522.8125 0)"/>
      <use xlink:href="#DejaVuSans-57" transform="translate(550.59375 0)"/>
      <use xlink:href="#DejaVuSans-56" transform="translate(589.796875 0)"/>
      <use xlink:href="#DejaVuSans-12" transform="translate(641.890625 0)"/>
      <use xlink:href="#DejaVuSans-45" transform="translate(675.578125 0)"/>
      <use xlink:href="#DejaVuSans-5c" transform="translate(739.0625 0)"/>
      <use xlink:href="#DejaVuSans-57" transform="translate(798.25 0)"/>
      <use xlink:href="#DejaVuSans-48" transform="translate(837.453125 0)"/>
      <use xlink:href="#DejaVuSans-c" transform="translate(898.984375 0)"/>
     </g>
    </g>
   </g>
   <g id="line2d_27">
    <path d="M 78.239305 373.345036 
L 73.661663 373.345036 
L 71.372842 373.345036 
L 70.228431 373.345036 
L 69.656226 373.345036 
L 69.370123 373.345036 
L 69.227072 373.345036 
L 69.155546 373.345036 
L 69.119783 373.345036 
L 69.101902 373.345036 
L 69.092961 373.345036 
L 69.088491 373.345036 
L 69.086256 373.345036 
L 69.085138 373.345036 
L 69.084579 373.345036 
L 69.0843 373.345036 
L 69.08416 373.345036 
L 69.08409 373.345036 
L 69.084055 373.345036 
" clip-path="url(#p6ea6b7769a)" style="fill: none; stroke: #1f77b4; stroke-width: 1.5; stroke-linecap: square"/>
    <defs>
     <path id="me3bd712b41" d="M 0 3 
C 0.795609 3 1.55874 2.683901 2.12132 2.12132 
C 2.683901 1.55874 3 0.795609 3 0 
C 3 -0.795609 2.683901 -1.55874 2.12132 -2.12132 
C 1.55874 -2.683901 0.795609 -3 0 -3 
C -0.795609 -3 -1.55874 -2.683901 -2.12132 -2.12132 
C -2.683901 -1.55874 -3 -0.795609 -3 0 
C -3 0.795609 -2.683901 1.55874 -2.12132 2.12132 
C -1.55874 2.683901 -0.795609 3 0 3 
z
" style="stroke: #1f77b4"/>
    </defs>
    <g clip-path="url(#p6ea6b7769a)">
     <use xlink:href="#me3bd712b41" x="78.239305" y="373.345036" style="fill: #1f77b4; stroke: #1f77b4"/>
     <use xlink:href="#me3bd712b41" x="73.661663" y="373.345036" style="fill: #1f77b4; stroke: #1f77b4"/>
     <use xlink:href="#me3bd712b41" x="71.372842" y="373.345036" style="fill: #1f77b4; stroke: #1f77b4"/>
     <use xlink:href="#me3bd712b41" x="70.228431" y="373.345036" style="fill: #1f77b4; stroke: #1f77b4"/>
     <use xlink:href="#me3bd712b41" x="69.656226" y="373.345036" style="fill: #1f77b4; stroke: #1f77b4"/>
     <use xlink:href="#me3bd712b41" x="69.370123" y="373.345036" style="fill: #1f77b4; stroke: #1f77b4"/>
     <use xlink:href="#me3bd712b41" x="69.227072" y="373.345036" style="fill: #1f77b4; stroke: #1f77b4"/>
     <use xlink:href="#me3bd712b41" x="69.155546" y="373.345036" style="fill: #1f77b4; stroke: #1f77b4"/>
     <use xlink:href="#me3bd712b41" x="69.119783" y="373.345036" style="fill: #1f77b4; stroke: #1f77b4"/>
     <use xlink:href="#me3bd712b41" x="69.101902" y="373.345036" style="fill: #1f77b4; stroke: #1f77b4"/>
     <use xlink:href="#me3bd712b41" x="69.092961" y="373.345036" style="fill: #1f77b4; stroke: #1f77b4"/>
     <use xlink:href="#me3bd712b41" x="69.088491" y="373.345036" style="fill: #1f77b4; stroke: #1f77b4"/>
     <use xlink:href="#me3bd712b41" x="69.086256" y="373.345036" style="fill: #1f77b4; stroke: #1f77b4"/>
     <use xlink:href="#me3bd712b41" x="69.085138" y="373.345036" style="fill: #1f77b4; stroke: #1f77b4"/>
     <use xlink:href="#me3bd712b41" x="69.084579" y="373.345036" style="fill: #1f77b4; stroke: #1f77b4"/>
     <use xlink:href="#me3bd712b41" x="69.0843" y="373.345036" style="fill: #1f77b4; stroke: #1f77b4"/>
     <use xlink:href="#me3bd712b41" x="69.08416" y="373.345036" style="fill: #1f77b4; stroke: #1f77b4"/>
     <use xlink:href="#me3bd712b41" x="69.08409" y="373.345036" style="fill: #1f77b4; stroke: #1f77b4"/>
     <use xlink:href="#me3bd712b41" x="69.084055" y="373.345036" style="fill: #1f77b4; stroke: #1f77b4"/>
    </g>
   </g>
   <g id="line2d_28">
    <path d="M 79.316398 332.013476 
L 74.200209 332.013476 
L 71.642115 332.013476 
L 70.363068 332.013476 
L 69.723544 332.013476 
L 69.403782 332.013476 
L 69.243901 332.013476 
L 69.163961 332.013476 
L 69.123991 332.013476 
L 69.104006 332.013476 
L 69.094013 332.013476 
L 69.089017 332.013476 
L 69.086519 332.013476 
L 69.08527 332.013476 
L 69.084645 332.013476 
L 69.084333 332.013476 
L 69.084177 332.013476 
L 69.084099 332.013476 
L 69.08406 332.013476 
" clip-path="url(#p6ea6b7769a)" style="fill: none; stroke: #ff7f0e; stroke-width: 1.5; stroke-linecap: square"/>
    <defs>
     <path id="m23f293b694" d="M 0 3 
C 0.795609 3 1.55874 2.683901 2.12132 2.12132 
C 2.683901 1.55874 3 0.795609 3 0 
C 3 -0.795609 2.683901 -1.55874 2.12132 -2.12132 
C 1.55874 -2.683901 0.795609 -3 0 -3 
C -0.795609 -3 -1.55874 -2.683901 -2.12132 -2.12132 
C -2.683901 -1.55874 -3 -0.795609 -3 0 
C -3 0.795609 -2.683901 1.55874 -2.12132 2.12132 
C -1.55874 2.683901 -0.795609 3 0 3 
z
" style="stroke: #ff7f0e"/>
    </defs>
    <g clip-path="url(#p6ea6b7769a)">
     <use xlink:href="#m23f293b694" x="79.316398" y="332.013476" style="fill: #ff7f0e; stroke: #ff7f0e"/>
     <use xlink:href="#m23f293b694" x="74.200209" y="332.013476" style="fill: #ff7f0e; stroke: #ff7f0e"/>
     <use xlink:href="#m23f293b694" x="71.642115" y="332.013476" style="fill: #ff7f0e; stroke: #ff7f0e"/>
     <use xlink:href="#m23f293b694" x="70.363068" y="332.013476" style="fill: #ff7f0e; stroke: #ff7f0e"/>
     <use xlink:href="#m23f293b694" x="69.723544" y="332.013476" style="fill: #ff7f0e; stroke: #ff7f0e"/>
     <use xlink:href="#m23f293b694" x="69.403782" y="332.013476" style="fill: #ff7f0e; stroke: #ff7f0e"/>
     <use xlink:href="#m23f293b694" x="69.243901" y="332.013476" style="fill: #ff7f0e; stroke: #ff7f0e"/>
     <use xlink:href="#m23f293b694" x="69.163961" y="332.013476" style="fill: #ff7f0e; stroke: #ff7f0e"/>
     <use xlink:href="#m23f293b694" x="69.123991" y="332.013476" style="fill: #ff7f0e; stroke: #ff7f0e"/>
     <use xlink:href="#m23f293b694" x="69.104006" y="332.013476" style="fill: #ff7f0e; stroke: #ff7f0e"/>
     <use xlink:href="#m23f293b694" x="69.094013" y="332.013476" style="fill: #ff7f0e; stroke: #ff7f0e"/>
     <use xlink:href="#m23f293b694" x="69.089017" y="332.013476" style="fill: #ff7f0e; stroke: #ff7f0e"/>
     <use xlink:href="#m23f293b694" x="69.086519" y="332.013476" style="fill: #ff7f0e; stroke: #ff7f0e"/>
     <use xlink:href="#m23f293b694" x="69.08527" y="332.013476" style="fill: #ff7f0e; stroke: #ff7f0e"/>
     <use xlink:href="#m23f293b694" x="69.084645" y="332.013476" style="fill: #ff7f0e; stroke: #ff7f0e"/>
     <use xlink:href="#m23f293b694" x="69.084333" y="332.013476" style="fill: #ff7f0e; stroke: #ff7f0e"/>
     <use xlink:href="#m23f293b694" x="69.084177" y="332.013476" style="fill: #ff7f0e; stroke: #ff7f0e"/>
     <use xlink:href="#m23f293b694" x="69.084099" y="332.013476" style="fill: #ff7f0e; stroke: #ff7f0e"/>
     <use xlink:href="#m23f293b694" x="69.08406" y="332.013476" style="fill: #ff7f0e; stroke: #ff7f0e"/>
    </g>
   </g>
   <g id="line2d_29">
    <path d="M 115.937538 290.681917 
L 109.744257 290.681917 
L 106.647616 290.681917 
L 105.099296 290.681917 
L 104.325136 290.681917 
L 103.938056 290.681917 
L 103.744516 290.681917 
L 103.647746 290.681917 
L 103.599361 290.681917 
L 103.575168 290.681917 
L 103.563072 290.681917 
L 103.557024 290.681917 
L 103.554 290.681917 
L 103.552488 290.681917 
L 103.551732 290.681917 
L 103.551354 290.681917 
L 103.551165 290.681917 
L 103.55107 290.681917 
L 103.551023 290.681917 
" clip-path="url(#p6ea6b7769a)" style="fill: none; stroke: #2ca02c; stroke-width: 1.5; stroke-linecap: square"/>
    <defs>
     <path id="m9926224242" d="M 0 3 
C 0.795609 3 1.55874 2.683901 2.12132 2.12132 
C 2.683901 1.55874 3 0.795609 3 0 
C 3 -0.795609 2.683901 -1.55874 2.12132 -2.12132 
C 1.55874 -2.683901 0.795609 -3 0 -3 
C -0.795609 -3 -1.55874 -2.683901 -2.12132 -2.12132 
C -2.683901 -1.55874 -3 -0.795609 -3 0 
C -3 0.795609 -2.683901 1.55874 -2.12132 2.12132 
C -1.55874 2.683901 -0.795609 3 0 3 
z
" style="stroke: #2ca02c"/>
    </defs>
    <g clip-path="url(#p6ea6b7769a)">
     <use xlink:href="#m9926224242" x="115.937538" y="290.681917" style="fill: #2ca02c; stroke: #2ca02c"/>
     <use xlink:href="#m9926224242" x="109.744257" y="290.681917" style="fill: #2ca02c; stroke: #2ca02c"/>
     <use xlink:href="#m9926224242" x="106.647616" y="290.681917" style="fill: #2ca02c; stroke: #2ca02c"/>
     <use xlink:href="#m9926224242" x="105.099296" y="290.681917" style="fill: #2ca02c; stroke: #2ca02c"/>
     <use xlink:href="#m9926224242" x="104.325136" y="290.681917" style="fill: #2ca02c; stroke: #2ca02c"/>
     <use xlink:href="#m9926224242" x="103.938056" y="290.681917" style="fill: #2ca02c; stroke: #2ca02c"/>
     <use xlink:href="#m9926224242" x="103.744516" y="290.681917" style="fill: #2ca02c; stroke: #2ca02c"/>
     <use xlink:href="#m9926224242" x="103.647746" y="290.681917" style="fill: #2ca02c; stroke: #2ca02c"/>
     <use xlink:href="#m9926224242" x="103.599361" y="290.681917" style="fill: #2ca02c; stroke: #2ca02c"/>
     <use xlink:href="#m9926224242" x="103.575168" y="290.681917" style="fill: #2ca02c; stroke: #2ca02c"/>
     <use xlink:href="#m9926224242" x="103.563072" y="290.681917" style="fill: #2ca02c; stroke: #2ca02c"/>
     <use xlink:href="#m9926224242" x="103.557024" y="290.681917" style="fill: #2ca02c; stroke: #2ca02c"/>
     <use xlink:href="#m9926224242" x="103.554" y="290.681917" style="fill: #2ca02c; stroke: #2ca02c"/>
     <use xlink:href="#m9926224242" x="103.552488" y="290.681917" style="fill: #2ca02c; stroke: #2ca02c"/>
     <use xlink:href="#m9926224242" x="103.551732" y="290.681917" style="fill: #2ca02c; stroke: #2ca02c"/>
     <use xlink:href="#m9926224242" x="103.551354" y="290.681917" style="fill: #2ca02c; stroke: #2ca02c"/>
     <use xlink:href="#m9926224242" x="103.551165" y="290.681917" style="fill: #2ca02c; stroke: #2ca02c"/>
     <use xlink:href="#m9926224242" x="103.55107" y="290.681917" style="fill: #2ca02c; stroke: #2ca02c"/>
     <use xlink:href="#m9926224242" x="103.551023" y="290.681917" style="fill: #2ca02c; stroke: #2ca02c"/>
    </g>
   </g>
   <g id="line2d_30">
    <path d="M 155.789954 249.350358 
L 146.903942 249.350358 
L 142.460937 249.350358 
L 140.239434 249.350358 
L 139.128682 249.350358 
L 138.573306 249.350358 
L 138.295618 249.350358 
L 138.156775 249.350358 
L 138.087353 249.350358 
L 138.052642 249.350358 
L 138.035286 249.350358 
L 138.026608 249.350358 
L 138.022269 249.350358 
L 138.0201 249.350358 
L 138.019015 249.350358 
L 138.018473 249.350358 
L 138.018202 249.350358 
L 138.018066 249.350358 
L 138.017998 249.350358 
" clip-path="url(#p6ea6b7769a)" style="fill: none; stroke: #d62728; stroke-width: 1.5; stroke-linecap: square"/>
    <defs>
     <path id="m507a83e0f1" d="M 0 3 
C 0.795609 3 1.55874 2.683901 2.12132 2.12132 
C 2.683901 1.55874 3 0.795609 3 0 
C 3 -0.795609 2.683901 -1.55874 2.12132 -2.12132 
C 1.55874 -2.683901 0.795609 -3 0 -3 
C -0.795609 -3 -1.55874 -2.683901 -2.12132 -2.12132 
C -2.683901 -1.55874 -3 -0.795609 -3 0 
C -3 0.795609 -2.683901 1.55874 -2.12132 2.12132 
C -1.55874 2.683901 -0.795609 3 0 3 
z
" style="stroke: #d62728"/>
    </defs>
    <g clip-path="url(#p6ea6b7769a)">
     <use xlink:href="#m507a83e0f1" x="155.789954" y="249.350358" style="fill: #d62728; stroke: #d62728"/>
     <use xlink:href="#m507a83e0f1" x="146.903942" y="249.350358" style="fill: #d62728; stroke: #d62728"/>
     <use xlink:href="#m507a83e0f1" x="142.460937" y="249.350358" style="fill: #d62728; stroke: #d62728"/>
     <use xlink:href="#m507a83e0f1" x="140.239434" y="249.350358" style="fill: #d62728; stroke: #d62728"/>
     <use xlink:href="#m507a83e0f1" x="139.128682" y="249.350358" style="fill: #d62728; stroke: #d62728"/>
     <use xlink:href="#m507a83e0f1" x="138.573306" y="249.350358" style="fill: #d62728; stroke: #d62728"/>
     <use xlink:href="#m507a83e0f1" x="138.295618" y="249.350358" style="fill: #d62728; stroke: #d62728"/>
     <use xlink:href="#m507a83e0f1" x="138.156775" y="249.350358" style="fill: #d62728; stroke: #d62728"/>
     <use xlink:href="#m507a83e0f1" x="138.087353" y="249.350358" style="fill: #d62728; stroke: #d62728"/>
     <use xlink:href="#m507a83e0f1" x="138.052642" y="249.350358" style="fill: #d62728; stroke: #d62728"/>
     <use xlink:href="#m507a83e0f1" x="138.035286" y="249.350358" style="fill: #d62728; stroke: #d62728"/>
     <use xlink:href="#m507a83e0f1" x="138.026608" y="249.350358" style="fill: #d62728; stroke: #d62728"/>
     <use xlink:href="#m507a83e0f1" x="138.022269" y="249.350358" style="fill: #d62728; stroke: #d62728"/>
     <use xlink:href="#m507a83e0f1" x="138.0201" y="249.350358" style="fill: #d62728; stroke: #d62728"/>
     <use xlink:href="#m507a83e0f1" x="138.019015" y="249.350358" style="fill: #d62728; stroke: #d62728"/>
     <use xlink:href="#m507a83e0f1" x="138.018473" y="249.350358" style="fill: #d62728; stroke: #d62728"/>
     <use xlink:href="#m507a83e0f1" x="138.018202" y="249.350358" style="fill: #d62728; stroke: #d62728"/>
     <use xlink:href="#m507a83e0f1" x="138.018066" y="249.350358" style="fill: #d62728; stroke: #d62728"/>
     <use xlink:href="#m507a83e0f1" x="138.017998" y="249.350358" style="fill: #d62728; stroke: #d62728"/>
    </g>
   </g>
   <g id="line2d_31">
    <path d="M 201.566379 208.018799 
L 187.025632 208.018799 
L 179.755259 208.018799 
L 176.120072 208.018799 
L 174.302479 208.018799 
L 173.393682 208.018799 
L 172.939284 208.018799 
L 172.712085 208.018799 
L 172.598485 208.018799 
L 172.541685 208.018799 
L 172.513286 208.018799 
L 172.499086 208.018799 
L 172.491986 208.018799 
L 172.488436 208.018799 
L 172.486661 208.018799 
L 172.485773 208.018799 
L 172.485329 208.018799 
L 172.485108 208.018799 
L 172.484997 208.018799 
" clip-path="url(#p6ea6b7769a)" style="fill: none; stroke: #9467bd; stroke-width: 1.5; stroke-linecap: square"/>
    <defs>
     <path id="maa148bcc5d" d="M 0 3 
C 0.795609 3 1.55874 2.683901 2.12132 2.12132 
C 2.683901 1.55874 3 0.795609 3 0 
C 3 -0.795609 2.683901 -1.55874 2.12132 -2.12132 
C 1.55874 -2.683901 0.795609 -3 0 -3 
C -0.795609 -3 -1.55874 -2.683901 -2.12132 -2.12132 
C -2.683901 -1.55874 -3 -0.795609 -3 0 
C -3 0.795609 -2.683901 1.55874 -2.12132 2.12132 
C -1.55874 2.683901 -0.795609 3 0 3 
z
" style="stroke: #9467bd"/>
    </defs>
    <g clip-path="url(#p6ea6b7769a)">
     <use xlink:href="#maa148bcc5d" x="201.566379" y="208.018799" style="fill: #9467bd; stroke: #9467bd"/>
     <use xlink:href="#maa148bcc5d" x="187.025632" y="208.018799" style="fill: #9467bd; stroke: #9467bd"/>
     <use xlink:href="#maa148bcc5d" x="179.755259" y="208.018799" style="fill: #9467bd; stroke: #9467bd"/>
     <use xlink:href="#maa148bcc5d" x="176.120072" y="208.018799" style="fill: #9467bd; stroke: #9467bd"/>
     <use xlink:href="#maa148bcc5d" x="174.302479" y="208.018799" style="fill: #9467bd; stroke: #9467bd"/>
     <use xlink:href="#maa148bcc5d" x="173.393682" y="208.018799" style="fill: #9467bd; stroke: #9467bd"/>
     <use xlink:href="#maa148bcc5d" x="172.939284" y="208.018799" style="fill: #9467bd; stroke: #9467bd"/>
     <use xlink:href="#maa148bcc5d" x="172.712085" y="208.018799" style="fill: #9467bd; stroke: #9467bd"/>
     <use xlink:href="#maa148bcc5d" x="172.598485" y="208.018799" style="fill: #9467bd; stroke: #9467bd"/>
     <use xlink:href="#maa148bcc5d" x="172.541685" y="208.018799" style="fill: #9467bd; stroke: #9467bd"/>
     <use xlink:href="#maa148bcc5d" x="172.513286" y="208.018799" style="fill: #9467bd; stroke: #9467bd"/>
     <use xlink:href="#maa148bcc5d" x="172.499086" y="208.018799" style="fill: #9467bd; stroke: #9467bd"/>
     <use xlink:href="#maa148bcc5d" x="172.491986" y="208.018799" style="fill: #9467bd; stroke: #9467bd"/>
     <use xlink:href="#maa148bcc5d" x="172.488436" y="208.018799" style="fill: #9467bd; stroke: #9467bd"/>
     <use xlink:href="#maa148bcc5d" x="172.486661" y="208.018799" style="fill: #9467bd; stroke: #9467bd"/>
     <use xlink:href="#maa148bcc5d" x="172.485773" y="208.018799" style="fill: #9467bd; stroke: #9467bd"/>
     <use xlink:href="#maa148bcc5d" x="172.485329" y="208.018799" style="fill: #9467bd; stroke: #9467bd"/>
     <use xlink:href="#maa148bcc5d" x="172.485108" y="208.018799" style="fill: #9467bd; stroke: #9467bd"/>
     <use xlink:href="#maa148bcc5d" x="172.484997" y="208.018799" style="fill: #9467bd; stroke: #9467bd"/>
    </g>
   </g>
   <g id="line2d_32">
    <path d="M 259.729366 166.68724 
L 233.340603 166.68724 
L 220.146222 166.68724 
L 213.549031 166.68724 
L 210.250436 166.68724 
L 208.601138 166.68724 
L 207.77649 166.68724 
L 207.364165 166.68724 
L 207.158003 166.68724 
L 207.054922 166.68724 
L 207.003381 166.68724 
L 206.977611 166.68724 
L 206.964726 166.68724 
L 206.958283 166.68724 
L 206.955062 166.68724 
L 206.953451 166.68724 
L 206.952646 166.68724 
L 206.952243 166.68724 
L 206.952042 166.68724 
" clip-path="url(#p6ea6b7769a)" style="fill: none; stroke: #8c564b; stroke-width: 1.5; stroke-linecap: square"/>
    <defs>
     <path id="mb8e881a6f0" d="M 0 3 
C 0.795609 3 1.55874 2.683901 2.12132 2.12132 
C 2.683901 1.55874 3 0.795609 3 0 
C 3 -0.795609 2.683901 -1.55874 2.12132 -2.12132 
C 1.55874 -2.683901 0.795609 -3 0 -3 
C -0.795609 -3 -1.55874 -2.683901 -2.12132 -2.12132 
C -2.683901 -1.55874 -3 -0.795609 -3 0 
C -3 0.795609 -2.683901 1.55874 -2.12132 2.12132 
C -1.55874 2.683901 -0.795609 3 0 3 
z
" style="stroke: #8c564b"/>
    </defs>
    <g clip-path="url(#p6ea6b7769a)">
     <use xlink:href="#mb8e881a6f0" x="259.729366" y="166.68724" style="fill: #8c564b; stroke: #8c564b"/>
     <use xlink:href="#mb8e881a6f0" x="233.340603" y="166.68724" style="fill: #8c564b; stroke: #8c564b"/>
     <use xlink:href="#mb8e881a6f0" x="220.146222" y="166.68724" style="fill: #8c564b; stroke: #8c564b"/>
     <use xlink:href="#mb8e881a6f0" x="213.549031" y="166.68724" style="fill: #8c564b; stroke: #8c564b"/>
     <use xlink:href="#mb8e881a6f0" x="210.250436" y="166.68724" style="fill: #8c564b; stroke: #8c564b"/>
     <use xlink:href="#mb8e881a6f0" x="208.601138" y="166.68724" style="fill: #8c564b; stroke: #8c564b"/>
     <use xlink:href="#mb8e881a6f0" x="207.77649" y="166.68724" style="fill: #8c564b; stroke: #8c564b"/>
     <use xlink:href="#mb8e881a6f0" x="207.364165" y="166.68724" style="fill: #8c564b; stroke: #8c564b"/>
     <use xlink:href="#mb8e881a6f0" x="207.158003" y="166.68724" style="fill: #8c564b; stroke: #8c564b"/>
     <use xlink:href="#mb8e881a6f0" x="207.054922" y="166.68724" style="fill: #8c564b; stroke: #8c564b"/>
     <use xlink:href="#mb8e881a6f0" x="207.003381" y="166.68724" style="fill: #8c564b; stroke: #8c564b"/>
     <use xlink:href="#mb8e881a6f0" x="206.977611" y="166.68724" style="fill: #8c564b; stroke: #8c564b"/>
     <use xlink:href="#mb8e881a6f0" x="206.964726" y="166.68724" style="fill: #8c564b; stroke: #8c564b"/>
     <use xlink:href="#mb8e881a6f0" x="206.958283" y="166.68724" style="fill: #8c564b; stroke: #8c564b"/>
     <use xlink:href="#mb8e881a6f0" x="206.955062" y="166.68724" style="fill: #8c564b; stroke: #8c564b"/>
     <use xlink:href="#mb8e881a6f0" x="206.953451" y="166.68724" style="fill: #8c564b; stroke: #8c564b"/>
     <use xlink:href="#mb8e881a6f0" x="206.952646" y="166.68724" style="fill: #8c564b; stroke: #8c564b"/>
     <use xlink:href="#mb8e881a6f0" x="206.952243" y="166.68724" style="fill: #8c564b; stroke: #8c564b"/>
     <use xlink:href="#mb8e881a6f0" x="206.952042" y="166.68724" style="fill: #8c564b; stroke: #8c564b"/>
    </g>
   </g>
   <g id="line2d_33">
    <path d="M 678.718288 58.373521 
L 513.653886 49.88644 
L 413.888208 46.98638 
L 362.457048 44.732389 
L 336.640491 43.580642 
L 323.513428 43.225715 
L 316.933067 42.945222 
L 313.642887 42.80978 
L 311.997796 42.747119 
L 311.175251 42.71742 
L 310.763979 42.706035 
L 310.558342 42.699245 
L 310.455524 42.696287 
L 310.404115 42.694182 
L 310.378411 42.693485 
L 310.365558 42.69301 
L 310.359132 42.692787 
L 310.355919 42.692665 
L 310.354313 42.692621 
" clip-path="url(#p6ea6b7769a)" style="fill: none; stroke: #e377c2; stroke-width: 1.5; stroke-linecap: square"/>
    <defs>
     <path id="md842d0c452" d="M 0 3 
C 0.795609 3 1.55874 2.683901 2.12132 2.12132 
C 2.683901 1.55874 3 0.795609 3 0 
C 3 -0.795609 2.683901 -1.55874 2.12132 -2.12132 
C 1.55874 -2.683901 0.795609 -3 0 -3 
C -0.795609 -3 -1.55874 -2.683901 -2.12132 -2.12132 
C -2.683901 -1.55874 -3 -0.795609 -3 0 
C -3 0.795609 -2.683901 1.55874 -2.12132 2.12132 
C -1.55874 2.683901 -0.795609 3 0 3 
z
" style="stroke: #e377c2"/>
    </defs>
    <g clip-path="url(#p6ea6b7769a)">
     <use xlink:href="#md842d0c452" x="678.718288" y="58.373521" style="fill: #e377c2; stroke: #e377c2"/>
     <use xlink:href="#md842d0c452" x="513.653886" y="49.88644" style="fill: #e377c2; stroke: #e377c2"/>
     <use xlink:href="#md842d0c452" x="413.888208" y="46.98638" style="fill: #e377c2; stroke: #e377c2"/>
     <use xlink:href="#md842d0c452" x="362.457048" y="44.732389" style="fill: #e377c2; stroke: #e377c2"/>
     <use xlink:href="#md842d0c452" x="336.640491" y="43.580642" style="fill: #e377c2; stroke: #e377c2"/>
     <use xlink:href="#md842d0c452" x="323.513428" y="43.225715" style="fill: #e377c2; stroke: #e377c2"/>
     <use xlink:href="#md842d0c452" x="316.933067" y="42.945222" style="fill: #e377c2; stroke: #e377c2"/>
     <use xlink:href="#md842d0c452" x="313.642887" y="42.80978" style="fill: #e377c2; stroke: #e377c2"/>
     <use xlink:href="#md842d0c452" x="311.997796" y="42.747119" style="fill: #e377c2; stroke: #e377c2"/>
     <use xlink:href="#md842d0c452" x="311.175251" y="42.71742" style="fill: #e377c2; stroke: #e377c2"/>
     <use xlink:href="#md842d0c452" x="310.763979" y="42.706035" style="fill: #e377c2; stroke: #e377c2"/>
     <use xlink:href="#md842d0c452" x="310.558342" y="42.699245" style="fill: #e377c2; stroke: #e377c2"/>
     <use xlink:href="#md842d0c452" x="310.455524" y="42.696287" style="fill: #e377c2; stroke: #e377c2"/>
     <use xlink:href="#md842d0c452" x="310.404115" y="42.694182" style="fill: #e377c2; stroke: #e377c2"/>
     <use xlink:href="#md842d0c452" x="310.378411" y="42.693485" style="fill: #e377c2; stroke: #e377c2"/>
     <use xlink:href="#md842d0c452" x="310.365558" y="42.69301" style="fill: #e377c2; stroke: #e377c2"/>
     <use xlink:href="#md842d0c452" x="310.359132" y="42.692787" style="fill: #e377c2; stroke: #e377c2"/>
     <use xlink:href="#md842d0c452" x="310.355919" y="42.692665" style="fill: #e377c2; stroke: #e377c2"/>
     <use xlink:href="#md842d0c452" x="310.354313" y="42.692621" style="fill: #e377c2; stroke: #e377c2"/>
    </g>
   </g>
   <g id="line2d_34">
    <path d="M 240.88025 192.963379 
L 213.145122 193.259413 
L 199.277558 193.561849 
L 192.545731 193.561064 
L 189.045181 193.656306 
L 187.345394 193.640876 
L 186.487086 193.648861 
L 186.057932 193.653893 
L 185.839148 193.65928 
L 185.732911 193.658572 
L 185.680319 193.658218 
L 185.65376 193.658388 
L 185.64048 193.658408 
L 185.633643 193.658582 
L 185.630323 193.65861 
L 185.628647 193.658627 
L 185.6278 193.658642 
L 185.627385 193.658646 
L 185.62717 193.658653 
" clip-path="url(#p6ea6b7769a)" style="fill: none; stroke: #7f7f7f; stroke-width: 1.5; stroke-linecap: square"/>
    <defs>
     <path id="m885a835e6c" d="M 0 3 
C 0.795609 3 1.55874 2.683901 2.12132 2.12132 
C 2.683901 1.55874 3 0.795609 3 0 
C 3 -0.795609 2.683901 -1.55874 2.12132 -2.12132 
C 1.55874 -2.683901 0.795609 -3 0 -3 
C -0.795609 -3 -1.55874 -2.683901 -2.12132 -2.12132 
C -2.683901 -1.55874 -3 -0.795609 -3 0 
C -3 0.795609 -2.683901 1.55874 -2.12132 2.12132 
C -1.55874 2.683901 -0.795609 3 0 3 
z
" style="stroke: #7f7f7f"/>
    </defs>
    <g clip-path="url(#p6ea6b7769a)">
     <use xlink:href="#m885a835e6c" x="240.88025" y="192.963379" style="fill: #7f7f7f; stroke: #7f7f7f"/>
     <use xlink:href="#m885a835e6c" x="213.145122" y="193.259413" style="fill: #7f7f7f; stroke: #7f7f7f"/>
     <use xlink:href="#m885a835e6c" x="199.277558" y="193.561849" style="fill: #7f7f7f; stroke: #7f7f7f"/>
     <use xlink:href="#m885a835e6c" x="192.545731" y="193.561064" style="fill: #7f7f7f; stroke: #7f7f7f"/>
     <use xlink:href="#m885a835e6c" x="189.045181" y="193.656306" style="fill: #7f7f7f; stroke: #7f7f7f"/>
     <use xlink:href="#m885a835e6c" x="187.345394" y="193.640876" style="fill: #7f7f7f; stroke: #7f7f7f"/>
     <use xlink:href="#m885a835e6c" x="186.487086" y="193.648861" style="fill: #7f7f7f; stroke: #7f7f7f"/>
     <use xlink:href="#m885a835e6c" x="186.057932" y="193.653893" style="fill: #7f7f7f; stroke: #7f7f7f"/>
     <use xlink:href="#m885a835e6c" x="185.839148" y="193.65928" style="fill: #7f7f7f; stroke: #7f7f7f"/>
     <use xlink:href="#m885a835e6c" x="185.732911" y="193.658572" style="fill: #7f7f7f; stroke: #7f7f7f"/>
     <use xlink:href="#m885a835e6c" x="185.680319" y="193.658218" style="fill: #7f7f7f; stroke: #7f7f7f"/>
     <use xlink:href="#m885a835e6c" x="185.65376" y="193.658388" style="fill: #7f7f7f; stroke: #7f7f7f"/>
     <use xlink:href="#m885a835e6c" x="185.64048" y="193.658408" style="fill: #7f7f7f; stroke: #7f7f7f"/>
     <use xlink:href="#m885a835e6c" x="185.633643" y="193.658582" style="fill: #7f7f7f; stroke: #7f7f7f"/>
     <use xlink:href="#m885a835e6c" x="185.630323" y="193.65861" style="fill: #7f7f7f; stroke: #7f7f7f"/>
     <use xlink:href="#m885a835e6c" x="185.628647" y="193.658627" style="fill: #7f7f7f; stroke: #7f7f7f"/>
     <use xlink:href="#m885a835e6c" x="185.6278" y="193.658642" style="fill: #7f7f7f; stroke: #7f7f7f"/>
     <use xlink:href="#m885a835e6c" x="185.627385" y="193.658646" style="fill: #7f7f7f; stroke: #7f7f7f"/>
     <use xlink:href="#m885a835e6c" x="185.62717" y="193.658653" style="fill: #7f7f7f; stroke: #7f7f7f"/>
    </g>
   </g>
   <g id="patch_3">
    <path d="M 38.602344 389.877656 
L 38.602344 26.16 
" style="fill: none; stroke: #000000; stroke-width: 0.8; stroke-linejoin: miter; stroke-linecap: square"/>
   </g>
   <g id="patch_4">
    <path d="M 709.2 389.877656 
L 709.2 26.16 
" style="fill: none; stroke: #000000; stroke-width: 0.8; stroke-linejoin: miter; stroke-linecap: square"/>
   </g>
   <g id="patch_5">
    <path d="M 38.602344 389.877656 
L 709.2 389.877656 
" style="fill: none; stroke: #000000; stroke-width: 0.8; stroke-linejoin: miter; stroke-linecap: square"/>
   </g>
   <g id="patch_6">
    <path d="M 38.602344 26.16 
L 709.2 26.16 
" style="fill: none; stroke: #000000; stroke-width: 0.8; stroke-linejoin: miter; stroke-linecap: square"/>
   </g>
   <g id="text_16">
    <g id="patch_7">
     <path d="M 610.170898 388.94048 
L 702.494023 388.94048 
Q 705.194023 388.94048 705.194023 386.24048 
L 705.194023 377.239777 
Q 705.194023 374.539777 702.494023 374.539777 
L 610.170898 374.539777 
Q 607.470898 374.539777 607.470898 377.239777 
L 607.470898 386.24048 
Q 607.470898 388.94048 610.170898 388.94048 
z
" style="fill: #ffffff; opacity: 0.7; stroke: #000000; stroke-linejoin: miter"/>
    </g>
    <!-- Min file size ≥ 512 B -->
    <g style="fill: #808080" transform="translate(610.170898 384.07837) scale(0.09 -0.09)">
     <defs>
      <path id="DejaVuSans-30" d="M 628 4666 
L 1569 4666 
L 2759 1491 
L 3956 4666 
L 4897 4666 
L 4897 0 
L 4281 0 
L 4281 4097 
L 3078 897 
L 2444 897 
L 1241 4097 
L 1241 0 
L 628 0 
L 628 4666 
z
" transform="scale(0.015625)"/>
      <path id="DejaVuSans-13af" d="M 3431 3500 
L 3431 0 
L 2853 0 
L 2853 3053 
L 1275 3053 
L 1275 0 
L 697 0 
L 697 3053 
L 147 3053 
L 147 3500 
L 697 3500 
L 697 3744 
Q 697 4316 967 4589 
Q 1238 4863 1797 4863 
L 2375 4863 
L 2375 4384 
L 1825 4384 
Q 1516 4384 1395 4259 
Q 1275 4134 1275 3809 
L 1275 3500 
L 3431 3500 
z
M 2853 4856 
L 3431 4856 
L 3431 4128 
L 2853 4128 
L 2853 4856 
z
" transform="scale(0.015625)"/>
      <path id="DejaVuSans-5d" d="M 353 3500 
L 3084 3500 
L 3084 2975 
L 922 459 
L 3084 459 
L 3084 0 
L 275 0 
L 275 525 
L 2438 3041 
L 353 3041 
L 353 3500 
z
" transform="scale(0.015625)"/>
      <path id="DejaVuSans-cef" d="M 678 3175 
L 678 3725 
L 4684 2578 
L 4684 2047 
L 678 897 
L 678 1453 
L 3681 2309 
L 678 3175 
z
M 4684 531 
L 4684 0 
L 678 0 
L 678 531 
L 4684 531 
z
" transform="scale(0.015625)"/>
      <path id="DejaVuSans-25" d="M 1259 2228 
L 1259 519 
L 2272 519 
Q 2781 519 3026 730 
Q 3272 941 3272 1375 
Q 3272 1813 3026 2020 
Q 2781 2228 2272 2228 
L 1259 2228 
z
M 1259 4147 
L 1259 2741 
L 2194 2741 
Q 2656 2741 2882 2914 
Q 3109 3088 3109 3444 
Q 3109 3797 2882 3972 
Q 2656 4147 2194 4147 
L 1259 4147 
z
M 628 4666 
L 2241 4666 
Q 2963 4666 3353 4366 
Q 3744 4066 3744 3513 
Q 3744 3084 3544 2831 
Q 3344 2578 2956 2516 
Q 3422 2416 3680 2098 
Q 3938 1781 3938 1306 
Q 3938 681 3513 340 
Q 3088 0 2303 0 
L 628 0 
L 628 4666 
z
" transform="scale(0.015625)"/>
     </defs>
     <use xlink:href="#DejaVuSans-30"/>
     <use xlink:href="#DejaVuSans-4c" transform="translate(86.28125 0)"/>
     <use xlink:href="#DejaVuSans-51" transform="translate(114.0625 0)"/>
     <use xlink:href="#DejaVuSans-3" transform="translate(177.4375 0)"/>
     <use xlink:href="#DejaVuSans-13af" transform="translate(209.21875 0)"/>
     <use xlink:href="#DejaVuSans-4f" transform="translate(272.203125 0)"/>
     <use xlink:href="#DejaVuSans-48" transform="translate(299.984375 0)"/>
     <use xlink:href="#DejaVuSans-3" transform="translate(361.515625 0)"/>
     <use xlink:href="#DejaVuSans-56" transform="translate(393.296875 0)"/>
     <use xlink:href="#DejaVuSans-4c" transform="translate(445.390625 0)"/>
     <use xlink:href="#DejaVuSans-5d" transform="translate(473.171875 0)"/>
     <use xlink:href="#DejaVuSans-48" transform="translate(525.65625 0)"/>
     <use xlink:href="#DejaVuSans-3" transform="translate(587.1875 0)"/>
     <use xlink:href="#DejaVuSans-cef" transform="translate(618.96875 0)"/>
     <use xlink:href="#DejaVuSans-3" transform="translate(702.765625 0)"/>
     <use xlink:href="#DejaVuSans-18" transform="translate(734.546875 0)"/>
     <use xlink:href="#DejaVuSans-14" transform="translate(798.171875 0)"/>
     <use xlink:href="#DejaVuSans-15" transform="translate(861.796875 0)"/>
     <use xlink:href="#DejaVuSans-3" transform="translate(925.421875 0)"/>
     <use xlink:href="#DejaVuSans-25" transform="translate(957.203125 0)"/>
    </g>
   </g>
   <g id="text_17">
    <!-- Compression ratio vs entropy -->
    <g transform="translate(285.524922 20.16) scale(0.12 -0.12)">
     <defs>
      <path id="DejaVuSans-59" d="M 191 3500 
L 800 3500 
L 1894 563 
L 2988 3500 
L 3597 3500 
L 2284 0 
L 1503 0 
L 191 3500 
z
" transform="scale(0.015625)"/>
     </defs>
     <use xlink:href="#DejaVuSans-26"/>
     <use xlink:href="#DejaVuSans-52" transform="translate(69.828125 0)"/>
     <use xlink:href="#DejaVuSans-50" transform="translate(131.015625 0)"/>
     <use xlink:href="#DejaVuSans-53" transform="translate(228.421875 0)"/>
     <use xlink:href="#DejaVuSans-55" transform="translate(291.90625 0)"/>
     <use xlink:href="#DejaVuSans-48" transform="translate(330.8125 0)"/>
     <use xlink:href="#DejaVuSans-56" transform="translate(392.34375 0)"/>
     <use xlink:href="#DejaVuSans-56" transform="translate(444.4375 0)"/>
     <use xlink:href="#DejaVuSans-4c" transform="translate(496.53125 0)"/>
     <use xlink:href="#DejaVuSans-52" transform="translate(524.3125 0)"/>
     <use xlink:href="#DejaVuSans-51" transform="translate(585.5 0)"/>
     <use xlink:href="#DejaVuSans-3" transform="translate(648.875 0)"/>
     <use xlink:href="#DejaVuSans-55" transform="translate(680.65625 0)"/>
     <use xlink:href="#DejaVuSans-44" transform="translate(721.765625 0)"/>
     <use xlink:href="#DejaVuSans-57" transform="translate(783.046875 0)"/>
     <use xlink:href="#DejaVuSans-4c" transform="translate(822.25 0)"/>
     <use xlink:href="#DejaVuSans-52" transform="translate(850.03125 0)"/>
     <use xlink:href="#DejaVuSans-3" transform="translate(911.21875 0)"/>
     <use xlink:href="#DejaVuSans-59" transform="translate(943 0)"/>
     <use xlink:href="#DejaVuSans-56" transform="translate(1002.1875 0)"/>
     <use xlink:href="#DejaVuSans-3" transform="translate(1054.28125 0)"/>
     <use xlink:href="#DejaVuSans-48" transform="translate(1086.0625 0)"/>
     <use xlink:href="#DejaVuSans-51" transform="translate(1147.59375 0)"/>
     <use xlink:href="#DejaVuSans-57" transform="translate(1210.96875 0)"/>
     <use xlink:href="#DejaVuSans-55" transform="translate(1250.171875 0)"/>
     <use xlink:href="#DejaVuSans-52" transform="translate(1289.078125 0)"/>
     <use xlink:href="#DejaVuSans-53" transform="translate(1350.265625 0)"/>
     <use xlink:href="#DejaVuSans-5c" transform="translate(1413.75 0)"/>
    </g>
   </g>
   <g id="legend_1">
    <g id="patch_8">
     <path d="M 45.602344 154.16625 
L 136.810156 154.16625 
Q 138.810156 154.16625 138.810156 152.16625 
L 138.810156 33.16 
Q 138.810156 31.16 136.810156 31.16 
L 45.602344 31.16 
Q 43.602344 31.16 43.602344 33.16 
L 43.602344 152.16625 
Q 43.602344 154.16625 45.602344 154.16625 
z
" style="fill: #ffffff; opacity: 0.8; stroke: #cccccc; stroke-linejoin: miter"/>
    </g>
    <g id="line2d_35">
     <path d="M 47.602344 39.258438 
L 57.602344 39.258438 
L 67.602344 39.258438 
" style="fill: none; stroke: #1f77b4; stroke-width: 1.5; stroke-linecap: square"/>
     <g>
      <use xlink:href="#me3bd712b41" x="57.602344" y="39.258438" style="fill: #1f77b4; stroke: #1f77b4"/>
     </g>
    </g>
    <g id="text_18">
     <!-- uniform -->
     <g transform="translate(75.602344 42.758438) scale(0.1 -0.1)">
      <defs>
       <path id="DejaVuSans-58" d="M 544 1381 
L 544 3500 
L 1119 3500 
L 1119 1403 
Q 1119 906 1312 657 
Q 1506 409 1894 409 
Q 2359 409 2629 706 
Q 2900 1003 2900 1516 
L 2900 3500 
L 3475 3500 
L 3475 0 
L 2900 0 
L 2900 538 
Q 2691 219 2414 64 
Q 2138 -91 1772 -91 
Q 1169 -91 856 284 
Q 544 659 544 1381 
z
M 1991 3584 
L 1991 3584 
z
" transform="scale(0.015625)"/>
       <path id="DejaVuSans-49" d="M 2375 4863 
L 2375 4384 
L 1825 4384 
Q 1516 4384 1395 4259 
Q 1275 4134 1275 3809 
L 1275 3500 
L 2222 3500 
L 2222 3053 
L 1275 3053 
L 1275 0 
L 697 0 
L 697 3053 
L 147 3053 
L 147 3500 
L 697 3500 
L 697 3744 
Q 697 4328 969 4595 
Q 1241 4863 1831 4863 
L 2375 4863 
z
" transform="scale(0.015625)"/>
      </defs>
      <use xlink:href="#DejaVuSans-58"/>
      <use xlink:href="#DejaVuSans-51" transform="translate(63.375 0)"/>
      <use xlink:href="#DejaVuSans-4c" transform="translate(126.75 0)"/>
      <use xlink:href="#DejaVuSans-49" transform="translate(154.53125 0)"/>
      <use xlink:href="#DejaVuSans-52" transform="translate(189.734375 0)"/>
      <use xlink:href="#DejaVuSans-55" transform="translate(250.921875 0)"/>
      <use xlink:href="#DejaVuSans-50" transform="translate(290.28125 0)"/>
     </g>
    </g>
    <g id="line2d_36">
     <path d="M 47.602344 54.259219 
L 57.602344 54.259219 
L 67.602344 54.259219 
" style="fill: none; stroke: #ff7f0e; stroke-width: 1.5; stroke-linecap: square"/>
     <g>
      <use xlink:href="#m23f293b694" x="57.602344" y="54.259219" style="fill: #ff7f0e; stroke: #ff7f0e"/>
     </g>
    </g>
    <g id="text_19">
     <!-- periodic2b -->
     <g transform="translate(75.602344 57.759219) scale(0.1 -0.1)">
      <use xlink:href="#DejaVuSans-53"/>
      <use xlink:href="#DejaVuSans-48" transform="translate(63.484375 0)"/>
      <use xlink:href="#DejaVuSans-55" transform="translate(125.015625 0)"/>
      <use xlink:href="#DejaVuSans-4c" transform="translate(166.125 0)"/>
      <use xlink:href="#DejaVuSans-52" transform="translate(193.90625 0)"/>
      <use xlink:href="#DejaVuSans-47" transform="translate(255.09375 0)"/>
      <use xlink:href="#DejaVuSans-4c" transform="translate(318.578125 0)"/>
      <use xlink:href="#DejaVuSans-46" transform="translate(346.359375 0)"/>
      <use xlink:href="#DejaVuSans-15" transform="translate(401.34375 0)"/>
      <use xlink:href="#DejaVuSans-45" transform="translate(464.96875 0)"/>
     </g>
    </g>
    <g id="line2d_37">
     <path d="M 47.602344 69.26 
L 57.602344 69.26 
L 67.602344 69.26 
" style="fill: none; stroke: #2ca02c; stroke-width: 1.5; stroke-linecap: square"/>
     <g>
      <use xlink:href="#m9926224242" x="57.602344" y="69.26" style="fill: #2ca02c; stroke: #2ca02c"/>
     </g>
    </g>
    <g id="text_20">
     <!-- periodic4b -->
     <g transform="translate(75.602344 72.76) scale(0.1 -0.1)">
      <use xlink:href="#DejaVuSans-53"/>
      <use xlink:href="#DejaVuSans-48" transform="translate(63.484375 0)"/>
      <use xlink:href="#DejaVuSans-55" transform="translate(125.015625 0)"/>
      <use xlink:href="#DejaVuSans-4c" transform="translate(166.125 0)"/>
      <use xlink:href="#DejaVuSans-52" transform="translate(193.90625 0)"/>
      <use xlink:href="#DejaVuSans-47" transform="translate(255.09375 0)"/>
      <use xlink:href="#DejaVuSans-4c" transform="translate(318.578125 0)"/>
      <use xlink:href="#DejaVuSans-46" transform="translate(346.359375 0)"/>
      <use xlink:href="#DejaVuSans-17" transform="translate(401.34375 0)"/>
      <use xlink:href="#DejaVuSans-45" transform="translate(464.96875 0)"/>
     </g>
    </g>
    <g id="line2d_38">
     <path d="M 47.602344 84.260781 
L 57.602344 84.260781 
L 67.602344 84.260781 
" style="fill: none; stroke: #d62728; stroke-width: 1.5; stroke-linecap: square"/>
     <g>
      <use xlink:href="#m507a83e0f1" x="57.602344" y="84.260781" style="fill: #d62728; stroke: #d62728"/>
     </g>
    </g>
    <g id="text_21">
     <!-- periodic8b -->
     <g transform="translate(75.602344 87.760781) scale(0.1 -0.1)">
      <use xlink:href="#DejaVuSans-53"/>
      <use xlink:href="#DejaVuSans-48" transform="translate(63.484375 0)"/>
      <use xlink:href="#DejaVuSans-55" transform="translate(125.015625 0)"/>
      <use xlink:href="#DejaVuSans-4c" transform="translate(166.125 0)"/>
      <use xlink:href="#DejaVuSans-52" transform="translate(193.90625 0)"/>
      <use xlink:href="#DejaVuSans-47" transform="translate(255.09375 0)"/>
      <use xlink:href="#DejaVuSans-4c" transform="translate(318.578125 0)"/>
      <use xlink:href="#DejaVuSans-46" transform="translate(346.359375 0)"/>
      <use xlink:href="#DejaVuSans-1b" transform="translate(401.34375 0)"/>
      <use xlink:href="#DejaVuSans-45" transform="translate(464.96875 0)"/>
     </g>
    </g>
    <g id="line2d_39">
     <path d="M 47.602344 99.261563 
L 57.602344 99.261563 
L 67.602344 99.261563 
" style="fill: none; stroke: #9467bd; stroke-width: 1.5; stroke-linecap: square"/>
     <g>
      <use xlink:href="#maa148bcc5d" x="57.602344" y="99.261563" style="fill: #9467bd; stroke: #9467bd"/>
     </g>
    </g>
    <g id="text_22">
     <!-- periodic16b -->
     <g transform="translate(75.602344 102.761563) scale(0.1 -0.1)">
      <use xlink:href="#DejaVuSans-53"/>
      <use xlink:href="#DejaVuSans-48" transform="translate(63.484375 0)"/>
      <use xlink:href="#DejaVuSans-55" transform="translate(125.015625 0)"/>
      <use xlink:href="#DejaVuSans-4c" transform="translate(166.125 0)"/>
      <use xlink:href="#DejaVuSans-52" transform="translate(193.90625 0)"/>
      <use xlink:href="#DejaVuSans-47" transform="translate(255.09375 0)"/>
      <use xlink:href="#DejaVuSans-4c" transform="translate(318.578125 0)"/>
      <use xlink:href="#DejaVuSans-46" transform="translate(346.359375 0)"/>
      <use xlink:href="#DejaVuSans-14" transform="translate(401.34375 0)"/>
      <use xlink:href="#DejaVuSans-19" transform="translate(464.96875 0)"/>
      <use xlink:href="#DejaVuSans-45" transform="translate(528.59375 0)"/>
     </g>
    </g>
    <g id="line2d_40">
     <path d="M 47.602344 114.262344 
L 57.602344 114.262344 
L 67.602344 114.262344 
" style="fill: none; stroke: #8c564b; stroke-width: 1.5; stroke-linecap: square"/>
     <g>
      <use xlink:href="#mb8e881a6f0" x="57.602344" y="114.262344" style="fill: #8c564b; stroke: #8c564b"/>
     </g>
    </g>
    <g id="text_23">
     <!-- periodic32b -->
     <g transform="translate(75.602344 117.762344) scale(0.1 -0.1)">
      <use xlink:href="#DejaVuSans-53"/>
      <use xlink:href="#DejaVuSans-48" transform="translate(63.484375 0)"/>
      <use xlink:href="#DejaVuSans-55" transform="translate(125.015625 0)"/>
      <use xlink:href="#DejaVuSans-4c" transform="translate(166.125 0)"/>
      <use xlink:href="#DejaVuSans-52" transform="translate(193.90625 0)"/>
      <use xlink:href="#DejaVuSans-47" transform="translate(255.09375 0)"/>
      <use xlink:href="#DejaVuSans-4c" transform="translate(318.578125 0)"/>
      <use xlink:href="#DejaVuSans-46" transform="translate(346.359375 0)"/>
      <use xlink:href="#DejaVuSans-16" transform="translate(401.34375 0)"/>
      <use xlink:href="#DejaVuSans-15" transform="translate(464.96875 0)"/>
      <use xlink:href="#DejaVuSans-45" transform="translate(528.59375 0)"/>
     </g>
    </g>
    <g id="line2d_41">
     <path d="M 47.602344 129.263125 
L 57.602344 129.263125 
L 67.602344 129.263125 
" style="fill: none; stroke: #e377c2; stroke-width: 1.5; stroke-linecap: square"/>
     <g>
      <use xlink:href="#md842d0c452" x="57.602344" y="129.263125" style="fill: #e377c2; stroke: #e377c2"/>
     </g>
    </g>
    <g id="text_24">
     <!-- random -->
     <g transform="translate(75.602344 132.763125) scale(0.1 -0.1)">
      <use xlink:href="#DejaVuSans-55"/>
      <use xlink:href="#DejaVuSans-44" transform="translate(41.109375 0)"/>
      <use xlink:href="#DejaVuSans-51" transform="translate(102.390625 0)"/>
      <use xlink:href="#DejaVuSans-47" transform="translate(165.765625 0)"/>
      <use xlink:href="#DejaVuSans-52" transform="translate(229.25 0)"/>
      <use xlink:href="#DejaVuSans-50" transform="translate(290.4375 0)"/>
     </g>
    </g>
    <g id="line2d_42">
     <path d="M 47.602344 144.263906 
L 57.602344 144.263906 
L 67.602344 144.263906 
" style="fill: none; stroke: #7f7f7f; stroke-width: 1.5; stroke-linecap: square"/>
     <g>
      <use xlink:href="#m885a835e6c" x="57.602344" y="144.263906" style="fill: #7f7f7f; stroke: #7f7f7f"/>
     </g>
    </g>
    <g id="text_25">
     <!-- text -->
     <g transform="translate(75.602344 147.763906) scale(0.1 -0.1)">
      <defs>
       <path id="DejaVuSans-5b" d="M 3513 3500 
L 2247 1797 
L 3578 0 
L 2900 0 
L 1881 1375 
L 863 0 
L 184 0 
L 1544 1831 
L 300 3500 
L 978 3500 
L 1906 2253 
L 2834 3500 
L 3513 3500 
z
" transform="scale(0.015625)"/>
      </defs>
      <use xlink:href="#DejaVuSans-57"/>
      <use xlink:href="#DejaVuSans-48" transform="translate(39.203125 0)"/>
      <use xlink:href="#DejaVuSans-5b" transform="translate(98.984375 0)"/>
      <use xlink:href="#DejaVuSans-57" transform="translate(158.171875 0)"/>
     </g>
    </g>
   </g>
  </g>
 </g>
 <defs>
  <clipPath id="p6ea6b7769a">
   <rect x="38.602344" y="26.16" width="670.597656" height="363.717656"/>
  </clipPath>
 </defs>
</svg>
