<?xml version="1.0" encoding="utf-8" standalone="no"?>
<!DOCTYPE svg PUBLIC "-//W3C//DTD SVG 1.1//EN"
  "http://www.w3.org/Graphics/SVG/1.1/DTD/svg11.dtd">
<svg xmlns:xlink="http://www.w3.org/1999/xlink" width="720pt" height="432pt" viewBox="0 0 720 432" xmlns="http://www.w3.org/2000/svg" version="1.1">
 <metadata>
  <rdf:RDF xmlns:dc="http://purl.org/dc/elements/1.1/" xmlns:cc="http://creativecommons.org/ns#" xmlns:rdf="http://www.w3.org/1999/02/22-rdf-syntax-ns#">
   <cc:Work>
    <dc:type rdf:resource="http://purl.org/dc/dcmitype/StillImage"/>
    <dc:date>2026-06-15T04:07:33.476302</dc:date>
    <dc:format>image/svg+xml</dc:format>
    <dc:creator>
     <cc:Agent>
      <dc:title>Matplotlib v3.11.0, https://matplotlib.org/</dc:title>
     </cc:Agent>
    </dc:creator>
   </cc:Work>
  </rdf:RDF>
 </metadata>
 <defs>
  <style type="text/css">*{stroke-linejoin: round; stroke-linecap: butt}</style>
 </defs>
 <g id="figure_1">
  <g id="patch_1">
   <path d="M 0 432 
L 720 432 
L 720 0 
L 0 0 
z
" style="fill: #ffffff"/>
  </g>
  <g id="axes_1">
   <g id="patch_2">
    <path d="M 54.442344 389.877656 
L 709.2 389.877656 
L 709.2 26.16 
L 54.442344 26.16 
z
" style="fill: #ffffff"/>
   </g>
   <g id="matplotlib.axis_1">
    <g id="xtick_1">
     <g id="line2d_1">
      <path d="M 84.204055 389.877656 
L 84.204055 26.16 
" clip-path="url(#p63321d030e)" style="fill: none; stroke-dasharray: 1.85,0.8; stroke-dashoffset: 0; stroke: #b0b0b0; stroke-width: 0.5"/>
     </g>
     <g id="line2d_2">
      <defs>
       <path id="m3d8c4649f1" d="M 0 0 
L 0 3.5 
" style="stroke: #000000; stroke-width: 0.8"/>
      </defs>
      <g>
       <use xlink:href="#m3d8c4649f1" x="84.204055" y="389.877656" style="stroke: #000000; stroke-width: 0.8"/>
      </g>
     </g>
     <g id="text_1">
      <!-- 0 -->
      <g transform="translate(81.022805 404.475312) scale(0.1 -0.1)">
       <defs>
        <path id="DejaVuSans-13" d="M 2034 4250 
Q 1547 4250 1301 3770 
Q 1056 3291 1056 2328 
Q 1056 1369 1301 889 
Q 1547 409 2034 409 
Q 2525 409 2770 889 
Q 3016 1369 3016 2328 
Q 3016 3291 2770 3770 
Q 2525 4250 2034 4250 
z
M 2034 4750 
Q 2819 4750 3233 4129 
Q 3647 3509 3647 2328 
Q 3647 1150 3233 529 
Q 2819 -91 2034 -91 
Q 1250 -91 836 529 
Q 422 1150 422 2328 
Q 422 3509 836 4129 
Q 1250 4750 2034 4750 
z
" transform="scale(0.015625)"/>
       </defs>
       <use xlink:href="#DejaVuSans-13"/>
      </g>
     </g>
    </g>
    <g id="xtick_2">
     <g id="line2d_3">
      <path d="M 158.608362 389.877656 
L 158.608362 26.16 
" clip-path="url(#p63321d030e)" style="fill: none; stroke-dasharray: 1.85,0.8; stroke-dashoffset: 0; stroke: #b0b0b0; stroke-width: 0.5"/>
     </g>
     <g id="line2d_4">
      <g>
       <use xlink:href="#m3d8c4649f1" x="158.608362" y="389.877656" style="stroke: #000000; stroke-width: 0.8"/>
      </g>
     </g>
     <g id="text_2">
      <!-- 1 -->
      <g transform="translate(155.427112 404.475312) scale(0.1 -0.1)">
       <defs>
        <path id="DejaVuSans-14" d="M 794 531 
L 1825 531 
L 1825 4091 
L 703 3866 
L 703 4441 
L 1819 4666 
L 2450 4666 
L 2450 531 
L 3481 531 
L 3481 0 
L 794 0 
L 794 531 
z
" transform="scale(0.015625)"/>
       </defs>
       <use xlink:href="#DejaVuSans-14"/>
      </g>
     </g>
    </g>
    <g id="xtick_3">
     <g id="line2d_5">
      <path d="M 233.012668 389.877656 
L 233.012668 26.16 
" clip-path="url(#p63321d030e)" style="fill: none; stroke-dasharray: 1.85,0.8; stroke-dashoffset: 0; stroke: #b0b0b0; stroke-width: 0.5"/>
     </g>
     <g id="line2d_6">
      <g>
       <use xlink:href="#m3d8c4649f1" x="233.012668" y="389.877656" style="stroke: #000000; stroke-width: 0.8"/>
      </g>
     </g>
     <g id="text_3">
      <!-- 2 -->
      <g transform="translate(229.831418 404.475312) scale(0.1 -0.1)">
       <defs>
        <path id="DejaVuSans-15" d="M 1228 531 
L 3431 531 
L 3431 0 
L 469 0 
L 469 531 
Q 828 903 1448 1529 
Q 2069 2156 2228 2338 
Q 2531 2678 2651 2914 
Q 2772 3150 2772 3378 
Q 2772 3750 2511 3984 
Q 2250 4219 1831 4219 
Q 1534 4219 1204 4116 
Q 875 4013 500 3803 
L 500 4441 
Q 881 4594 1212 4672 
Q 1544 4750 1819 4750 
Q 2544 4750 2975 4387 
Q 3406 4025 3406 3419 
Q 3406 3131 3298 2873 
Q 3191 2616 2906 2266 
Q 2828 2175 2409 1742 
Q 1991 1309 1228 531 
z
" transform="scale(0.015625)"/>
       </defs>
       <use xlink:href="#DejaVuSans-15"/>
      </g>
     </g>
    </g>
    <g id="xtick_4">
     <g id="line2d_7">
      <path d="M 307.416974 389.877656 
L 307.416974 26.16 
" clip-path="url(#p63321d030e)" style="fill: none; stroke-dasharray: 1.85,0.8; stroke-dashoffset: 0; stroke: #b0b0b0; stroke-width: 0.5"/>
     </g>
     <g id="line2d_8">
      <g>
       <use xlink:href="#m3d8c4649f1" x="307.416974" y="389.877656" style="stroke: #000000; stroke-width: 0.8"/>
      </g>
     </g>
     <g id="text_4">
      <!-- 3 -->
      <g transform="translate(304.235724 404.475312) scale(0.1 -0.1)">
       <defs>
        <path id="DejaVuSans-16" d="M 2597 2516 
Q 3050 2419 3304 2112 
Q 3559 1806 3559 1356 
Q 3559 666 3084 287 
Q 2609 -91 1734 -91 
Q 1441 -91 1130 -33 
Q 819 25 488 141 
L 488 750 
Q 750 597 1062 519 
Q 1375 441 1716 441 
Q 2309 441 2620 675 
Q 2931 909 2931 1356 
Q 2931 1769 2642 2001 
Q 2353 2234 1838 2234 
L 1294 2234 
L 1294 2753 
L 1863 2753 
Q 2328 2753 2575 2939 
Q 2822 3125 2822 3475 
Q 2822 3834 2567 4026 
Q 2313 4219 1838 4219 
Q 1578 4219 1281 4162 
Q 984 4106 628 3988 
L 628 4550 
Q 988 4650 1302 4700 
Q 1616 4750 1894 4750 
Q 2613 4750 3031 4423 
Q 3450 4097 3450 3541 
Q 3450 3153 3228 2886 
Q 3006 2619 2597 2516 
z
" transform="scale(0.015625)"/>
       </defs>
       <use xlink:href="#DejaVuSans-16"/>
      </g>
     </g>
    </g>
    <g id="xtick_5">
     <g id="line2d_9">
      <path d="M 381.82128 389.877656 
L 381.82128 26.16 
" clip-path="url(#p63321d030e)" style="fill: none; stroke-dasharray: 1.85,0.8; stroke-dashoffset: 0; stroke: #b0b0b0; stroke-width: 0.5"/>
     </g>
     <g id="line2d_10">
      <g>
       <use xlink:href="#m3d8c4649f1" x="381.82128" y="389.877656" style="stroke: #000000; stroke-width: 0.8"/>
      </g>
     </g>
     <g id="text_5">
      <!-- 4 -->
      <g transform="translate(378.64003 404.475312) scale(0.1 -0.1)">
       <defs>
        <path id="DejaVuSans-17" d="M 2419 4116 
L 825 1625 
L 2419 1625 
L 2419 4116 
z
M 2253 4666 
L 3047 4666 
L 3047 1625 
L 3713 1625 
L 3713 1100 
L 3047 1100 
L 3047 0 
L 2419 0 
L 2419 1100 
L 313 1100 
L 313 1709 
L 2253 4666 
z
" transform="scale(0.015625)"/>
       </defs>
       <use xlink:href="#DejaVuSans-17"/>
      </g>
     </g>
    </g>
    <g id="xtick_6">
     <g id="line2d_11">
      <path d="M 456.225586 389.877656 
L 456.225586 26.16 
" clip-path="url(#p63321d030e)" style="fill: none; stroke-dasharray: 1.85,0.8; stroke-dashoffset: 0; stroke: #b0b0b0; stroke-width: 0.5"/>
     </g>
     <g id="line2d_12">
      <g>
       <use xlink:href="#m3d8c4649f1" x="456.225586" y="389.877656" style="stroke: #000000; stroke-width: 0.8"/>
      </g>
     </g>
     <g id="text_6">
      <!-- 5 -->
      <g transform="translate(453.044336 404.475312) scale(0.1 -0.1)">
       <defs>
        <path id="DejaVuSans-18" d="M 691 4666 
L 3169 4666 
L 3169 4134 
L 1269 4134 
L 1269 2991 
Q 1406 3038 1543 3061 
Q 1681 3084 1819 3084 
Q 2600 3084 3056 2656 
Q 3513 2228 3513 1497 
Q 3513 744 3044 326 
Q 2575 -91 1722 -91 
Q 1428 -91 1123 -41 
Q 819 9 494 109 
L 494 744 
Q 775 591 1075 516 
Q 1375 441 1709 441 
Q 2250 441 2565 725 
Q 2881 1009 2881 1497 
Q 2881 1984 2565 2268 
Q 2250 2553 1709 2553 
Q 1456 2553 1204 2497 
Q 953 2441 691 2322 
L 691 4666 
z
" transform="scale(0.015625)"/>
       </defs>
       <use xlink:href="#DejaVuSans-18"/>
      </g>
     </g>
    </g>
    <g id="xtick_7">
     <g id="line2d_13">
      <path d="M 530.629892 389.877656 
L 530.629892 26.16 
" clip-path="url(#p63321d030e)" style="fill: none; stroke-dasharray: 1.85,0.8; stroke-dashoffset: 0; stroke: #b0b0b0; stroke-width: 0.5"/>
     </g>
     <g id="line2d_14">
      <g>
       <use xlink:href="#m3d8c4649f1" x="530.629892" y="389.877656" style="stroke: #000000; stroke-width: 0.8"/>
      </g>
     </g>
     <g id="text_7">
      <!-- 6 -->
      <g transform="translate(527.448642 404.475312) scale(0.1 -0.1)">
       <defs>
        <path id="DejaVuSans-19" d="M 2113 2584 
Q 1688 2584 1439 2293 
Q 1191 2003 1191 1497 
Q 1191 994 1439 701 
Q 1688 409 2113 409 
Q 2538 409 2786 701 
Q 3034 994 3034 1497 
Q 3034 2003 2786 2293 
Q 2538 2584 2113 2584 
z
M 3366 4563 
L 3366 3988 
Q 3128 4100 2886 4159 
Q 2644 4219 2406 4219 
Q 1781 4219 1451 3797 
Q 1122 3375 1075 2522 
Q 1259 2794 1537 2939 
Q 1816 3084 2150 3084 
Q 2853 3084 3261 2657 
Q 3669 2231 3669 1497 
Q 3669 778 3244 343 
Q 2819 -91 2113 -91 
Q 1303 -91 875 529 
Q 447 1150 447 2328 
Q 447 3434 972 4092 
Q 1497 4750 2381 4750 
Q 2619 4750 2861 4703 
Q 3103 4656 3366 4563 
z
" transform="scale(0.015625)"/>
       </defs>
       <use xlink:href="#DejaVuSans-19"/>
      </g>
     </g>
    </g>
    <g id="xtick_8">
     <g id="line2d_15">
      <path d="M 605.034199 389.877656 
L 605.034199 26.16 
" clip-path="url(#p63321d030e)" style="fill: none; stroke-dasharray: 1.85,0.8; stroke-dashoffset: 0; stroke: #b0b0b0; stroke-width: 0.5"/>
     </g>
     <g id="line2d_16">
      <g>
       <use xlink:href="#m3d8c4649f1" x="605.034199" y="389.877656" style="stroke: #000000; stroke-width: 0.8"/>
      </g>
     </g>
     <g id="text_8">
      <!-- 7 -->
      <g transform="translate(601.852949 404.475312) scale(0.1 -0.1)">
       <defs>
        <path id="DejaVuSans-1a" d="M 525 4666 
L 3525 4666 
L 3525 4397 
L 1831 0 
L 1172 0 
L 2766 4134 
L 525 4134 
L 525 4666 
z
" transform="scale(0.015625)"/>
       </defs>
       <use xlink:href="#DejaVuSans-1a"/>
      </g>
     </g>
    </g>
    <g id="xtick_9">
     <g id="line2d_17">
      <path d="M 679.438505 389.877656 
L 679.438505 26.16 
" clip-path="url(#p63321d030e)" style="fill: none; stroke-dasharray: 1.85,0.8; stroke-dashoffset: 0; stroke: #b0b0b0; stroke-width: 0.5"/>
     </g>
     <g id="line2d_18">
      <g>
       <use xlink:href="#m3d8c4649f1" x="679.438505" y="389.877656" style="stroke: #000000; stroke-width: 0.8"/>
      </g>
     </g>
     <g id="text_9">
      <!-- 8 -->
      <g transform="translate(676.257255 404.475312) scale(0.1 -0.1)">
       <defs>
        <path id="DejaVuSans-1b" d="M 2034 2216 
Q 1584 2216 1326 1975 
Q 1069 1734 1069 1313 
Q 1069 891 1326 650 
Q 1584 409 2034 409 
Q 2484 409 2743 651 
Q 3003 894 3003 1313 
Q 3003 1734 2745 1975 
Q 2488 2216 2034 2216 
z
M 1403 2484 
Q 997 2584 770 2862 
Q 544 3141 544 3541 
Q 544 4100 942 4425 
Q 1341 4750 2034 4750 
Q 2731 4750 3128 4425 
Q 3525 4100 3525 3541 
Q 3525 3141 3298 2862 
Q 3072 2584 2669 2484 
Q 3125 2378 3379 2068 
Q 3634 1759 3634 1313 
Q 3634 634 3220 271 
Q 2806 -91 2034 -91 
Q 1263 -91 848 271 
Q 434 634 434 1313 
Q 434 1759 690 2068 
Q 947 2378 1403 2484 
z
M 1172 3481 
Q 1172 3119 1398 2916 
Q 1625 2713 2034 2713 
Q 2441 2713 2670 2916 
Q 2900 3119 2900 3481 
Q 2900 3844 2670 4047 
Q 2441 4250 2034 4250 
Q 1625 4250 1398 4047 
Q 1172 3844 1172 3481 
z
" transform="scale(0.015625)"/>
       </defs>
       <use xlink:href="#DejaVuSans-1b"/>
      </g>
     </g>
    </g>
    <g id="text_10">
     <!-- Entropy (bits/byte) -->
     <g transform="translate(334.921172 418.476094) scale(0.1 -0.1)">
      <defs>
       <path id="DejaVuSans-28" d="M 628 4666 
L 3578 4666 
L 3578 4134 
L 1259 4134 
L 1259 2753 
L 3481 2753 
L 3481 2222 
L 1259 2222 
L 1259 531 
L 3634 531 
L 3634 0 
L 628 0 
L 628 4666 
z
" transform="scale(0.015625)"/>
       <path id="DejaVuSans-51" d="M 3513 2113 
L 3513 0 
L 2938 0 
L 2938 2094 
Q 2938 2591 2744 2837 
Q 2550 3084 2163 3084 
Q 1697 3084 1428 2787 
Q 1159 2491 1159 1978 
L 1159 0 
L 581 0 
L 581 3500 
L 1159 3500 
L 1159 2956 
Q 1366 3272 1645 3428 
Q 1925 3584 2291 3584 
Q 2894 3584 3203 3211 
Q 3513 2838 3513 2113 
z
" transform="scale(0.015625)"/>
       <path id="DejaVuSans-57" d="M 1172 4494 
L 1172 3500 
L 2356 3500 
L 2356 3053 
L 1172 3053 
L 1172 1153 
Q 1172 725 1289 603 
Q 1406 481 1766 481 
L 2356 481 
L 2356 0 
L 1766 0 
Q 1100 0 847 248 
Q 594 497 594 1153 
L 594 3053 
L 172 3053 
L 172 3500 
L 594 3500 
L 594 4494 
L 1172 4494 
z
" transform="scale(0.015625)"/>
       <path id="DejaVuSans-55" d="M 2631 2963 
Q 2534 3019 2420 3045 
Q 2306 3072 2169 3072 
Q 1681 3072 1420 2755 
Q 1159 2438 1159 1844 
L 1159 0 
L 581 0 
L 581 3500 
L 1159 3500 
L 1159 2956 
Q 1341 3275 1631 3429 
Q 1922 3584 2338 3584 
Q 2397 3584 2469 3576 
Q 2541 3569 2628 3553 
L 2631 2963 
z
" transform="scale(0.015625)"/>
       <path id="DejaVuSans-52" d="M 1959 3097 
Q 1497 3097 1228 2736 
Q 959 2375 959 1747 
Q 959 1119 1226 758 
Q 1494 397 1959 397 
Q 2419 397 2687 759 
Q 2956 1122 2956 1747 
Q 2956 2369 2687 2733 
Q 2419 3097 1959 3097 
z
M 1959 3584 
Q 2709 3584 3137 3096 
Q 3566 2609 3566 1747 
Q 3566 888 3137 398 
Q 2709 -91 1959 -91 
Q 1206 -91 779 398 
Q 353 888 353 1747 
Q 353 2609 779 3096 
Q 1206 3584 1959 3584 
z
" transform="scale(0.015625)"/>
       <path id="DejaVuSans-53" d="M 1159 525 
L 1159 -1331 
L 581 -1331 
L 581 3500 
L 1159 3500 
L 1159 2969 
Q 1341 3281 1617 3432 
Q 1894 3584 2278 3584 
Q 2916 3584 3314 3078 
Q 3713 2572 3713 1747 
Q 3713 922 3314 415 
Q 2916 -91 2278 -91 
Q 1894 -91 1617 61 
Q 1341 213 1159 525 
z
M 3116 1747 
Q 3116 2381 2855 2742 
Q 2594 3103 2138 3103 
Q 1681 3103 1420 2742 
Q 1159 2381 1159 1747 
Q 1159 1113 1420 752 
Q 1681 391 2138 391 
Q 2594 391 2855 752 
Q 3116 1113 3116 1747 
z
" transform="scale(0.015625)"/>
       <path id="DejaVuSans-5c" d="M 2059 -325 
Q 1816 -950 1584 -1140 
Q 1353 -1331 966 -1331 
L 506 -1331 
L 506 -850 
L 844 -850 
Q 1081 -850 1212 -737 
Q 1344 -625 1503 -206 
L 1606 56 
L 191 3500 
L 800 3500 
L 1894 763 
L 2988 3500 
L 3597 3500 
L 2059 -325 
z
" transform="scale(0.015625)"/>
       <path id="DejaVuSans-3" transform="scale(0.015625)"/>
       <path id="DejaVuSans-b" d="M 1984 4856 
Q 1566 4138 1362 3434 
Q 1159 2731 1159 2009 
Q 1159 1288 1364 580 
Q 1569 -128 1984 -844 
L 1484 -844 
Q 1016 -109 783 600 
Q 550 1309 550 2009 
Q 550 2706 781 3412 
Q 1013 4119 1484 4856 
L 1984 4856 
z
" transform="scale(0.015625)"/>
       <path id="DejaVuSans-45" d="M 3116 1747 
Q 3116 2381 2855 2742 
Q 2594 3103 2138 3103 
Q 1681 3103 1420 2742 
Q 1159 2381 1159 1747 
Q 1159 1113 1420 752 
Q 1681 391 2138 391 
Q 2594 391 2855 752 
Q 3116 1113 3116 1747 
z
M 1159 2969 
Q 1341 3281 1617 3432 
Q 1894 3584 2278 3584 
Q 2916 3584 3314 3078 
Q 3713 2572 3713 1747 
Q 3713 922 3314 415 
Q 2916 -91 2278 -91 
Q 1894 -91 1617 61 
Q 1341 213 1159 525 
L 1159 0 
L 581 0 
L 581 4863 
L 1159 4863 
L 1159 2969 
z
" transform="scale(0.015625)"/>
       <path id="DejaVuSans-4c" d="M 603 3500 
L 1178 3500 
L 1178 0 
L 603 0 
L 603 3500 
z
M 603 4863 
L 1178 4863 
L 1178 4134 
L 603 4134 
L 603 4863 
z
" transform="scale(0.015625)"/>
       <path id="DejaVuSans-56" d="M 2834 3397 
L 2834 2853 
Q 2591 2978 2328 3040 
Q 2066 3103 1784 3103 
Q 1356 3103 1142 2972 
Q 928 2841 928 2578 
Q 928 2378 1081 2264 
Q 1234 2150 1697 2047 
L 1894 2003 
Q 2506 1872 2764 1633 
Q 3022 1394 3022 966 
Q 3022 478 2636 193 
Q 2250 -91 1575 -91 
Q 1294 -91 989 -36 
Q 684 19 347 128 
L 347 722 
Q 666 556 975 473 
Q 1284 391 1588 391 
Q 1994 391 2212 530 
Q 2431 669 2431 922 
Q 2431 1156 2273 1281 
Q 2116 1406 1581 1522 
L 1381 1569 
Q 847 1681 609 1914 
Q 372 2147 372 2553 
Q 372 3047 722 3315 
Q 1072 3584 1716 3584 
Q 2034 3584 2315 3537 
Q 2597 3491 2834 3397 
z
" transform="scale(0.015625)"/>
       <path id="DejaVuSans-12" d="M 1625 4666 
L 2156 4666 
L 531 -594 
L 0 -594 
L 1625 4666 
z
" transform="scale(0.015625)"/>
       <path id="DejaVuSans-48" d="M 3597 1894 
L 3597 1613 
L 953 1613 
Q 991 1019 1311 708 
Q 1631 397 2203 397 
Q 2534 397 2845 478 
Q 3156 559 3463 722 
L 3463 178 
Q 3153 47 2828 -22 
Q 2503 -91 2169 -91 
Q 1331 -91 842 396 
Q 353 884 353 1716 
Q 353 2575 817 3079 
Q 1281 3584 2069 3584 
Q 2775 3584 3186 3129 
Q 3597 2675 3597 1894 
z
M 3022 2063 
Q 3016 2534 2758 2815 
Q 2500 3097 2075 3097 
Q 1594 3097 1305 2825 
Q 1016 2553 972 2059 
L 3022 2063 
z
" transform="scale(0.015625)"/>
       <path id="DejaVuSans-c" d="M 513 4856 
L 1013 4856 
Q 1481 4119 1714 3412 
Q 1947 2706 1947 2009 
Q 1947 1309 1714 600 
Q 1481 -109 1013 -844 
L 513 -844 
Q 928 -128 1133 580 
Q 1338 1288 1338 2009 
Q 1338 2731 1133 3434 
Q 928 4138 513 4856 
z
" transform="scale(0.015625)"/>
      </defs>
      <use xlink:href="#DejaVuSans-28"/>
      <use xlink:href="#DejaVuSans-51" transform="translate(63.1875 0)"/>
      <use xlink:href="#DejaVuSans-57" transform="translate(126.5625 0)"/>
      <use xlink:href="#DejaVuSans-55" transform="translate(165.765625 0)"/>
      <use xlink:href="#DejaVuSans-52" transform="translate(204.671875 0)"/>
      <use xlink:href="#DejaVuSans-53" transform="translate(265.859375 0)"/>
      <use xlink:href="#DejaVuSans-5c" transform="translate(329.34375 0)"/>
      <use xlink:href="#DejaVuSans-3" transform="translate(388.53125 0)"/>
      <use xlink:href="#DejaVuSans-b" transform="translate(420.3125 0)"/>
      <use xlink:href="#DejaVuSans-45" transform="translate(459.328125 0)"/>
      <use xlink:href="#DejaVuSans-4c" transform="translate(522.8125 0)"/>
      <use xlink:href="#DejaVuSans-57" transform="translate(550.59375 0)"/>
      <use xlink:href="#DejaVuSans-56" transform="translate(589.796875 0)"/>
      <use xlink:href="#DejaVuSans-12" transform="translate(641.890625 0)"/>
      <use xlink:href="#DejaVuSans-45" transform="translate(675.578125 0)"/>
      <use xlink:href="#DejaVuSans-5c" transform="translate(739.0625 0)"/>
      <use xlink:href="#DejaVuSans-57" transform="translate(798.25 0)"/>
      <use xlink:href="#DejaVuSans-48" transform="translate(837.453125 0)"/>
      <use xlink:href="#DejaVuSans-c" transform="translate(898.984375 0)"/>
     </g>
    </g>
   </g>
   <g id="matplotlib.axis_2">
    <g id="ytick_1">
     <g id="line2d_19">
      <path d="M 54.442344 373.34666 
L 709.2 373.34666 
" clip-path="url(#p63321d030e)" style="fill: none; stroke-dasharray: 1.85,0.8; stroke-dashoffset: 0; stroke: #b0b0b0; stroke-width: 0.5"/>
     </g>
     <g id="line2d_20">
      <defs>
       <path id="m3fada62db2" d="M 0 0 
L -3.5 0 
" style="stroke: #000000; stroke-width: 0.8"/>
      </defs>
      <g>
       <use xlink:href="#m3fada62db2" x="54.442344" y="373.34666" style="stroke: #000000; stroke-width: 0.8"/>
      </g>
     </g>
     <g id="text_11">
      <!-- 0.00 -->
      <g transform="translate(25.176719 377.145488) scale(0.1 -0.1)">
       <defs>
        <path id="DejaVuSans-11" d="M 684 794 
L 1344 794 
L 1344 0 
L 684 0 
L 684 794 
z
" transform="scale(0.015625)"/>
       </defs>
       <use xlink:href="#DejaVuSans-13"/>
       <use xlink:href="#DejaVuSans-11" transform="translate(63.625 0)"/>
       <use xlink:href="#DejaVuSans-13" transform="translate(95.40625 0)"/>
       <use xlink:href="#DejaVuSans-13" transform="translate(159.03125 0)"/>
      </g>
     </g>
    </g>
    <g id="ytick_2">
     <g id="line2d_21">
      <path d="M 54.442344 325.144556 
L 709.2 325.144556 
" clip-path="url(#p63321d030e)" style="fill: none; stroke-dasharray: 1.85,0.8; stroke-dashoffset: 0; stroke: #b0b0b0; stroke-width: 0.5"/>
     </g>
     <g id="line2d_22">
      <g>
       <use xlink:href="#m3fada62db2" x="54.442344" y="325.144556" style="stroke: #000000; stroke-width: 0.8"/>
      </g>
     </g>
     <g id="text_12">
      <!-- 0.25 -->
      <g transform="translate(25.176719 328.943384) scale(0.1 -0.1)">
       <use xlink:href="#DejaVuSans-13"/>
       <use xlink:href="#DejaVuSans-11" transform="translate(63.625 0)"/>
       <use xlink:href="#DejaVuSans-15" transform="translate(95.40625 0)"/>
       <use xlink:href="#DejaVuSans-18" transform="translate(159.03125 0)"/>
      </g>
     </g>
    </g>
    <g id="ytick_3">
     <g id="line2d_23">
      <path d="M 54.442344 276.942451 
L 709.2 276.942451 
" clip-path="url(#p63321d030e)" style="fill: none; stroke-dasharray: 1.85,0.8; stroke-dashoffset: 0; stroke: #b0b0b0; stroke-width: 0.5"/>
     </g>
     <g id="line2d_24">
      <g>
       <use xlink:href="#m3fada62db2" x="54.442344" y="276.942451" style="stroke: #000000; stroke-width: 0.8"/>
      </g>
     </g>
     <g id="text_13">
      <!-- 0.50 -->
      <g transform="translate(25.176719 280.741279) scale(0.1 -0.1)">
       <use xlink:href="#DejaVuSans-13"/>
       <use xlink:href="#DejaVuSans-11" transform="translate(63.625 0)"/>
       <use xlink:href="#DejaVuSans-18" transform="translate(95.40625 0)"/>
       <use xlink:href="#DejaVuSans-13" transform="translate(159.03125 0)"/>
      </g>
     </g>
    </g>
    <g id="ytick_4">
     <g id="line2d_25">
      <path d="M 54.442344 228.740347 
L 709.2 228.740347 
" clip-path="url(#p63321d030e)" style="fill: none; stroke-dasharray: 1.85,0.8; stroke-dashoffset: 0; stroke: #b0b0b0; stroke-width: 0.5"/>
     </g>
     <g id="line2d_26">
      <g>
       <use xlink:href="#m3fada62db2" x="54.442344" y="228.740347" style="stroke: #000000; stroke-width: 0.8"/>
      </g>
     </g>
     <g id="text_14">
      <!-- 0.75 -->
      <g transform="translate(25.176719 232.539175) scale(0.1 -0.1)">
       <use xlink:href="#DejaVuSans-13"/>
       <use xlink:href="#DejaVuSans-11" transform="translate(63.625 0)"/>
       <use xlink:href="#DejaVuSans-1a" transform="translate(95.40625 0)"/>
       <use xlink:href="#DejaVuSans-18" transform="translate(159.03125 0)"/>
      </g>
     </g>
    </g>
    <g id="ytick_5">
     <g id="line2d_27">
      <path d="M 54.442344 180.538242 
L 709.2 180.538242 
" clip-path="url(#p63321d030e)" style="fill: none; stroke-dasharray: 1.85,0.8; stroke-dashoffset: 0; stroke: #b0b0b0; stroke-width: 0.5"/>
     </g>
     <g id="line2d_28">
      <g>
       <use xlink:href="#m3fada62db2" x="54.442344" y="180.538242" style="stroke: #000000; stroke-width: 0.8"/>
      </g>
     </g>
     <g id="text_15">
      <!-- 1.00 -->
      <g transform="translate(25.176719 184.337071) scale(0.1 -0.1)">
       <use xlink:href="#DejaVuSans-14"/>
       <use xlink:href="#DejaVuSans-11" transform="translate(63.625 0)"/>
       <use xlink:href="#DejaVuSans-13" transform="translate(95.40625 0)"/>
       <use xlink:href="#DejaVuSans-13" transform="translate(159.03125 0)"/>
      </g>
     </g>
    </g>
    <g id="ytick_6">
     <g id="line2d_29">
      <path d="M 54.442344 132.336138 
L 709.2 132.336138 
" clip-path="url(#p63321d030e)" style="fill: none; stroke-dasharray: 1.85,0.8; stroke-dashoffset: 0; stroke: #b0b0b0; stroke-width: 0.5"/>
     </g>
     <g id="line2d_30">
      <g>
       <use xlink:href="#m3fada62db2" x="54.442344" y="132.336138" style="stroke: #000000; stroke-width: 0.8"/>
      </g>
     </g>
     <g id="text_16">
      <!-- 1.25 -->
      <g transform="translate(25.176719 136.134966) scale(0.1 -0.1)">
       <use xlink:href="#DejaVuSans-14"/>
       <use xlink:href="#DejaVuSans-11" transform="translate(63.625 0)"/>
       <use xlink:href="#DejaVuSans-15" transform="translate(95.40625 0)"/>
       <use xlink:href="#DejaVuSans-18" transform="translate(159.03125 0)"/>
      </g>
     </g>
    </g>
    <g id="ytick_7">
     <g id="line2d_31">
      <path d="M 54.442344 84.134034 
L 709.2 84.134034 
" clip-path="url(#p63321d030e)" style="fill: none; stroke-dasharray: 1.85,0.8; stroke-dashoffset: 0; stroke: #b0b0b0; stroke-width: 0.5"/>
     </g>
     <g id="line2d_32">
      <g>
       <use xlink:href="#m3fada62db2" x="54.442344" y="84.134034" style="stroke: #000000; stroke-width: 0.8"/>
      </g>
     </g>
     <g id="text_17">
      <!-- 1.50 -->
      <g transform="translate(25.176719 87.932862) scale(0.1 -0.1)">
       <use xlink:href="#DejaVuSans-14"/>
       <use xlink:href="#DejaVuSans-11" transform="translate(63.625 0)"/>
       <use xlink:href="#DejaVuSans-18" transform="translate(95.40625 0)"/>
       <use xlink:href="#DejaVuSans-13" transform="translate(159.03125 0)"/>
      </g>
     </g>
    </g>
    <g id="ytick_8">
     <g id="line2d_33">
      <path d="M 54.442344 35.931929 
L 709.2 35.931929 
" clip-path="url(#p63321d030e)" style="fill: none; stroke-dasharray: 1.85,0.8; stroke-dashoffset: 0; stroke: #b0b0b0; stroke-width: 0.5"/>
     </g>
     <g id="line2d_34">
      <g>
       <use xlink:href="#m3fada62db2" x="54.442344" y="35.931929" style="stroke: #000000; stroke-width: 0.8"/>
      </g>
     </g>
     <g id="text_18">
      <!-- 1.75 -->
      <g transform="translate(25.176719 39.730758) scale(0.1 -0.1)">
       <use xlink:href="#DejaVuSans-14"/>
       <use xlink:href="#DejaVuSans-11" transform="translate(63.625 0)"/>
       <use xlink:href="#DejaVuSans-1a" transform="translate(95.40625 0)"/>
       <use xlink:href="#DejaVuSans-18" transform="translate(159.03125 0)"/>
      </g>
     </g>
    </g>
    <g id="text_19">
     <!-- Decompression speed (bytes/s) -->
     <g transform="translate(18.774375 286.896953) rotate(-90) scale(0.1 -0.1)">
      <defs>
       <path id="DejaVuSans-27" d="M 1259 4147 
L 1259 519 
L 2022 519 
Q 2988 519 3436 956 
Q 3884 1394 3884 2338 
Q 3884 3275 3436 3711 
Q 2988 4147 2022 4147 
L 1259 4147 
z
M 628 4666 
L 1925 4666 
Q 3281 4666 3915 4102 
Q 4550 3538 4550 2338 
Q 4550 1131 3912 565 
Q 3275 0 1925 0 
L 628 0 
L 628 4666 
z
" transform="scale(0.015625)"/>
       <path id="DejaVuSans-46" d="M 3122 3366 
L 3122 2828 
Q 2878 2963 2633 3030 
Q 2388 3097 2138 3097 
Q 1578 3097 1268 2742 
Q 959 2388 959 1747 
Q 959 1106 1268 751 
Q 1578 397 2138 397 
Q 2388 397 2633 464 
Q 2878 531 3122 666 
L 3122 134 
Q 2881 22 2623 -34 
Q 2366 -91 2075 -91 
Q 1284 -91 818 406 
Q 353 903 353 1747 
Q 353 2603 823 3093 
Q 1294 3584 2113 3584 
Q 2378 3584 2631 3529 
Q 2884 3475 3122 3366 
z
" transform="scale(0.015625)"/>
       <path id="DejaVuSans-50" d="M 3328 2828 
Q 3544 3216 3844 3400 
Q 4144 3584 4550 3584 
Q 5097 3584 5394 3201 
Q 5691 2819 5691 2113 
L 5691 0 
L 5113 0 
L 5113 2094 
Q 5113 2597 4934 2840 
Q 4756 3084 4391 3084 
Q 3944 3084 3684 2787 
Q 3425 2491 3425 1978 
L 3425 0 
L 2847 0 
L 2847 2094 
Q 2847 2600 2669 2842 
Q 2491 3084 2119 3084 
Q 1678 3084 1418 2786 
Q 1159 2488 1159 1978 
L 1159 0 
L 581 0 
L 581 3500 
L 1159 3500 
L 1159 2956 
Q 1356 3278 1631 3431 
Q 1906 3584 2284 3584 
Q 2666 3584 2933 3390 
Q 3200 3197 3328 2828 
z
" transform="scale(0.015625)"/>
       <path id="DejaVuSans-47" d="M 2906 2969 
L 2906 4863 
L 3481 4863 
L 3481 0 
L 2906 0 
L 2906 525 
Q 2725 213 2448 61 
Q 2172 -91 1784 -91 
Q 1150 -91 751 415 
Q 353 922 353 1747 
Q 353 2572 751 3078 
Q 1150 3584 1784 3584 
Q 2172 3584 2448 3432 
Q 2725 3281 2906 2969 
z
M 947 1747 
Q 947 1113 1208 752 
Q 1469 391 1925 391 
Q 2381 391 2643 752 
Q 2906 1113 2906 1747 
Q 2906 2381 2643 2742 
Q 2381 3103 1925 3103 
Q 1469 3103 1208 2742 
Q 947 2381 947 1747 
z
" transform="scale(0.015625)"/>
      </defs>
      <use xlink:href="#DejaVuSans-27"/>
      <use xlink:href="#DejaVuSans-48" transform="translate(77 0)"/>
      <use xlink:href="#DejaVuSans-46" transform="translate(138.53125 0)"/>
      <use xlink:href="#DejaVuSans-52" transform="translate(193.515625 0)"/>
      <use xlink:href="#DejaVuSans-50" transform="translate(254.703125 0)"/>
      <use xlink:href="#DejaVuSans-53" transform="translate(352.109375 0)"/>
      <use xlink:href="#DejaVuSans-55" transform="translate(415.59375 0)"/>
      <use xlink:href="#DejaVuSans-48" transform="translate(454.5 0)"/>
      <use xlink:href="#DejaVuSans-56" transform="translate(516.03125 0)"/>
      <use xlink:href="#DejaVuSans-56" transform="translate(568.125 0)"/>
      <use xlink:href="#DejaVuSans-4c" transform="translate(620.21875 0)"/>
      <use xlink:href="#DejaVuSans-52" transform="translate(648 0)"/>
      <use xlink:href="#DejaVuSans-51" transform="translate(709.1875 0)"/>
      <use xlink:href="#DejaVuSans-3" transform="translate(772.5625 0)"/>
      <use xlink:href="#DejaVuSans-56" transform="translate(804.34375 0)"/>
      <use xlink:href="#DejaVuSans-53" transform="translate(856.4375 0)"/>
      <use xlink:href="#DejaVuSans-48" transform="translate(919.921875 0)"/>
      <use xlink:href="#DejaVuSans-48" transform="translate(981.453125 0)"/>
      <use xlink:href="#DejaVuSans-47" transform="translate(1042.984375 0)"/>
      <use xlink:href="#DejaVuSans-3" transform="translate(1106.46875 0)"/>
      <use xlink:href="#DejaVuSans-b" transform="translate(1138.25 0)"/>
      <use xlink:href="#DejaVuSans-45" transform="translate(1177.265625 0)"/>
      <use xlink:href="#DejaVuSans-5c" transform="translate(1240.75 0)"/>
      <use xlink:href="#DejaVuSans-57" transform="translate(1299.9375 0)"/>
      <use xlink:href="#DejaVuSans-48" transform="translate(1339.140625 0)"/>
      <use xlink:href="#DejaVuSans-56" transform="translate(1400.671875 0)"/>
      <use xlink:href="#DejaVuSans-12" transform="translate(1452.765625 0)"/>
      <use xlink:href="#DejaVuSans-56" transform="translate(1486.453125 0)"/>
      <use xlink:href="#DejaVuSans-c" transform="translate(1538.546875 0)"/>
     </g>
    </g>
    <g id="text_20">
     <!-- 1e8 -->
     <g transform="translate(54.442344 23.16) scale(0.1 -0.1)">
      <use xlink:href="#DejaVuSans-14"/>
      <use xlink:href="#DejaVuSans-48" transform="translate(63.625 0)"/>
      <use xlink:href="#DejaVuSans-1b" transform="translate(125.15625 0)"/>
     </g>
    </g>
   </g>
   <g id="line2d_35">
    <path d="M 84.204055 373.344993 
L 84.204055 373.340222 
L 84.204055 373.324781 
L 84.204055 373.237652 
L 84.204055 372.955233 
L 84.204055 371.811389 
L 84.204055 366.80905 
L 84.204055 350.254751 
L 84.204055 297.500967 
L 84.204055 193.412271 
L 84.204055 85.184917 
L 84.204055 52.892897 
L 84.204055 42.692621 
L 84.204055 49.077407 
" clip-path="url(#p63321d030e)" style="fill: none; stroke: #1f77b4; stroke-width: 1.5; stroke-linecap: square"/>
    <defs>
     <path id="m9231236f17" d="M 0 3 
C 0.795609 3 1.55874 2.683901 2.12132 2.12132 
C 2.683901 1.55874 3 0.795609 3 0 
C 3 -0.795609 2.683901 -1.55874 2.12132 -2.12132 
C 1.55874 -2.683901 0.795609 -3 0 -3 
C -0.795609 -3 -1.55874 -2.683901 -2.12132 -2.12132 
C -2.683901 -1.55874 -3 -0.795609 -3 0 
C -3 0.795609 -2.683901 1.55874 -2.12132 2.12132 
C -1.55874 2.683901 -0.795609 3 0 3 
z
" style="stroke: #1f77b4"/>
    </defs>
    <g clip-path="url(#p63321d030e)">
     <use xlink:href="#m9231236f17" x="84.204055" y="373.344993" style="fill: #1f77b4; stroke: #1f77b4"/>
     <use xlink:href="#m9231236f17" x="84.204055" y="373.340222" style="fill: #1f77b4; stroke: #1f77b4"/>
     <use xlink:href="#m9231236f17" x="84.204055" y="373.324781" style="fill: #1f77b4; stroke: #1f77b4"/>
     <use xlink:href="#m9231236f17" x="84.204055" y="373.237652" style="fill: #1f77b4; stroke: #1f77b4"/>
     <use xlink:href="#m9231236f17" x="84.204055" y="372.955233" style="fill: #1f77b4; stroke: #1f77b4"/>
     <use xlink:href="#m9231236f17" x="84.204055" y="371.811389" style="fill: #1f77b4; stroke: #1f77b4"/>
     <use xlink:href="#m9231236f17" x="84.204055" y="366.80905" style="fill: #1f77b4; stroke: #1f77b4"/>
     <use xlink:href="#m9231236f17" x="84.204055" y="350.254751" style="fill: #1f77b4; stroke: #1f77b4"/>
     <use xlink:href="#m9231236f17" x="84.204055" y="297.500967" style="fill: #1f77b4; stroke: #1f77b4"/>
     <use xlink:href="#m9231236f17" x="84.204055" y="193.412271" style="fill: #1f77b4; stroke: #1f77b4"/>
     <use xlink:href="#m9231236f17" x="84.204055" y="85.184917" style="fill: #1f77b4; stroke: #1f77b4"/>
     <use xlink:href="#m9231236f17" x="84.204055" y="52.892897" style="fill: #1f77b4; stroke: #1f77b4"/>
     <use xlink:href="#m9231236f17" x="84.204055" y="42.692621" style="fill: #1f77b4; stroke: #1f77b4"/>
     <use xlink:href="#m9231236f17" x="84.204055" y="49.077407" style="fill: #1f77b4; stroke: #1f77b4"/>
    </g>
   </g>
   <g id="line2d_36">
    <path d="M 84.204055 373.344937 
L 158.608362 373.340275 
L 158.608362 373.320583 
L 158.608362 373.25381 
L 158.608362 372.965215 
L 158.608362 371.804193 
L 158.608362 366.920758 
L 158.608362 350.717913 
L 158.608362 292.709184 
L 158.608362 189.418094 
L 158.608362 100.984705 
L 158.608362 58.114292 
L 158.608362 58.396659 
L 158.608362 64.476595 
" clip-path="url(#p63321d030e)" style="fill: none; stroke: #ff7f0e; stroke-width: 1.5; stroke-linecap: square"/>
    <defs>
     <path id="m8317f7979a" d="M 0 3 
C 0.795609 3 1.55874 2.683901 2.12132 2.12132 
C 2.683901 1.55874 3 0.795609 3 0 
C 3 -0.795609 2.683901 -1.55874 2.12132 -2.12132 
C 1.55874 -2.683901 0.795609 -3 0 -3 
C -0.795609 -3 -1.55874 -2.683901 -2.12132 -2.12132 
C -2.683901 -1.55874 -3 -0.795609 -3 0 
C -3 0.795609 -2.683901 1.55874 -2.12132 2.12132 
C -1.55874 2.683901 -0.795609 3 0 3 
z
" style="stroke: #ff7f0e"/>
    </defs>
    <g clip-path="url(#p63321d030e)">
     <use xlink:href="#m8317f7979a" x="84.204055" y="373.344937" style="fill: #ff7f0e; stroke: #ff7f0e"/>
     <use xlink:href="#m8317f7979a" x="158.608362" y="373.340275" style="fill: #ff7f0e; stroke: #ff7f0e"/>
     <use xlink:href="#m8317f7979a" x="158.608362" y="373.320583" style="fill: #ff7f0e; stroke: #ff7f0e"/>
     <use xlink:href="#m8317f7979a" x="158.608362" y="373.25381" style="fill: #ff7f0e; stroke: #ff7f0e"/>
     <use xlink:href="#m8317f7979a" x="158.608362" y="372.965215" style="fill: #ff7f0e; stroke: #ff7f0e"/>
     <use xlink:href="#m8317f7979a" x="158.608362" y="371.804193" style="fill: #ff7f0e; stroke: #ff7f0e"/>
     <use xlink:href="#m8317f7979a" x="158.608362" y="366.920758" style="fill: #ff7f0e; stroke: #ff7f0e"/>
     <use xlink:href="#m8317f7979a" x="158.608362" y="350.717913" style="fill: #ff7f0e; stroke: #ff7f0e"/>
     <use xlink:href="#m8317f7979a" x="158.608362" y="292.709184" style="fill: #ff7f0e; stroke: #ff7f0e"/>
     <use xlink:href="#m8317f7979a" x="158.608362" y="189.418094" style="fill: #ff7f0e; stroke: #ff7f0e"/>
     <use xlink:href="#m8317f7979a" x="158.608362" y="100.984705" style="fill: #ff7f0e; stroke: #ff7f0e"/>
     <use xlink:href="#m8317f7979a" x="158.608362" y="58.114292" style="fill: #ff7f0e; stroke: #ff7f0e"/>
     <use xlink:href="#m8317f7979a" x="158.608362" y="58.396659" style="fill: #ff7f0e; stroke: #ff7f0e"/>
     <use xlink:href="#m8317f7979a" x="158.608362" y="64.476595" style="fill: #ff7f0e; stroke: #ff7f0e"/>
    </g>
   </g>
   <g id="line2d_37">
    <path d="M 84.204055 373.344932 
L 233.012668 373.339539 
L 233.012668 373.321122 
L 233.012668 373.252102 
L 233.012668 372.957086 
L 233.012668 371.732303 
L 233.012668 367.04384 
L 233.012668 350.685447 
L 233.012668 308.280272 
L 233.012668 246.096988 
L 233.012668 211.852707 
L 233.012668 195.790537 
L 233.012668 209.044951 
L 233.012668 197.056464 
" clip-path="url(#p63321d030e)" style="fill: none; stroke: #2ca02c; stroke-width: 1.5; stroke-linecap: square"/>
    <defs>
     <path id="mcee8597ca6" d="M 0 3 
C 0.795609 3 1.55874 2.683901 2.12132 2.12132 
C 2.683901 1.55874 3 0.795609 3 0 
C 3 -0.795609 2.683901 -1.55874 2.12132 -2.12132 
C 1.55874 -2.683901 0.795609 -3 0 -3 
C -0.795609 -3 -1.55874 -2.683901 -2.12132 -2.12132 
C -2.683901 -1.55874 -3 -0.795609 -3 0 
C -3 0.795609 -2.683901 1.55874 -2.12132 2.12132 
C -1.55874 2.683901 -0.795609 3 0 3 
z
" style="stroke: #2ca02c"/>
    </defs>
    <g clip-path="url(#p63321d030e)">
     <use xlink:href="#mcee8597ca6" x="84.204055" y="373.344932" style="fill: #2ca02c; stroke: #2ca02c"/>
     <use xlink:href="#mcee8597ca6" x="233.012668" y="373.339539" style="fill: #2ca02c; stroke: #2ca02c"/>
     <use xlink:href="#mcee8597ca6" x="233.012668" y="373.321122" style="fill: #2ca02c; stroke: #2ca02c"/>
     <use xlink:href="#mcee8597ca6" x="233.012668" y="373.252102" style="fill: #2ca02c; stroke: #2ca02c"/>
     <use xlink:href="#mcee8597ca6" x="233.012668" y="372.957086" style="fill: #2ca02c; stroke: #2ca02c"/>
     <use xlink:href="#mcee8597ca6" x="233.012668" y="371.732303" style="fill: #2ca02c; stroke: #2ca02c"/>
     <use xlink:href="#mcee8597ca6" x="233.012668" y="367.04384" style="fill: #2ca02c; stroke: #2ca02c"/>
     <use xlink:href="#mcee8597ca6" x="233.012668" y="350.685447" style="fill: #2ca02c; stroke: #2ca02c"/>
     <use xlink:href="#mcee8597ca6" x="233.012668" y="308.280272" style="fill: #2ca02c; stroke: #2ca02c"/>
     <use xlink:href="#mcee8597ca6" x="233.012668" y="246.096988" style="fill: #2ca02c; stroke: #2ca02c"/>
     <use xlink:href="#mcee8597ca6" x="233.012668" y="211.852707" style="fill: #2ca02c; stroke: #2ca02c"/>
     <use xlink:href="#mcee8597ca6" x="233.012668" y="195.790537" style="fill: #2ca02c; stroke: #2ca02c"/>
     <use xlink:href="#mcee8597ca6" x="233.012668" y="209.044951" style="fill: #2ca02c; stroke: #2ca02c"/>
     <use xlink:href="#mcee8597ca6" x="233.012668" y="197.056464" style="fill: #2ca02c; stroke: #2ca02c"/>
    </g>
   </g>
   <g id="line2d_38">
    <path d="M 84.204055 373.344999 
L 233.012668 373.340051 
L 307.416974 373.32129 
L 307.416974 373.254297 
L 307.416974 372.91931 
L 307.416974 371.742795 
L 307.416974 367.152595 
L 307.416974 351.021762 
L 307.416974 318.928518 
L 307.416974 274.396837 
L 307.416974 258.23291 
L 307.416974 249.44828 
L 307.416974 259.299887 
L 307.416974 262.249969 
" clip-path="url(#p63321d030e)" style="fill: none; stroke: #d62728; stroke-width: 1.5; stroke-linecap: square"/>
    <defs>
     <path id="m3ef4b523b0" d="M 0 3 
C 0.795609 3 1.55874 2.683901 2.12132 2.12132 
C 2.683901 1.55874 3 0.795609 3 0 
C 3 -0.795609 2.683901 -1.55874 2.12132 -2.12132 
C 1.55874 -2.683901 0.795609 -3 0 -3 
C -0.795609 -3 -1.55874 -2.683901 -2.12132 -2.12132 
C -2.683901 -1.55874 -3 -0.795609 -3 0 
C -3 0.795609 -2.683901 1.55874 -2.12132 2.12132 
C -1.55874 2.683901 -0.795609 3 0 3 
z
" style="stroke: #d62728"/>
    </defs>
    <g clip-path="url(#p63321d030e)">
     <use xlink:href="#m3ef4b523b0" x="84.204055" y="373.344999" style="fill: #d62728; stroke: #d62728"/>
     <use xlink:href="#m3ef4b523b0" x="233.012668" y="373.340051" style="fill: #d62728; stroke: #d62728"/>
     <use xlink:href="#m3ef4b523b0" x="307.416974" y="373.32129" style="fill: #d62728; stroke: #d62728"/>
     <use xlink:href="#m3ef4b523b0" x="307.416974" y="373.254297" style="fill: #d62728; stroke: #d62728"/>
     <use xlink:href="#m3ef4b523b0" x="307.416974" y="372.91931" style="fill: #d62728; stroke: #d62728"/>
     <use xlink:href="#m3ef4b523b0" x="307.416974" y="371.742795" style="fill: #d62728; stroke: #d62728"/>
     <use xlink:href="#m3ef4b523b0" x="307.416974" y="367.152595" style="fill: #d62728; stroke: #d62728"/>
     <use xlink:href="#m3ef4b523b0" x="307.416974" y="351.021762" style="fill: #d62728; stroke: #d62728"/>
     <use xlink:href="#m3ef4b523b0" x="307.416974" y="318.928518" style="fill: #d62728; stroke: #d62728"/>
     <use xlink:href="#m3ef4b523b0" x="307.416974" y="274.396837" style="fill: #d62728; stroke: #d62728"/>
     <use xlink:href="#m3ef4b523b0" x="307.416974" y="258.23291" style="fill: #d62728; stroke: #d62728"/>
     <use xlink:href="#m3ef4b523b0" x="307.416974" y="249.44828" style="fill: #d62728; stroke: #d62728"/>
     <use xlink:href="#m3ef4b523b0" x="307.416974" y="259.299887" style="fill: #d62728; stroke: #d62728"/>
     <use xlink:href="#m3ef4b523b0" x="307.416974" y="262.249969" style="fill: #d62728; stroke: #d62728"/>
    </g>
   </g>
   <g id="line2d_39">
    <path d="M 84.204055 373.345036 
L 233.012668 373.340265 
L 381.82128 373.321436 
L 381.82128 373.247784 
L 381.82128 372.940747 
L 381.82128 371.850934 
L 381.82128 367.118401 
L 381.82128 354.328158 
L 381.82128 325.501554 
L 381.82128 293.435878 
L 381.82128 283.619037 
L 381.82128 285.377867 
L 381.82128 284.601966 
L 381.82128 282.715775 
" clip-path="url(#p63321d030e)" style="fill: none; stroke: #9467bd; stroke-width: 1.5; stroke-linecap: square"/>
    <defs>
     <path id="m8f71fa1bd4" d="M 0 3 
C 0.795609 3 1.55874 2.683901 2.12132 2.12132 
C 2.683901 1.55874 3 0.795609 3 0 
C 3 -0.795609 2.683901 -1.55874 2.12132 -2.12132 
C 1.55874 -2.683901 0.795609 -3 0 -3 
C -0.795609 -3 -1.55874 -2.683901 -2.12132 -2.12132 
C -2.683901 -1.55874 -3 -0.795609 -3 0 
C -3 0.795609 -2.683901 1.55874 -2.12132 2.12132 
C -1.55874 2.683901 -0.795609 3 0 3 
z
" style="stroke: #9467bd"/>
    </defs>
    <g clip-path="url(#p63321d030e)">
     <use xlink:href="#m8f71fa1bd4" x="84.204055" y="373.345036" style="fill: #9467bd; stroke: #9467bd"/>
     <use xlink:href="#m8f71fa1bd4" x="233.012668" y="373.340265" style="fill: #9467bd; stroke: #9467bd"/>
     <use xlink:href="#m8f71fa1bd4" x="381.82128" y="373.321436" style="fill: #9467bd; stroke: #9467bd"/>
     <use xlink:href="#m8f71fa1bd4" x="381.82128" y="373.247784" style="fill: #9467bd; stroke: #9467bd"/>
     <use xlink:href="#m8f71fa1bd4" x="381.82128" y="372.940747" style="fill: #9467bd; stroke: #9467bd"/>
     <use xlink:href="#m8f71fa1bd4" x="381.82128" y="371.850934" style="fill: #9467bd; stroke: #9467bd"/>
     <use xlink:href="#m8f71fa1bd4" x="381.82128" y="367.118401" style="fill: #9467bd; stroke: #9467bd"/>
     <use xlink:href="#m8f71fa1bd4" x="381.82128" y="354.328158" style="fill: #9467bd; stroke: #9467bd"/>
     <use xlink:href="#m8f71fa1bd4" x="381.82128" y="325.501554" style="fill: #9467bd; stroke: #9467bd"/>
     <use xlink:href="#m8f71fa1bd4" x="381.82128" y="293.435878" style="fill: #9467bd; stroke: #9467bd"/>
     <use xlink:href="#m8f71fa1bd4" x="381.82128" y="283.619037" style="fill: #9467bd; stroke: #9467bd"/>
     <use xlink:href="#m8f71fa1bd4" x="381.82128" y="285.377867" style="fill: #9467bd; stroke: #9467bd"/>
     <use xlink:href="#m8f71fa1bd4" x="381.82128" y="284.601966" style="fill: #9467bd; stroke: #9467bd"/>
     <use xlink:href="#m8f71fa1bd4" x="381.82128" y="282.715775" style="fill: #9467bd; stroke: #9467bd"/>
    </g>
   </g>
   <g id="line2d_40">
    <path d="M 84.204055 373.345036 
L 233.012668 373.340265 
L 381.82128 373.321538 
L 456.225586 373.247066 
L 456.225586 372.931879 
L 456.225586 371.820881 
L 456.225586 367.238823 
L 456.225586 355.438649 
L 456.225586 330.294215 
L 456.225586 306.990391 
L 456.225586 297.846518 
L 456.225586 295.185241 
L 456.225586 302.503085 
L 456.225586 302.447109 
" clip-path="url(#p63321d030e)" style="fill: none; stroke: #8c564b; stroke-width: 1.5; stroke-linecap: square"/>
    <defs>
     <path id="mb2ecd12620" d="M 0 3 
C 0.795609 3 1.55874 2.683901 2.12132 2.12132 
C 2.683901 1.55874 3 0.795609 3 0 
C 3 -0.795609 2.683901 -1.55874 2.12132 -2.12132 
C 1.55874 -2.683901 0.795609 -3 0 -3 
C -0.795609 -3 -1.55874 -2.683901 -2.12132 -2.12132 
C -2.683901 -1.55874 -3 -0.795609 -3 0 
C -3 0.795609 -2.683901 1.55874 -2.12132 2.12132 
C -1.55874 2.683901 -0.795609 3 0 3 
z
" style="stroke: #8c564b"/>
    </defs>
    <g clip-path="url(#p63321d030e)">
     <use xlink:href="#mb2ecd12620" x="84.204055" y="373.345036" style="fill: #8c564b; stroke: #8c564b"/>
     <use xlink:href="#mb2ecd12620" x="233.012668" y="373.340265" style="fill: #8c564b; stroke: #8c564b"/>
     <use xlink:href="#mb2ecd12620" x="381.82128" y="373.321538" style="fill: #8c564b; stroke: #8c564b"/>
     <use xlink:href="#mb2ecd12620" x="456.225586" y="373.247066" style="fill: #8c564b; stroke: #8c564b"/>
     <use xlink:href="#mb2ecd12620" x="456.225586" y="372.931879" style="fill: #8c564b; stroke: #8c564b"/>
     <use xlink:href="#mb2ecd12620" x="456.225586" y="371.820881" style="fill: #8c564b; stroke: #8c564b"/>
     <use xlink:href="#mb2ecd12620" x="456.225586" y="367.238823" style="fill: #8c564b; stroke: #8c564b"/>
     <use xlink:href="#mb2ecd12620" x="456.225586" y="355.438649" style="fill: #8c564b; stroke: #8c564b"/>
     <use xlink:href="#mb2ecd12620" x="456.225586" y="330.294215" style="fill: #8c564b; stroke: #8c564b"/>
     <use xlink:href="#mb2ecd12620" x="456.225586" y="306.990391" style="fill: #8c564b; stroke: #8c564b"/>
     <use xlink:href="#mb2ecd12620" x="456.225586" y="297.846518" style="fill: #8c564b; stroke: #8c564b"/>
     <use xlink:href="#mb2ecd12620" x="456.225586" y="295.185241" style="fill: #8c564b; stroke: #8c564b"/>
     <use xlink:href="#mb2ecd12620" x="456.225586" y="302.503085" style="fill: #8c564b; stroke: #8c564b"/>
     <use xlink:href="#mb2ecd12620" x="456.225586" y="302.447109" style="fill: #8c564b; stroke: #8c564b"/>
    </g>
   </g>
   <g id="line2d_41">
    <path d="M 84.204055 373.344896 
L 233.012668 373.34048 
L 381.82128 373.319504 
L 516.679085 373.241997 
L 618.322944 372.955233 
L 663.204431 372.025135 
L 676.233196 368.231742 
L 678.573901 361.962973 
L 679.237402 355.11831 
L 679.393279 352.267517 
L 679.424205 351.521362 
L 679.435934 351.5533 
L 679.437893 351.27603 
L 679.438288 352.234802 
" clip-path="url(#p63321d030e)" style="fill: none; stroke: #e377c2; stroke-width: 1.5; stroke-linecap: square"/>
    <defs>
     <path id="m81e1b2b014" d="M 0 3 
C 0.795609 3 1.55874 2.683901 2.12132 2.12132 
C 2.683901 1.55874 3 0.795609 3 0 
C 3 -0.795609 2.683901 -1.55874 2.12132 -2.12132 
C 1.55874 -2.683901 0.795609 -3 0 -3 
C -0.795609 -3 -1.55874 -2.683901 -2.12132 -2.12132 
C -2.683901 -1.55874 -3 -0.795609 -3 0 
C -3 0.795609 -2.683901 1.55874 -2.12132 2.12132 
C -1.55874 2.683901 -0.795609 3 0 3 
z
" style="stroke: #e377c2"/>
    </defs>
    <g clip-path="url(#p63321d030e)">
     <use xlink:href="#m81e1b2b014" x="84.204055" y="373.344896" style="fill: #e377c2; stroke: #e377c2"/>
     <use xlink:href="#m81e1b2b014" x="233.012668" y="373.34048" style="fill: #e377c2; stroke: #e377c2"/>
     <use xlink:href="#m81e1b2b014" x="381.82128" y="373.319504" style="fill: #e377c2; stroke: #e377c2"/>
     <use xlink:href="#m81e1b2b014" x="516.679085" y="373.241997" style="fill: #e377c2; stroke: #e377c2"/>
     <use xlink:href="#m81e1b2b014" x="618.322944" y="372.955233" style="fill: #e377c2; stroke: #e377c2"/>
     <use xlink:href="#m81e1b2b014" x="663.204431" y="372.025135" style="fill: #e377c2; stroke: #e377c2"/>
     <use xlink:href="#m81e1b2b014" x="676.233196" y="368.231742" style="fill: #e377c2; stroke: #e377c2"/>
     <use xlink:href="#m81e1b2b014" x="678.573901" y="361.962973" style="fill: #e377c2; stroke: #e377c2"/>
     <use xlink:href="#m81e1b2b014" x="679.237402" y="355.11831" style="fill: #e377c2; stroke: #e377c2"/>
     <use xlink:href="#m81e1b2b014" x="679.393279" y="352.267517" style="fill: #e377c2; stroke: #e377c2"/>
     <use xlink:href="#m81e1b2b014" x="679.424205" y="351.521362" style="fill: #e377c2; stroke: #e377c2"/>
     <use xlink:href="#m81e1b2b014" x="679.435934" y="351.5533" style="fill: #e377c2; stroke: #e377c2"/>
     <use xlink:href="#m81e1b2b014" x="679.437893" y="351.27603" style="fill: #e377c2; stroke: #e377c2"/>
     <use xlink:href="#m81e1b2b014" x="679.438288" y="352.234802" style="fill: #e377c2; stroke: #e377c2"/>
    </g>
   </g>
   <g id="line2d_42">
    <path d="M 84.204055 373.344902 
L 233.012668 373.340023 
L 353.919665 373.31914 
L 408.56763 373.251299 
L 409.721361 372.920048 
L 408.390853 371.714959 
L 407.847826 367.492373 
L 407.70415 354.407972 
L 407.680718 329.39573 
L 407.672294 302.537512 
L 407.672626 288.116577 
L 407.672276 288.792059 
L 407.672196 290.272151 
L 407.672161 294.343834 
" clip-path="url(#p63321d030e)" style="fill: none; stroke: #7f7f7f; stroke-width: 1.5; stroke-linecap: square"/>
    <defs>
     <path id="m59b99465e7" d="M 0 3 
C 0.795609 3 1.55874 2.683901 2.12132 2.12132 
C 2.683901 1.55874 3 0.795609 3 0 
C 3 -0.795609 2.683901 -1.55874 2.12132 -2.12132 
C 1.55874 -2.683901 0.795609 -3 0 -3 
C -0.795609 -3 -1.55874 -2.683901 -2.12132 -2.12132 
C -2.683901 -1.55874 -3 -0.795609 -3 0 
C -3 0.795609 -2.683901 1.55874 -2.12132 2.12132 
C -1.55874 2.683901 -0.795609 3 0 3 
z
" style="stroke: #7f7f7f"/>
    </defs>
    <g clip-path="url(#p63321d030e)">
     <use xlink:href="#m59b99465e7" x="84.204055" y="373.344902" style="fill: #7f7f7f; stroke: #7f7f7f"/>
     <use xlink:href="#m59b99465e7" x="233.012668" y="373.340023" style="fill: #7f7f7f; stroke: #7f7f7f"/>
     <use xlink:href="#m59b99465e7" x="353.919665" y="373.31914" style="fill: #7f7f7f; stroke: #7f7f7f"/>
     <use xlink:href="#m59b99465e7" x="408.56763" y="373.251299" style="fill: #7f7f7f; stroke: #7f7f7f"/>
     <use xlink:href="#m59b99465e7" x="409.721361" y="372.920048" style="fill: #7f7f7f; stroke: #7f7f7f"/>
     <use xlink:href="#m59b99465e7" x="408.390853" y="371.714959" style="fill: #7f7f7f; stroke: #7f7f7f"/>
     <use xlink:href="#m59b99465e7" x="407.847826" y="367.492373" style="fill: #7f7f7f; stroke: #7f7f7f"/>
     <use xlink:href="#m59b99465e7" x="407.70415" y="354.407972" style="fill: #7f7f7f; stroke: #7f7f7f"/>
     <use xlink:href="#m59b99465e7" x="407.680718" y="329.39573" style="fill: #7f7f7f; stroke: #7f7f7f"/>
     <use xlink:href="#m59b99465e7" x="407.672294" y="302.537512" style="fill: #7f7f7f; stroke: #7f7f7f"/>
     <use xlink:href="#m59b99465e7" x="407.672626" y="288.116577" style="fill: #7f7f7f; stroke: #7f7f7f"/>
     <use xlink:href="#m59b99465e7" x="407.672276" y="288.792059" style="fill: #7f7f7f; stroke: #7f7f7f"/>
     <use xlink:href="#m59b99465e7" x="407.672196" y="290.272151" style="fill: #7f7f7f; stroke: #7f7f7f"/>
     <use xlink:href="#m59b99465e7" x="407.672161" y="294.343834" style="fill: #7f7f7f; stroke: #7f7f7f"/>
    </g>
   </g>
   <g id="patch_3">
    <path d="M 54.442344 389.877656 
L 54.442344 26.16 
" style="fill: none; stroke: #000000; stroke-width: 0.8; stroke-linejoin: miter; stroke-linecap: square"/>
   </g>
   <g id="patch_4">
    <path d="M 709.2 389.877656 
L 709.2 26.16 
" style="fill: none; stroke: #000000; stroke-width: 0.8; stroke-linejoin: miter; stroke-linecap: square"/>
   </g>
   <g id="patch_5">
    <path d="M 54.442344 389.877656 
L 709.2 389.877656 
" style="fill: none; stroke: #000000; stroke-width: 0.8; stroke-linejoin: miter; stroke-linecap: square"/>
   </g>
   <g id="patch_6">
    <path d="M 54.442344 26.16 
L 709.2 26.16 
" style="fill: none; stroke: #000000; stroke-width: 0.8; stroke-linejoin: miter; stroke-linecap: square"/>
   </g>
   <g id="text_21">
    <!-- Decompression speed vs entropy -->
    <g transform="translate(281.729922 20.16) scale(0.12 -0.12)">
     <defs>
      <path id="DejaVuSans-59" d="M 191 3500 
L 800 3500 
L 1894 563 
L 2988 3500 
L 3597 3500 
L 2284 0 
L 1503 0 
L 191 3500 
z
" transform="scale(0.015625)"/>
     </defs>
     <use xlink:href="#DejaVuSans-27"/>
     <use xlink:href="#DejaVuSans-48" transform="translate(77 0)"/>
     <use xlink:href="#DejaVuSans-46" transform="translate(138.53125 0)"/>
     <use xlink:href="#DejaVuSans-52" transform="translate(193.515625 0)"/>
     <use xlink:href="#DejaVuSans-50" transform="translate(254.703125 0)"/>
     <use xlink:href="#DejaVuSans-53" transform="translate(352.109375 0)"/>
     <use xlink:href="#DejaVuSans-55" transform="translate(415.59375 0)"/>
     <use xlink:href="#DejaVuSans-48" transform="translate(454.5 0)"/>
     <use xlink:href="#DejaVuSans-56" transform="translate(516.03125 0)"/>
     <use xlink:href="#DejaVuSans-56" transform="translate(568.125 0)"/>
     <use xlink:href="#DejaVuSans-4c" transform="translate(620.21875 0)"/>
     <use xlink:href="#DejaVuSans-52" transform="translate(648 0)"/>
     <use xlink:href="#DejaVuSans-51" transform="translate(709.1875 0)"/>
     <use xlink:href="#DejaVuSans-3" transform="translate(772.5625 0)"/>
     <use xlink:href="#DejaVuSans-56" transform="translate(804.34375 0)"/>
     <use xlink:href="#DejaVuSans-53" transform="translate(856.4375 0)"/>
     <use xlink:href="#DejaVuSans-48" transform="translate(919.921875 0)"/>
     <use xlink:href="#DejaVuSans-48" transform="translate(981.453125 0)"/>
     <use xlink:href="#DejaVuSans-47" transform="translate(1042.984375 0)"/>
     <use xlink:href="#DejaVuSans-3" transform="translate(1106.46875 0)"/>
     <use xlink:href="#DejaVuSans-59" transform="translate(1138.25 0)"/>
     <use xlink:href="#DejaVuSans-56" transform="translate(1197.4375 0)"/>
     <use xlink:href="#DejaVuSans-3" transform="translate(1249.53125 0)"/>
     <use xlink:href="#DejaVuSans-48" transform="translate(1281.3125 0)"/>
     <use xlink:href="#DejaVuSans-51" transform="translate(1342.84375 0)"/>
     <use xlink:href="#DejaVuSans-57" transform="translate(1406.21875 0)"/>
     <use xlink:href="#DejaVuSans-55" transform="translate(1445.421875 0)"/>
     <use xlink:href="#DejaVuSans-52" transform="translate(1484.328125 0)"/>
     <use xlink:href="#DejaVuSans-53" transform="translate(1545.515625 0)"/>
     <use xlink:href="#DejaVuSans-5c" transform="translate(1609 0)"/>
    </g>
   </g>
   <g id="legend_1">
    <g id="patch_7">
     <path d="M 610.992187 154.16625 
L 702.2 154.16625 
Q 704.2 154.16625 704.2 152.16625 
L 704.2 33.16 
Q 704.2 31.16 702.2 31.16 
L 610.992187 31.16 
Q 608.992187 31.16 608.992187 33.16 
L 608.992187 152.16625 
Q 608.992187 154.16625 610.992187 154.16625 
z
" style="fill: #ffffff; opacity: 0.8; stroke: #cccccc; stroke-linejoin: miter"/>
    </g>
    <g id="line2d_43">
     <path d="M 612.992187 39.258438 
L 622.992187 39.258438 
L 632.992187 39.258438 
" style="fill: none; stroke: #1f77b4; stroke-width: 1.5; stroke-linecap: square"/>
     <g>
      <use xlink:href="#m9231236f17" x="622.992187" y="39.258438" style="fill: #1f77b4; stroke: #1f77b4"/>
     </g>
    </g>
    <g id="text_22">
     <!-- uniform -->
     <g transform="translate(640.992187 42.758438) scale(0.1 -0.1)">
      <defs>
       <path id="DejaVuSans-58" d="M 544 1381 
L 544 3500 
L 1119 3500 
L 1119 1403 
Q 1119 906 1312 657 
Q 1506 409 1894 409 
Q 2359 409 2629 706 
Q 2900 1003 2900 1516 
L 2900 3500 
L 3475 3500 
L 3475 0 
L 2900 0 
L 2900 538 
Q 2691 219 2414 64 
Q 2138 -91 1772 -91 
Q 1169 -91 856 284 
Q 544 659 544 1381 
z
M 1991 3584 
L 1991 3584 
z
" transform="scale(0.015625)"/>
       <path id="DejaVuSans-49" d="M 2375 4863 
L 2375 4384 
L 1825 4384 
Q 1516 4384 1395 4259 
Q 1275 4134 1275 3809 
L 1275 3500 
L 2222 3500 
L 2222 3053 
L 1275 3053 
L 1275 0 
L 697 0 
L 697 3053 
L 147 3053 
L 147 3500 
L 697 3500 
L 697 3744 
Q 697 4328 969 4595 
Q 1241 4863 1831 4863 
L 2375 4863 
z
" transform="scale(0.015625)"/>
      </defs>
      <use xlink:href="#DejaVuSans-58"/>
      <use xlink:href="#DejaVuSans-51" transform="translate(63.375 0)"/>
      <use xlink:href="#DejaVuSans-4c" transform="translate(126.75 0)"/>
      <use xlink:href="#DejaVuSans-49" transform="translate(154.53125 0)"/>
      <use xlink:href="#DejaVuSans-52" transform="translate(189.734375 0)"/>
      <use xlink:href="#DejaVuSans-55" transform="translate(250.921875 0)"/>
      <use xlink:href="#DejaVuSans-50" transform="translate(290.28125 0)"/>
     </g>
    </g>
    <g id="line2d_44">
     <path d="M 612.992187 54.259219 
L 622.992187 54.259219 
L 632.992187 54.259219 
" style="fill: none; stroke: #ff7f0e; stroke-width: 1.5; stroke-linecap: square"/>
     <g>
      <use xlink:href="#m8317f7979a" x="622.992187" y="54.259219" style="fill: #ff7f0e; stroke: #ff7f0e"/>
     </g>
    </g>
    <g id="text_23">
     <!-- periodic2b -->
     <g transform="translate(640.992187 57.759219) scale(0.1 -0.1)">
      <use xlink:href="#DejaVuSans-53"/>
      <use xlink:href="#DejaVuSans-48" transform="translate(63.484375 0)"/>
      <use xlink:href="#DejaVuSans-55" transform="translate(125.015625 0)"/>
      <use xlink:href="#DejaVuSans-4c" transform="translate(166.125 0)"/>
      <use xlink:href="#DejaVuSans-52" transform="translate(193.90625 0)"/>
      <use xlink:href="#DejaVuSans-47" transform="translate(255.09375 0)"/>
      <use xlink:href="#DejaVuSans-4c" transform="translate(318.578125 0)"/>
      <use xlink:href="#DejaVuSans-46" transform="translate(346.359375 0)"/>
      <use xlink:href="#DejaVuSans-15" transform="translate(401.34375 0)"/>
      <use xlink:href="#DejaVuSans-45" transform="translate(464.96875 0)"/>
     </g>
    </g>
    <g id="line2d_45">
     <path d="M 612.992187 69.26 
L 622.992187 69.26 
L 632.992187 69.26 
" style="fill: none; stroke: #2ca02c; stroke-width: 1.5; stroke-linecap: square"/>
     <g>
      <use xlink:href="#mcee8597ca6" x="622.992187" y="69.26" style="fill: #2ca02c; stroke: #2ca02c"/>
     </g>
    </g>
    <g id="text_24">
     <!-- periodic4b -->
     <g transform="translate(640.992187 72.76) scale(0.1 -0.1)">
      <use xlink:href="#DejaVuSans-53"/>
      <use xlink:href="#DejaVuSans-48" transform="translate(63.484375 0)"/>
      <use xlink:href="#DejaVuSans-55" transform="translate(125.015625 0)"/>
      <use xlink:href="#DejaVuSans-4c" transform="translate(166.125 0)"/>
      <use xlink:href="#DejaVuSans-52" transform="translate(193.90625 0)"/>
      <use xlink:href="#DejaVuSans-47" transform="translate(255.09375 0)"/>
      <use xlink:href="#DejaVuSans-4c" transform="translate(318.578125 0)"/>
      <use xlink:href="#DejaVuSans-46" transform="translate(346.359375 0)"/>
      <use xlink:href="#DejaVuSans-17" transform="translate(401.34375 0)"/>
      <use xlink:href="#DejaVuSans-45" transform="translate(464.96875 0)"/>
     </g>
    </g>
    <g id="line2d_46">
     <path d="M 612.992187 84.260781 
L 622.992187 84.260781 
L 632.992187 84.260781 
" style="fill: none; stroke: #d62728; stroke-width: 1.5; stroke-linecap: square"/>
     <g>
      <use xlink:href="#m3ef4b523b0" x="622.992187" y="84.260781" style="fill: #d62728; stroke: #d62728"/>
     </g>
    </g>
    <g id="text_25">
     <!-- periodic8b -->
     <g transform="translate(640.992187 87.760781) scale(0.1 -0.1)">
      <use xlink:href="#DejaVuSans-53"/>
      <use xlink:href="#DejaVuSans-48" transform="translate(63.484375 0)"/>
      <use xlink:href="#DejaVuSans-55" transform="translate(125.015625 0)"/>
      <use xlink:href="#DejaVuSans-4c" transform="translate(166.125 0)"/>
      <use xlink:href="#DejaVuSans-52" transform="translate(193.90625 0)"/>
      <use xlink:href="#DejaVuSans-47" transform="translate(255.09375 0)"/>
      <use xlink:href="#DejaVuSans-4c" transform="translate(318.578125 0)"/>
      <use xlink:href="#DejaVuSans-46" transform="translate(346.359375 0)"/>
      <use xlink:href="#DejaVuSans-1b" transform="translate(401.34375 0)"/>
      <use xlink:href="#DejaVuSans-45" transform="translate(464.96875 0)"/>
     </g>
    </g>
    <g id="line2d_47">
     <path d="M 612.992187 99.261563 
L 622.992187 99.261563 
L 632.992187 99.261563 
" style="fill: none; stroke: #9467bd; stroke-width: 1.5; stroke-linecap: square"/>
     <g>
      <use xlink:href="#m8f71fa1bd4" x="622.992187" y="99.261563" style="fill: #9467bd; stroke: #9467bd"/>
     </g>
    </g>
    <g id="text_26">
     <!-- periodic16b -->
     <g transform="translate(640.992187 102.761563) scale(0.1 -0.1)">
      <use xlink:href="#DejaVuSans-53"/>
      <use xlink:href="#DejaVuSans-48" transform="translate(63.484375 0)"/>
      <use xlink:href="#DejaVuSans-55" transform="translate(125.015625 0)"/>
      <use xlink:href="#DejaVuSans-4c" transform="translate(166.125 0)"/>
      <use xlink:href="#DejaVuSans-52" transform="translate(193.90625 0)"/>
      <use xlink:href="#DejaVuSans-47" transform="translate(255.09375 0)"/>
      <use xlink:href="#DejaVuSans-4c" transform="translate(318.578125 0)"/>
      <use xlink:href="#DejaVuSans-46" transform="translate(346.359375 0)"/>
      <use xlink:href="#DejaVuSans-14" transform="translate(401.34375 0)"/>
      <use xlink:href="#DejaVuSans-19" transform="translate(464.96875 0)"/>
      <use xlink:href="#DejaVuSans-45" transform="translate(528.59375 0)"/>
     </g>
    </g>
    <g id="line2d_48">
     <path d="M 612.992187 114.262344 
L 622.992187 114.262344 
L 632.992187 114.262344 
" style="fill: none; stroke: #8c564b; stroke-width: 1.5; stroke-linecap: square"/>
     <g>
      <use xlink:href="#mb2ecd12620" x="622.992187" y="114.262344" style="fill: #8c564b; stroke: #8c564b"/>
     </g>
    </g>
    <g id="text_27">
     <!-- periodic32b -->
     <g transform="translate(640.992187 117.762344) scale(0.1 -0.1)">
      <use xlink:href="#DejaVuSans-53"/>
      <use xlink:href="#DejaVuSans-48" transform="translate(63.484375 0)"/>
      <use xlink:href="#DejaVuSans-55" transform="translate(125.015625 0)"/>
      <use xlink:href="#DejaVuSans-4c" transform="translate(166.125 0)"/>
      <use xlink:href="#DejaVuSans-52" transform="translate(193.90625 0)"/>
      <use xlink:href="#DejaVuSans-47" transform="translate(255.09375 0)"/>
      <use xlink:href="#DejaVuSans-4c" transform="translate(318.578125 0)"/>
      <use xlink:href="#DejaVuSans-46" transform="translate(346.359375 0)"/>
      <use xlink:href="#DejaVuSans-16" transform="translate(401.34375 0)"/>
      <use xlink:href="#DejaVuSans-15" transform="translate(464.96875 0)"/>
      <use xlink:href="#DejaVuSans-45" transform="translate(528.59375 0)"/>
     </g>
    </g>
    <g id="line2d_49">
     <path d="M 612.992187 129.263125 
L 622.992187 129.263125 
L 632.992187 129.263125 
" style="fill: none; stroke: #e377c2; stroke-width: 1.5; stroke-linecap: square"/>
     <g>
      <use xlink:href="#m81e1b2b014" x="622.992187" y="129.263125" style="fill: #e377c2; stroke: #e377c2"/>
     </g>
    </g>
    <g id="text_28">
     <!-- random -->
     <g transform="translate(640.992187 132.763125) scale(0.1 -0.1)">
      <defs>
       <path id="DejaVuSans-44" d="M 2194 1759 
Q 1497 1759 1228 1600 
Q 959 1441 959 1056 
Q 959 750 1161 570 
Q 1363 391 1709 391 
Q 2188 391 2477 730 
Q 2766 1069 2766 1631 
L 2766 1759 
L 2194 1759 
z
M 3341 1997 
L 3341 0 
L 2766 0 
L 2766 531 
Q 2569 213 2275 61 
Q 1981 -91 1556 -91 
Q 1019 -91 701 211 
Q 384 513 384 1019 
Q 384 1609 779 1909 
Q 1175 2209 1959 2209 
L 2766 2209 
L 2766 2266 
Q 2766 2663 2505 2880 
Q 2244 3097 1772 3097 
Q 1472 3097 1187 3025 
Q 903 2953 641 2809 
L 641 3341 
Q 956 3463 1253 3523 
Q 1550 3584 1831 3584 
Q 2591 3584 2966 3190 
Q 3341 2797 3341 1997 
z
" transform="scale(0.015625)"/>
      </defs>
      <use xlink:href="#DejaVuSans-55"/>
      <use xlink:href="#DejaVuSans-44" transform="translate(41.109375 0)"/>
      <use xlink:href="#DejaVuSans-51" transform="translate(102.390625 0)"/>
      <use xlink:href="#DejaVuSans-47" transform="translate(165.765625 0)"/>
      <use xlink:href="#DejaVuSans-52" transform="translate(229.25 0)"/>
      <use xlink:href="#DejaVuSans-50" transform="translate(290.4375 0)"/>
     </g>
    </g>
    <g id="line2d_50">
     <path d="M 612.992187 144.263906 
L 622.992187 144.263906 
L 632.992187 144.263906 
" style="fill: none; stroke: #7f7f7f; stroke-width: 1.5; stroke-linecap: square"/>
     <g>
      <use xlink:href="#m59b99465e7" x="622.992187" y="144.263906" style="fill: #7f7f7f; stroke: #7f7f7f"/>
     </g>
    </g>
    <g id="text_29">
     <!-- text -->
     <g transform="translate(640.992187 147.763906) scale(0.1 -0.1)">
      <defs>
       <path id="DejaVuSans-5b" d="M 3513 3500 
L 2247 1797 
L 3578 0 
L 2900 0 
L 1881 1375 
L 863 0 
L 184 0 
L 1544 1831 
L 300 3500 
L 978 3500 
L 1906 2253 
L 2834 3500 
L 3513 3500 
z
" transform="scale(0.015625)"/>
      </defs>
      <use xlink:href="#DejaVuSans-57"/>
      <use xlink:href="#DejaVuSans-48" transform="translate(39.203125 0)"/>
      <use xlink:href="#DejaVuSans-5b" transform="translate(98.984375 0)"/>
      <use xlink:href="#DejaVuSans-57" transform="translate(158.171875 0)"/>
     </g>
    </g>
   </g>
  </g>
 </g>
 <defs>
  <clipPath id="p63321d030e">
   <rect x="54.442344" y="26.16" width="654.757656" height="363.717656"/>
  </clipPath>
 </defs>
</svg>
